<svg width="34" height="34" viewBox="0 0 34 34" fill="none" xmlns="http://www.w3.org/2000/svg">
<rect width="34" height="34" rx="17" fill="#111111"/>
<path d="M25.4732 12.9846C24.8868 12.9846 24.3061 12.8691 23.7643 12.6447C23.2225 12.4203 22.7303 12.0914 22.3156 11.6767C21.9009 11.2621 21.572 10.7698 21.3476 10.228C21.1232 9.68625 21.0077 9.10557 21.0077 8.51915H17.8173V21.0119C17.8167 21.5815 17.6369 22.1364 17.3033 22.5981C16.9696 23.0597 16.4992 23.4047 15.9586 23.584C15.418 23.7634 14.8347 23.768 14.2913 23.5973C13.7479 23.4266 13.272 23.0892 12.9311 22.6329C12.5902 22.1766 12.4015 21.6246 12.3918 21.0551C12.3821 20.4857 12.5519 19.9276 12.8772 19.46C13.2024 18.9924 13.6665 18.639 14.2038 18.4499C14.7411 18.2609 15.3242 18.2457 15.8706 18.4065V15.3053C14.7094 15.1487 13.5282 15.3501 12.4845 15.8826C11.4408 16.4151 10.5844 17.2533 10.0296 18.2853C9.47482 19.3173 9.2481 20.494 9.3797 21.6583C9.5113 22.8226 9.99496 23.919 10.7661 24.8011C11.5372 25.6833 12.5591 26.3092 13.6953 26.5952C14.8315 26.8813 16.028 26.8139 17.1249 26.4021C18.2218 25.9903 19.167 25.2537 19.8342 24.2905C20.5015 23.3274 20.859 22.1836 20.8591 21.0119L20.9516 14.6972C22.2625 15.6595 23.8467 16.1773 25.4728 16.1748L25.4732 12.9846Z" fill="url(#paint0_linear_1957_2915)"/>
<path d="M24.6298 12.1156C23.4455 12.1155 22.3097 11.645 21.4723 10.8076C20.6349 9.97014 20.1644 8.83433 20.1644 7.65002H16.9741V20.1428C16.9735 20.7124 16.7936 21.2673 16.46 21.729C16.1264 22.1906 15.656 22.5356 15.1154 22.7149C14.5748 22.8943 13.9915 22.8989 13.4481 22.7282C12.9047 22.5575 12.4288 22.2201 12.0878 21.7639C11.7469 21.3076 11.5582 20.7556 11.5486 20.1861C11.5389 19.6166 11.7087 19.0585 12.0339 18.5909C12.3591 18.1233 12.8233 17.7699 13.3605 17.5809C13.8978 17.3918 14.481 17.3766 15.0274 17.5375V14.4362C13.8662 14.2796 12.6849 14.481 11.6412 15.0135C10.5975 15.546 9.7411 16.3842 9.18633 17.4162C8.63156 18.4482 8.40484 19.6249 8.53644 20.7892C8.66804 21.9534 9.1517 23.0498 9.92283 23.932C10.694 24.8141 11.7159 25.44 12.8521 25.7261C13.9883 26.0122 15.1847 25.9448 16.2817 25.533C17.3786 25.1212 18.3238 24.3845 18.991 23.4214C19.6582 22.4583 20.0158 21.3145 20.0158 20.1428L20.1089 13.8281C21.4197 14.7904 23.004 15.3081 24.6301 15.3057L24.6298 12.1156Z" fill="url(#paint1_linear_1957_2915)"/>
<path d="M24.6297 12.9048C23.5259 12.6924 22.5427 12.0715 21.8766 11.1661C21.0346 10.5071 20.4571 9.56789 20.249 8.51915H17.8174V21.0119C17.8173 21.6048 17.6233 22.1815 17.2648 22.6537C16.9064 23.126 16.4032 23.4681 15.8322 23.6276C15.2612 23.7872 14.6536 23.7555 14.1023 23.5374C13.5509 23.3193 13.0861 22.9268 12.7787 22.4198C12.2321 22.064 11.8317 21.5234 11.6508 20.8968C11.4699 20.2702 11.5204 19.5994 11.7933 19.007C12.0661 18.4146 12.543 17.9402 13.1368 17.6703C13.7306 17.4005 14.4016 17.3534 15.0273 17.5375V15.2553C13.9541 15.2691 12.9061 15.5827 12.0017 16.1605C11.0972 16.7384 10.3723 17.5575 9.90872 18.5255C9.44515 19.4936 9.26139 20.5719 9.37819 21.6388C9.49498 22.7057 9.90768 23.7187 10.5697 24.5635C11.4102 25.2648 12.4331 25.712 13.5186 25.8526C14.6042 25.9932 15.7073 25.8215 16.6987 25.3575C17.6901 24.8936 18.5288 24.1566 19.1162 23.233C19.7037 22.3094 20.0158 21.2374 20.0157 20.1428L20.1088 13.8281C21.4196 14.7904 23.0039 15.3082 24.63 15.3057L24.6297 12.9048Z" fill="url(#paint2_linear_1957_2915)"/>
<defs>
<linearGradient id="paint0_linear_1957_2915" x1="10.6219" y1="24.6745" x2="23.8924" y2="11.4039" gradientUnits="userSpaceOnUse">
<stop stop-color="#B5053C"/>
<stop offset="0.233" stop-color="#C90441"/>
<stop offset="0.737" stop-color="#F0014B"/>
<stop offset="1" stop-color="#FF004F"/>
</linearGradient>
<linearGradient id="paint1_linear_1957_2915" x1="9.58089" y1="24.0029" x2="23.5597" y2="10.0241" gradientUnits="userSpaceOnUse">
<stop stop-color="#00B2C9"/>
<stop offset="0.283" stop-color="#00C8D4"/>
<stop offset="0.741" stop-color="#00E6E4"/>
<stop offset="1" stop-color="#00F1EA"/>
</linearGradient>
<linearGradient id="paint2_linear_1957_2915" x1="1.74919" y1="32.6908" x2="32.6914" y2="1.74855" gradientUnits="userSpaceOnUse">
<stop stop-color="#DDE3E4"/>
<stop offset="1" stop-color="#FCF7F7"/>
</linearGradient>
</defs>
</svg>
