<svg width="34" height="34" viewBox="0 0 34 34" fill="none" xmlns="http://www.w3.org/2000/svg">
<rect width="34" height="34" rx="17" fill="#0077FF"/>
<path d="M17.835 22.95C11.446 22.95 7.80174 18.483 7.6499 11.05H10.8503C10.9554 16.5057 13.3148 18.8166 15.1836 19.293V11.05H18.1971V15.7552C20.0426 15.5527 21.9815 13.4086 22.6356 11.05H25.6491C25.4026 12.2732 24.9113 13.4314 24.2059 14.4521C23.5004 15.4729 22.5961 16.3341 21.5493 16.9821C22.7177 17.5742 23.7497 18.4123 24.5772 19.441C25.4047 20.4697 26.0089 21.6657 26.3499 22.95H23.0327C22.7266 21.8345 22.1045 20.8359 21.2443 20.0794C20.3841 19.3229 19.3241 18.8422 18.1971 18.6975V22.95H17.835V22.95Z" fill="white"/>
</svg>
