<svg width="34" height="34" viewBox="0 0 34 34" fill="none" xmlns="http://www.w3.org/2000/svg">
<rect width="34" height="34" rx="17" fill="#F40000"/>
<path fill-rule="evenodd" clip-rule="evenodd" d="M9.57302 22.9983C9.23959 22.8996 8.93537 22.7242 8.68602 22.4866C8.43666 22.2491 8.24949 21.9565 8.14031 21.6335C7.51639 19.9643 7.33152 12.9939 8.53315 11.6179C8.93307 11.1702 9.49771 10.8946 10.1045 10.8509C13.3281 10.5125 23.2878 10.5576 24.4316 10.9637C24.7533 11.0656 25.0473 11.2372 25.2914 11.4658C25.5355 11.6943 25.7235 11.9738 25.8412 12.2833C26.5229 14.009 26.546 20.2801 25.7488 21.9381C25.5373 22.3697 25.1832 22.7193 24.7436 22.9306C23.5419 23.5171 11.1675 23.5058 9.57302 22.9983V22.9983ZM14.6915 19.7274L20.4686 16.7949L14.6915 13.8398V19.7274Z" fill="white"/>
</svg>
