<svg width="34" height="34" viewBox="0 0 34 34" fill="none" xmlns="http://www.w3.org/2000/svg">
<circle cx="17" cy="17" r="17" fill="black"/>
<path d="M26.9492 16.958V17.2188C26.8369 17.2188 26.7286 17.2167 26.6203 17.2188C26.147 17.2353 25.6737 17.2519 25.2004 17.2767C24.6669 17.3036 24.1334 17.3326 23.6019 17.3781C23.1547 17.4154 22.7054 17.4609 22.2622 17.5271C21.4178 17.6513 20.5976 17.8624 19.8455 18.2929C18.7765 18.9055 18.0445 19.8141 17.6133 20.9876C17.3826 21.6127 17.2422 22.2625 17.172 22.9269C17.0978 23.6409 17.0357 24.357 16.9895 25.0732C16.9474 25.723 16.9334 26.3729 16.9073 27.0228C16.8993 27.2153 16.8953 27.4057 16.8892 27.5982H16.6446C16.6185 26.8075 16.5984 26.0169 16.5603 25.2284C16.5343 24.6799 16.4941 24.1294 16.442 23.583C16.3578 22.693 16.2294 21.8114 15.9145 20.9711C15.3048 19.3484 14.1717 18.3136 12.5672 17.8148C12.0398 17.6513 11.5023 17.5375 10.9567 17.4837C10.1766 17.4092 9.3964 17.3429 8.61623 17.2953C7.93834 17.2539 7.25845 17.2394 6.58057 17.2146V16.9621C7.35271 16.9352 8.12687 16.9145 8.89902 16.8752C9.49066 16.8441 10.0843 16.7965 10.674 16.7324C11.5384 16.6392 12.3947 16.4861 13.201 16.128C14.5989 15.5092 15.5194 14.4392 16.0008 12.9594C16.1833 12.4026 16.3036 11.8273 16.3638 11.2436C16.436 10.5296 16.4982 9.81347 16.5443 9.09736C16.5864 8.44542 16.6024 7.7914 16.6265 7.13738C16.6325 6.95525 16.6285 6.77312 16.6285 6.58064H16.9093C16.9073 6.78554 16.9033 6.98216 16.9113 7.17671C16.9334 7.82658 16.9494 8.47853 16.9915 9.12634C17.0377 9.84037 17.0998 10.5523 17.174 11.2622C17.2302 11.819 17.3485 12.3654 17.515 12.8993C17.9081 14.1474 18.6221 15.1387 19.7291 15.8114C20.5595 16.3164 21.476 16.5378 22.4166 16.6703C22.8217 16.7262 23.2309 16.7676 23.638 16.8007C24.1474 16.8421 24.6569 16.8731 25.1663 16.898C25.6596 16.9228 26.153 16.9393 26.6464 16.9559C26.7407 16.96 26.8409 16.958 26.9492 16.958Z" fill="white"/>
</svg>
