<svg width="14" height="15" viewBox="0 0 14 15" fill="none" xmlns="http://www.w3.org/2000/svg">
<g clip-path="url(#clip0_405_411)">
<path d="M13.8339 8.46743C13.6644 8.10563 13.5088 7.78558 13.3565 7.48988C13.3012 7.37856 13.3012 7.28811 13.3565 7.17331C13.5053 6.87761 13.661 6.55756 13.8339 6.19576C14.2041 5.41651 13.9446 4.61638 13.1905 4.20588C12.8861 4.0389 12.5747 3.86844 12.2565 3.70841C12.1285 3.64579 12.0697 3.5623 12.0489 3.41271C11.9936 3.04744 11.9313 2.68912 11.8621 2.3482C11.6891 1.48893 10.9869 1.00538 10.1186 1.14801C9.88681 1.18627 9.65157 1.21758 9.4198 1.25237C9.30564 1.26977 9.19494 1.28368 9.08078 1.30108C8.98392 1.31499 8.91127 1.29064 8.83863 1.22106C8.7556 1.13757 8.66912 1.05408 8.58609 0.977546C8.4581 0.852309 8.32318 0.727072 8.19865 0.594877C7.97033 0.358318 7.64515 0.0765339 7.17122 0L7.15392 0H6.84258L6.82528 0.00347881C6.34443 0.0800127 6.00888 0.382669 5.79786 0.598356C5.69753 0.70272 5.59029 0.807084 5.48305 0.90797C5.38273 1.0019 5.28241 1.0993 5.18209 1.20019C5.08869 1.29412 5.0022 1.32195 4.86383 1.2976C4.53173 1.24194 4.17888 1.18975 3.81565 1.14453C2.94389 1.03669 2.27623 1.53416 2.12056 2.41082C2.04792 2.81088 1.99257 3.13789 1.94414 3.44054C1.92338 3.56578 1.87149 3.64232 1.76079 3.69798C1.43561 3.86496 1.10697 4.0389 0.802551 4.20588C0.0553307 4.61986 -0.204121 5.41999 0.16603 6.19924C0.345916 6.57843 0.498128 6.88805 0.643421 7.17679C0.69877 7.28811 0.69877 7.37856 0.643421 7.48988C0.477372 7.82037 0.321701 8.14738 0.172949 8.45351C-0.204121 9.23972 0.05879 10.0468 0.826766 10.4643C0.885575 10.4956 0.944384 10.5269 0.999734 10.5582C1.24189 10.6904 1.49442 10.8261 1.74695 10.9548C1.87495 11.0174 1.93376 11.1009 1.95451 11.2505C2.00986 11.6088 2.07213 11.9671 2.14132 12.315C2.31429 13.1673 3.00616 13.6509 3.86754 13.5187C4.08202 13.4839 4.2965 13.456 4.50752 13.4247C4.64589 13.4039 4.78081 13.3865 4.91918 13.3656C5.01604 13.3517 5.09215 13.376 5.16825 13.4526C5.29971 13.5848 5.43808 13.717 5.56954 13.8422C5.69753 13.9639 5.82553 14.0927 5.95353 14.2179C6.1853 14.4475 6.47589 14.5971 6.82182 14.6667L6.84258 14.6701H7.15738L7.17468 14.6667C7.65553 14.5901 7.99109 14.2875 8.20211 14.0718C8.30935 13.9605 8.4235 13.8491 8.5342 13.7448C8.63106 13.6543 8.72793 13.5604 8.82479 13.463C8.90781 13.376 8.9943 13.3517 9.12229 13.3726C9.50974 13.4352 9.85568 13.4839 10.1843 13.5256C11.0561 13.6335 11.7237 13.136 11.8794 12.2593C11.952 11.8593 12.0074 11.5323 12.0558 11.2296C12.0766 11.1044 12.1285 11.0278 12.2392 10.9722C12.5713 10.8017 12.8964 10.6278 13.1974 10.4643C13.9446 10.0468 14.2041 9.24668 13.8339 8.46743ZM12.5989 9.36844L12.4294 9.45889C12.1804 9.59456 11.9174 9.73371 11.6615 9.86591C11.1944 10.1059 10.9177 10.4956 10.8347 11.0278C10.7759 11.4035 10.7067 11.7862 10.6444 12.1167C10.6306 12.1967 10.5891 12.2976 10.4092 12.3011C10.3089 12.2872 10.2085 12.2732 10.1082 12.2593C9.86605 12.228 9.61698 12.1967 9.37483 12.1515C8.80403 12.0471 8.3128 12.2037 7.91844 12.6107C7.74547 12.7881 7.56212 12.9655 7.38224 13.136C7.31651 13.1986 7.25078 13.2612 7.18852 13.3238C7.04668 13.463 6.95328 13.4595 6.80799 13.3204C6.74572 13.2612 6.68691 13.2021 6.6281 13.1464C6.4413 12.969 6.25103 12.7846 6.06768 12.5968C5.75288 12.2802 5.38273 12.1202 4.96761 12.1202C4.88459 12.1202 4.7981 12.1271 4.70816 12.1411C4.53865 12.1654 4.36914 12.1898 4.19618 12.2141C4.01629 12.2419 3.83294 12.2663 3.65306 12.2941C3.46625 12.3219 3.38323 12.2663 3.34863 12.0854C3.30712 11.8627 3.26907 11.6366 3.22756 11.4175C3.19988 11.2574 3.17221 11.0974 3.14107 10.9374C3.05459 10.4712 2.79514 10.1199 2.36618 9.88678C2.18283 9.78938 1.99949 9.69197 1.81614 9.59456C1.68123 9.52499 1.54977 9.45193 1.41486 9.37888C1.20729 9.26755 1.17962 9.19102 1.2834 8.97881C1.32145 8.8988 1.36297 8.81531 1.40102 8.73182C1.51172 8.50221 1.62588 8.26218 1.74349 8.03257C1.97527 7.56641 1.97527 7.09678 1.74349 6.63061C1.5982 6.34187 1.45291 6.0427 1.31453 5.75395L1.26956 5.66351C1.18308 5.48261 1.21075 5.39564 1.39064 5.30171C1.46675 5.25996 1.53939 5.2217 1.6155 5.17995C1.80576 5.07559 2.00295 4.96426 2.20013 4.87729C2.78476 4.60943 3.11686 4.14326 3.19296 3.48925C3.22064 3.25617 3.26561 3.01613 3.31058 2.78305C3.32442 2.71695 3.3348 2.65433 3.34863 2.58824C3.38323 2.40734 3.46625 2.35168 3.65306 2.37951C4.02321 2.43517 4.4072 2.48735 4.79118 2.53953C5.2582 2.60215 5.67332 2.45604 6.02963 2.10468C6.21644 1.92378 6.4067 1.73941 6.59005 1.55851L6.78723 1.36717C6.9602 1.20019 7.0363 1.20019 7.20581 1.36369C7.27846 1.43327 7.3511 1.50285 7.42029 1.57242C7.5898 1.73593 7.76623 1.90639 7.93573 2.07685C8.3128 2.463 8.77636 2.61259 9.31256 2.5291C9.57547 2.48735 9.8453 2.44908 10.1047 2.41082C10.1912 2.3969 10.2777 2.38646 10.3607 2.37255C10.5302 2.3482 10.6133 2.40734 10.6444 2.5778C10.7136 2.95351 10.7759 3.29443 10.8312 3.63884C10.9142 4.16762 11.191 4.56072 11.658 4.80076C11.8898 4.91904 12.1216 5.04428 12.3464 5.16603C12.426 5.20778 12.5055 5.25301 12.5816 5.29475C12.7823 5.40259 12.81 5.47913 12.7096 5.68438L12.6128 5.88963C12.4917 6.13662 12.3706 6.39406 12.2461 6.64453C12.0178 7.10373 12.0178 7.57337 12.2461 8.03257C12.3948 8.33175 12.5401 8.63789 12.6854 8.93359L12.72 9.00316C12.8134 9.18754 12.7857 9.27103 12.5989 9.36844Z" fill="#555555" fill-opacity="0.69"/>
<path d="M10.1875 4.99213C10.1495 5.04083 10.1114 5.08258 10.0733 5.11737L10.063 5.1278L8.70344 6.49497C7.42348 7.78213 6.10201 9.11104 4.80475 10.4191C4.69751 10.5269 4.53147 10.6626 4.30315 10.6626C4.26164 10.6626 4.22012 10.6591 4.17861 10.6487C3.91224 10.5965 3.70814 10.3564 3.66663 10.0538L3.65625 9.98422L3.69084 9.92508C3.70468 9.89725 3.71852 9.86942 3.73236 9.84506C3.76695 9.77201 3.80846 9.68852 3.87073 9.61546C3.94338 9.52849 4.01948 9.45196 4.09559 9.3789C4.12672 9.35107 4.1544 9.32324 4.18207 9.29193L5.23717 8.2309C6.55519 6.90547 7.86974 5.58353 9.18775 4.2581C9.28115 4.16418 9.44028 4.00415 9.68936 4.00415C9.93843 4.00415 10.1322 4.12243 10.2429 4.34159C10.3536 4.56076 10.3328 4.79036 10.1875 4.99213Z" fill="#555555" fill-opacity="0.69"/>
<path d="M5.37951 3.42651C5.37259 3.42651 5.36913 3.42651 5.36221 3.42651C4.91595 3.42651 4.49391 3.60045 4.17219 3.9205C3.84701 4.24403 3.66367 4.67193 3.66021 5.12417C3.65675 5.58686 3.83317 6.02171 4.15143 6.34872C4.4697 6.67224 4.89866 6.85314 5.35529 6.85662H5.36221C5.81193 6.85662 6.23743 6.6792 6.55915 6.35915C6.88433 6.03562 7.06075 5.60773 7.06421 5.152C7.07459 4.20925 6.31699 3.43347 5.37951 3.42651ZM5.36567 4.66845C5.62858 4.66845 5.83614 4.8737 5.83614 5.13809C5.8396 5.39204 5.62512 5.61121 5.36913 5.61816H5.36221C5.24113 5.61816 5.12351 5.56598 5.03357 5.47901C4.94017 5.38856 4.88828 5.26333 4.89174 5.14157C4.8952 4.87718 5.10276 4.67193 5.36567 4.66845Z" fill="#555555" fill-opacity="0.69"/>
<path d="M8.6352 7.81348H8.62828C8.17164 7.81696 7.74269 7.99437 7.42443 8.3179C7.10271 8.64491 6.92628 9.07628 6.92974 9.54244C6.9332 10.4782 7.69771 11.2401 8.63174 11.2401H8.6352C9.08837 11.2401 9.51387 11.0592 9.83905 10.7357C10.1642 10.4087 10.3407 9.97381 10.3372 9.51461C10.3337 8.57533 9.56922 7.81348 8.6352 7.81348ZM8.6352 9.99468C8.37229 9.99468 8.16473 9.78943 8.16473 9.52505C8.16473 9.27109 8.37575 9.05193 8.63174 9.04845H8.63866C8.75974 9.04845 8.87735 9.10063 8.9673 9.19108C9.05724 9.28153 9.10913 9.40677 9.10913 9.52852C9.10567 9.78943 8.89811 9.99468 8.6352 9.99468Z" fill="#555555" fill-opacity="0.69"/>
</g>
<defs>
<clipPath id="clip0_405_411">
<rect width="14" height="14.6667" fill="white"/>
</clipPath>
</defs>
</svg>
