<svg width="20" height="20" viewBox="0 0 20 20" fill="none" xmlns="http://www.w3.org/2000/svg">
<mask id="mask0_256_1747" style="mask-type:alpha" maskUnits="userSpaceOnUse" x="0" y="0" width="20" height="20">
<path d="M19.1331 9.91594C19.029 10.144 18.8406 10.2629 18.6224 10.3621C17.8291 10.719 17.0408 11.0858 16.2524 11.4476C16.1929 11.4724 16.1334 11.4972 16.0938 11.517C16.1532 10.9321 16.2574 10.3521 16.2574 9.77219C16.2574 9.19222 16.1532 8.61226 16.0938 8.02734C16.2276 8.08683 16.3813 8.15622 16.54 8.22562C17.2688 8.55774 17.9977 8.89977 18.7266 9.22692C18.9199 9.31119 19.0439 9.44999 19.1381 9.62844C19.1331 9.71766 19.1331 9.8168 19.1331 9.91594Z" fill="#F29100"/>
<path d="M9.48418 19.2697C9.26601 19.1705 9.14206 18.9871 9.04785 18.774C8.69086 17.9759 8.31899 17.1778 7.95704 16.3797C7.93224 16.3252 7.90745 16.2657 7.89258 16.2261C8.47269 16.2856 9.05281 16.3946 9.62796 16.3946C10.2081 16.3946 10.7882 16.2905 11.3782 16.231C11.3634 16.2657 11.3435 16.3252 11.3138 16.3797C10.9469 17.1778 10.5799 17.9709 10.223 18.774C10.1238 18.9921 10.0048 19.1705 9.78663 19.2697C9.6825 19.2697 9.58334 19.2697 9.48418 19.2697Z" fill="#F29100"/>
<path d="M9.62313 15.2992C6.57381 15.2942 4.08972 12.8009 4.09964 9.75237C4.10956 6.7088 6.5986 4.23528 9.638 4.24024C12.6873 4.2452 15.1714 6.73855 15.1615 9.78707C15.1516 12.8257 12.6675 15.2992 9.62313 15.2992Z" fill="#F29100"/>
<path d="M3.85131 6.50562C3.64306 5.94549 3.44473 5.41509 3.2464 4.87974C3.10261 4.4931 2.95882 4.09655 2.81007 3.70495C2.72083 3.46701 2.72578 3.24395 2.9142 3.05063C3.10261 2.86227 3.32573 2.85731 3.56373 2.94653C4.45126 3.27865 5.34374 3.60581 6.23623 3.93792C6.27094 3.95279 6.30069 3.96767 6.36018 3.99245C5.30408 4.61207 4.47109 5.43492 3.85131 6.50562Z" fill="#F29100"/>
<path d="M3.85606 13.0388C4.47088 14.0947 5.29395 14.9225 6.35501 15.5371C6.29551 15.5669 6.26081 15.5867 6.21618 15.6016C5.33857 15.9287 4.46096 16.2559 3.58335 16.583C3.3404 16.6723 3.10736 16.6772 2.91399 16.4839C2.71566 16.2906 2.72558 16.0576 2.81483 15.8147C3.13711 14.9472 3.4594 14.0798 3.78168 13.2123C3.80152 13.1627 3.82631 13.1132 3.85606 13.0388Z" fill="#F29100"/>
<path d="M15.4044 6.50066C14.7896 5.43987 13.9616 4.61206 12.8906 3.99244C13.2675 3.85365 13.6195 3.71981 13.9715 3.59093C14.5368 3.37778 15.107 3.16959 15.6722 2.95644C15.9151 2.86226 16.1482 2.8573 16.3416 3.05062C16.5399 3.24394 16.5349 3.47692 16.4407 3.71981C16.1184 4.58728 15.7961 5.45474 15.4739 6.32221C15.459 6.37674 15.4392 6.42631 15.4044 6.50066Z" fill="#F29100"/>
<path d="M15.4092 13.0288C15.6521 13.6881 15.8852 14.3127 16.1182 14.9372C16.2322 15.2446 16.3463 15.5519 16.4603 15.8592C16.5446 16.0922 16.5248 16.3153 16.3413 16.4937C16.1628 16.6672 15.9496 16.6821 15.7215 16.5978C14.8191 16.2607 13.9168 15.9286 13.0144 15.5916C12.9846 15.5816 12.9598 15.5668 12.9053 15.542C13.9564 14.9273 14.7844 14.1045 15.4092 13.0288Z" fill="#F29100"/>
<path d="M11.4033 3.36773C10.2133 3.05544 9.05807 3.05544 7.87305 3.36773C7.9028 3.28842 7.91271 3.23885 7.9375 3.18928C8.31929 2.35155 8.70603 1.51879 9.08782 0.681062C9.1969 0.438171 9.36052 0.264678 9.64314 0.269635C9.9208 0.274592 10.0745 0.443128 10.1836 0.681062C10.5604 1.51383 10.9422 2.34164 11.324 3.17441C11.3438 3.22398 11.3637 3.27355 11.4033 3.36773Z" fill="#F29100"/>
<path d="M3.23667 11.5467C2.71606 11.3087 2.24503 11.0956 1.77895 10.8775C1.36246 10.6891 0.950923 10.4958 0.53443 10.3074C0.296435 10.1984 0.132812 10.0348 0.132812 9.76216C0.132812 9.49448 0.291476 9.33586 0.524514 9.23177C1.34262 8.85999 2.16074 8.48327 2.9838 8.10654C3.04826 8.0768 3.11768 8.04705 3.23172 8.00244C2.92431 9.1822 2.91439 10.3421 3.23667 11.5467Z" fill="#F29100"/>
</mask>
<g mask="url(#mask0_256_1747)">
<rect x="17.4541" y="-4.81152" width="24" height="29" transform="rotate(27.6765 17.4541 -4.81152)" fill="#F29100"/>
</g>
<mask id="mask1_256_1747" style="mask-type:alpha" maskUnits="userSpaceOnUse" x="0" y="0" width="17" height="20">
<path d="M7.99271 0.269821C7.61332 0.413572 7.47281 0.696117 7.48686 1.11746C7.50559 1.72221 7.49154 2.32696 7.49154 2.96144C7.43534 2.92675 7.39787 2.90692 7.36039 2.88213C6.90606 2.52523 6.45641 2.16338 5.9974 1.80648C5.66484 1.54376 5.2714 1.58837 5.05126 1.90066C4.82644 2.2179 4.89669 2.62437 5.22925 2.88709C5.94119 3.45714 6.65782 4.02223 7.36976 4.59228C7.42597 4.63689 7.48217 4.72612 7.48217 4.79552C7.48686 6.01493 7.48686 7.22938 7.48686 8.44879C7.48686 8.47357 7.48217 8.49836 7.47749 8.54297C7.4166 8.50827 7.36976 8.48844 7.32292 8.4587C6.38616 7.86387 5.45407 7.26408 4.51262 6.67916C4.37679 6.59489 4.32527 6.49575 4.31121 6.33217C4.2269 5.39531 4.13791 4.4634 4.03955 3.53149C3.9974 3.13989 3.70231 2.88213 3.35571 2.91187C2.99505 2.94657 2.74213 3.24895 2.77023 3.65046C2.81238 4.20564 2.87327 4.75586 2.9248 5.31104C2.93416 5.42009 2.94353 5.52914 2.95758 5.68281C2.87796 5.6382 2.82644 5.60846 2.77491 5.57871C2.28311 5.26643 1.79599 4.95414 1.30419 4.64681C1.06531 4.4981 0.821751 4.50801 0.596927 4.68151C0.376786 4.85004 0.297161 5.08798 0.348683 5.36557C0.386154 5.57871 0.512618 5.72742 0.68592 5.83648C1.16367 6.13389 1.63674 6.43627 2.11449 6.73864C2.1707 6.77334 2.22222 6.81299 2.29716 6.86256C1.86625 7.05093 1.45875 7.22442 1.05126 7.40287C0.896693 7.47227 0.737442 7.53671 0.582875 7.60611C0.208168 7.76969 0.0442335 8.14146 0.180065 8.50331C0.32058 8.87509 0.68592 9.02379 1.06999 8.85526C1.89903 8.50331 2.72339 8.14146 3.55243 7.79447C3.618 7.76969 3.71637 7.76473 3.77257 7.79943C4.7796 8.43392 5.78662 9.07336 6.79365 9.71281C6.81707 9.72768 6.8358 9.74751 6.87328 9.77725C6.81239 9.81691 6.76555 9.8516 6.71871 9.8863C5.75852 10.496 4.79365 11.1057 3.83815 11.7204C3.72105 11.7947 3.62737 11.7997 3.50091 11.7452C2.6906 11.3932 1.88498 11.0363 1.06999 10.7042C0.924796 10.6447 0.74681 10.6298 0.596927 10.6596C0.334632 10.7141 0.156646 10.9719 0.142594 11.2495C0.123859 11.5568 0.264374 11.8096 0.536037 11.9286C1.06063 12.1566 1.58522 12.3796 2.10981 12.6027C2.16601 12.6275 2.22222 12.6572 2.30653 12.6919C2.10981 12.8159 1.93651 12.9299 1.7632 13.0439C1.40255 13.2719 1.04189 13.4999 0.681236 13.7329C0.348683 13.946 0.245639 14.3426 0.428309 14.6747C0.615662 15.0118 0.999737 15.1109 1.34166 14.8928C1.81941 14.5954 2.29248 14.2881 2.76555 13.9857C2.81707 13.951 2.87327 13.9213 2.96227 13.8667C2.9248 14.2435 2.89669 14.5904 2.86391 14.9374C2.8358 15.2448 2.79833 15.5521 2.77491 15.8594C2.74681 16.2758 2.98569 16.5831 3.35103 16.6228C3.70231 16.6625 3.9974 16.4047 4.04423 15.9982C4.1426 15.0762 4.23159 14.1542 4.31121 13.2322C4.32527 13.0538 4.38147 12.9497 4.53135 12.8555C5.46812 12.2706 6.39552 11.6758 7.32761 11.0859C7.36976 11.0561 7.4166 11.0363 7.48217 10.9967C7.48686 11.076 7.49154 11.1355 7.49154 11.19C7.49154 12.3598 7.49154 13.5297 7.49623 14.6945C7.49623 14.8185 7.45876 14.8978 7.36508 14.9721C6.65313 15.5323 5.94587 16.0974 5.23393 16.6625C5.03253 16.8211 4.91543 17.0243 4.93416 17.292C4.9529 17.5547 5.07936 17.748 5.30419 17.8571C5.5337 17.9661 5.7632 17.9413 5.96461 17.7778C6.41894 17.4209 6.87328 17.059 7.32292 16.7021C7.36976 16.6674 7.4166 16.6327 7.49623 16.5732C7.49623 16.6724 7.49623 16.7368 7.49623 16.8012C7.49623 17.411 7.49154 18.0256 7.50091 18.6353C7.50559 18.9774 7.76321 19.245 8.07702 19.2748C8.38616 19.3045 8.67187 19.0963 8.7515 18.7791C8.77492 18.6898 8.77492 18.5957 8.77492 18.5015C8.77492 17.872 8.77492 17.2424 8.77492 16.5732C8.84517 16.6228 8.8967 16.6575 8.94353 16.6972C9.40255 17.059 9.85688 17.4258 10.3206 17.7827C10.5454 17.9562 10.789 17.9661 11.0278 17.8174C11.2667 17.6687 11.3651 17.4308 11.3323 17.1383C11.3089 16.9202 11.1824 16.7715 11.0232 16.6426C10.3206 16.0874 9.62269 15.5273 8.92011 14.9771C8.81707 14.8978 8.77023 14.8135 8.77492 14.6747C8.7796 13.4553 8.7796 12.2409 8.7796 10.9867C8.84517 11.0214 8.89201 11.0462 8.93885 11.076C9.89435 11.6807 10.8499 12.2904 11.81 12.8952C11.899 12.9497 11.9365 13.0191 11.9459 13.1281C12.0302 14.0501 12.1285 14.9721 12.2129 15.8941C12.255 16.3403 12.4986 16.6129 12.8686 16.6079C13.2574 16.603 13.5431 16.2659 13.5009 15.8446C13.44 15.215 13.3791 14.5904 13.3182 13.9659C13.3182 13.9411 13.3182 13.9163 13.3182 13.8717C13.3838 13.9113 13.44 13.9411 13.4915 13.9708C13.988 14.2831 14.4798 14.6053 14.981 14.9127C15.2714 15.0911 15.618 15.0068 15.81 14.7342C15.9974 14.4665 15.974 14.0848 15.7538 13.8519C15.6976 13.7924 15.6274 13.7428 15.5571 13.6982C15.0934 13.4008 14.625 13.1034 14.1613 12.8109C14.1051 12.7762 14.0536 12.7365 13.9787 12.687C14.4658 12.4788 14.9248 12.2756 15.3885 12.0773C15.4869 12.0376 15.5852 11.998 15.6789 11.9534C16.063 11.7848 16.2316 11.413 16.0911 11.0462C15.9506 10.6794 15.5852 10.5307 15.2011 10.6992C14.3862 11.0462 13.5665 11.3982 12.7562 11.7551C12.6438 11.8046 12.5595 11.7997 12.4517 11.7303C11.4962 11.1156 10.5314 10.5059 9.57117 9.89126C9.51965 9.86152 9.47281 9.82682 9.40723 9.78221C9.45407 9.74751 9.48686 9.71777 9.52433 9.69298C10.5079 9.06345 11.4962 8.43887 12.4798 7.80934C12.5735 7.74986 12.6438 7.75482 12.7374 7.79447C13.5618 8.15137 14.3862 8.51323 15.2199 8.85526C15.3651 8.91474 15.5524 8.92465 15.7117 8.88996C15.9646 8.83543 16.1332 8.57767 16.1473 8.30504C16.1613 7.99771 16.0255 7.74986 15.7538 7.62593C15.2901 7.41774 14.8264 7.22442 14.3627 7.02119C14.2456 6.97162 14.1285 6.91709 13.9833 6.85761C14.0536 6.80804 14.1051 6.77334 14.1613 6.73864C14.6531 6.42635 15.1449 6.11902 15.6321 5.80178C15.8803 5.64315 15.9833 5.37052 15.9318 5.08798C15.885 4.8203 15.6789 4.58237 15.4119 4.56254C15.2527 4.55262 15.07 4.59724 14.9342 4.67655C14.447 4.96405 13.9693 5.2813 13.4915 5.58367C13.4447 5.61341 13.3932 5.64315 13.3182 5.68281C13.3698 5.15242 13.4166 4.65176 13.4681 4.14616C13.4822 4.01232 13.4962 3.87352 13.5103 3.73969C13.5571 3.33322 13.3229 2.98623 12.9716 2.94162C12.5876 2.89205 12.2784 3.14485 12.2316 3.57611C12.166 4.21555 12.1098 4.855 12.0442 5.49445C12.0114 5.81169 11.9833 6.13389 11.9459 6.45114C11.9412 6.51062 11.9037 6.58497 11.8616 6.61472C10.8639 7.25416 9.86157 7.88865 8.85922 8.52314C8.84517 8.53306 8.82644 8.53306 8.79365 8.54297C8.78897 8.47357 8.78428 8.40913 8.78428 8.34469C8.78428 7.18972 8.78428 6.0298 8.7796 4.87483C8.7796 4.73603 8.81707 4.65176 8.9248 4.5675C9.63206 4.01232 10.3393 3.45218 11.0419 2.89205C11.3042 2.68386 11.4026 2.40627 11.3229 2.11876C11.1918 1.66272 10.6953 1.48427 10.3159 1.77673C9.85688 2.12868 9.40723 2.49549 8.9529 2.85239C8.90606 2.88709 8.85922 2.92179 8.79365 2.97136C8.78897 2.89701 8.7796 2.84743 8.7796 2.79786C8.7796 2.24269 8.76555 1.68255 8.78428 1.12737C8.79834 0.710989 8.65782 0.423485 8.2878 0.274776C8.18007 0.269819 8.08639 0.269821 7.99271 0.269821Z" fill="#1E96C8"/>
</mask>
<g mask="url(#mask1_256_1747)">
<rect x="2.35547" y="-4.73022" width="12" height="23" transform="rotate(29.2046 2.35547 -4.73022)" fill="#1E96C8"/>
</g>
</svg>
