<svg width="78" height="83" viewBox="0 0 78 83" fill="none" xmlns="http://www.w3.org/2000/svg">
<path d="M0.476562 0H77.5244V56.7508C77.5244 60.5268 75.3975 63.9809 72.0256 65.6805L39.0005 82.3273L5.97541 65.6805C2.60353 63.9809 0.476562 60.5268 0.476562 56.7508V0Z" fill="#4628A5"/>
<g clip-path="url(#clip0_412_561)">
<path d="M65.9996 42.0005C65.7312 42.3456 65.5012 42.7419 65.1944 43.0487C59.7883 48.469 54.3694 53.8766 48.9761 59.2969C48.4905 59.7826 47.9793 60 47.2891 60C41.7935 59.9744 36.2852 59.9872 30.7896 59.9872C29.6522 59.9872 29.0898 59.4247 29.0898 58.2869C29.0898 55.3467 29.0898 52.4192 29.0898 49.479C29.1026 45.6566 31.582 42.6269 35.3267 41.8599C35.7356 41.7832 36.1446 41.732 36.5536 41.732C39.2119 41.7192 41.883 41.7064 44.5413 41.732C45.7682 41.7448 46.7268 42.2945 47.3019 43.3939C47.8514 44.455 47.8003 45.5288 47.123 46.5131C46.4839 47.4719 45.5382 47.9066 44.388 47.9066C42.3687 47.9193 40.3366 47.9066 38.3173 47.9193C37.6016 47.9193 37.0137 48.4307 36.9114 49.1082C36.8092 49.773 37.1926 50.425 37.8572 50.6423C38.0872 50.719 38.3556 50.7445 38.6112 50.7445C41.5507 50.7445 44.4774 50.7445 47.4169 50.7573C48.0176 50.7573 48.4777 50.5528 48.8994 50.1181C51.9795 47.0245 55.0724 43.9436 58.1524 40.8372C59.2899 39.6866 60.6191 39.0602 62.2549 39.1369C63.5458 39.2008 64.6577 39.6994 65.5778 40.6198C65.7568 40.7988 65.8718 41.0289 66.0124 41.2335C65.9996 41.4891 65.9996 41.7448 65.9996 42.0005Z" fill="white"/>
<path d="M42.4589 11C43.2001 11.2301 43.967 11.3835 44.6699 11.6903C47.6861 13.0326 49.4881 16.3308 49.0408 19.5778C48.5679 22.94 45.9607 25.599 42.6506 26.0975C38.4714 26.7239 34.5862 23.8732 33.9983 19.6162C33.3592 15.0524 36.6821 11.6008 40.3373 11.0767C40.414 11.0639 40.4779 11.0128 40.5546 10.9872C41.1808 11 41.8199 11 42.4589 11Z" fill="white"/>
<path d="M26.368 59.9105C24.4893 59.9105 22.5467 60.0767 20.6552 59.8722C18.4953 59.6293 17.0128 57.6862 17 55.5001C17 52.4448 17 49.3895 17 46.3214C17.0128 43.8414 18.981 41.8215 21.4476 41.7321C23.8631 41.6426 25.9846 43.5346 26.1891 45.989C26.2147 46.3214 26.2274 46.6538 26.2274 46.9862C26.2274 50.6934 26.2274 54.4135 26.2402 58.1208C26.253 58.7344 26.3297 59.3353 26.368 59.9105Z" fill="white"/>
<path d="M48.9261 25.9442C49.0283 28.9995 45.2198 32.2977 41.6157 32.3233C36.9509 32.3616 34.267 28.5521 34.0625 25.9314C36.1713 27.9384 38.6251 29.0251 41.5135 29.0123C44.4018 29.0123 46.8429 27.9384 48.9261 25.9442Z" fill="white"/>
<path d="M34.0488 32.0931C38.3047 36.2734 44.8994 36.1072 48.8996 32.1443C49.283 34.6243 45.6023 38.1526 42.2666 38.4467C37.4612 38.8685 34.3811 35.1612 34.0488 32.0931Z" fill="white"/>
</g>
<defs>
<clipPath id="clip0_412_561">
<rect width="49" height="49" fill="white" transform="translate(17 11)"/>
</clipPath>
</defs>
</svg>
