<svg width="78" height="83" viewBox="0 0 78 83" fill="none" xmlns="http://www.w3.org/2000/svg">
<path d="M0.476562 0H77.5244V56.7508C77.5244 60.5268 75.3975 63.9809 72.0256 65.6805L39.0005 82.3273L5.97541 65.6805C2.60353 63.9809 0.476562 60.5268 0.476562 56.7508V0Z" fill="#4628A5"/>
<g clip-path="url(#clip0_305_1448)">
<path d="M47.638 13.0001C48.1897 13.2874 48.638 13.6552 48.6495 14.3449C48.6609 15.115 48.0862 15.7242 47.3276 15.7472C46.8678 15.7587 46.4196 15.7472 45.9023 15.7472C45.9023 16.8621 45.8908 17.9426 45.9138 19.023C45.9138 19.115 46.1207 19.2414 46.2587 19.2989C47.4426 19.8621 48.6839 20.3104 49.7989 20.9886C52.1207 22.3909 53.8678 24.3794 55.1667 26.8161C55.0288 26.8276 54.9138 26.8506 54.8104 26.8506C53.523 26.8506 52.2357 26.8276 50.9598 26.8621C50.3736 26.8851 49.7759 26.9886 49.2012 27.1265C48.8908 27.207 48.7299 27.138 48.5345 26.9426C47.2586 25.6552 45.7184 24.8161 43.9713 24.3679C39.8219 23.3104 35.1552 25.4598 33.2357 29.3219C30.5575 34.6897 33.0862 40.8966 38.7529 42.8621C40.2242 43.3679 41.7299 43.4943 43.2701 43.2184C43.4081 43.1955 43.5345 43.1955 43.7299 43.184C42.7989 45.138 43.0518 46.9196 44.3966 48.6437C43.7299 48.7242 43.1322 48.8161 42.523 48.8506C35.9598 49.1955 29.8564 45.1725 27.5805 39.0001C24.592 30.9081 28.8908 22.023 37.0977 19.3449C37.523 19.207 37.661 19.0345 37.6495 18.5863C37.615 17.6552 37.638 16.7242 37.638 15.7242C37.2242 15.7242 36.8334 15.7242 36.4426 15.7242C35.615 15.7242 35.0518 15.3219 34.9023 14.6322C34.7644 13.9656 35.0862 13.4024 35.8334 13.0345C35.8564 13.023 35.8793 12.9886 35.8908 12.9656C39.8104 13.0001 43.7184 13.0001 47.638 13.0001Z" fill="white"/>
<path d="M62.5001 32.184C62.1782 32.8736 61.7759 33.4828 60.9598 33.6667C60.7529 33.7127 60.5346 33.7357 60.3277 33.7357C57.1667 33.7357 53.9943 33.7357 50.8334 33.7357C49.5576 33.7357 48.638 32.8506 48.6495 31.6552C48.661 30.4828 49.5806 29.6207 50.8334 29.6207C53.9713 29.6207 57.1093 29.6207 60.2357 29.6207C61.3621 29.6207 61.9828 30.046 62.4081 31.092C62.4196 31.1265 62.4656 31.1495 62.5001 31.1839C62.5001 31.5058 62.5001 31.8391 62.5001 32.184Z" fill="white"/>
<path d="M43.0748 51.5518C43.2128 52.5173 43.3392 53.4254 43.4656 54.3679C43.4082 54.3679 43.2472 54.3794 43.0978 54.3794C40.8449 54.3794 38.6036 54.4024 36.3507 54.3679C34.8105 54.3449 33.5346 54.8392 32.4771 55.9886C31.3967 57.161 30.2587 58.276 29.1438 59.4024C28.3737 60.1955 27.6266 60.184 26.8449 59.4024C23.2587 55.8277 19.684 52.2415 16.1093 48.6668C15.3047 47.8622 15.3047 47.138 16.1093 46.3334C17.4541 44.9771 18.8105 43.6323 20.1208 42.2415C20.822 41.4944 21.1208 40.5403 21.1208 39.5058C21.1208 35.5748 21.1323 31.6438 21.1093 27.7127C21.0978 26.4484 21.5231 25.3909 22.3507 24.4714C24.753 21.7932 27.1323 19.1036 29.5231 16.4139C30.4886 15.3334 31.684 15.5748 32.1438 16.9426C32.2932 17.3909 32.5691 17.8967 32.4656 18.2875C32.3737 18.6323 31.8335 18.8622 31.4771 19.1265C27.5691 21.9656 25.0633 25.7242 24.1898 30.4829C23.2702 35.4829 24.3392 40.0691 27.3047 44.207C29.5806 47.3909 32.6266 49.5748 36.3507 50.7702C38.3967 51.4254 40.5001 51.7817 42.6725 51.5633C42.776 51.5518 42.8909 51.5518 42.9944 51.5518C43.0403 51.5518 43.0978 51.5633 43.0748 51.5518Z" fill="white"/>
<path d="M52.7642 40.6207C51.201 40.6207 49.6492 40.6207 48.086 40.6207C46.8102 40.6207 45.8906 39.7471 45.8906 38.5402C45.8906 37.3678 46.8102 36.4943 48.063 36.4943C51.2125 36.4943 54.3619 36.4943 57.5113 36.4943C58.7527 36.4943 59.6607 37.3908 59.6607 38.5632C59.6607 39.7241 58.7412 40.6092 57.5343 40.6092C55.9366 40.6322 54.3504 40.6207 52.7642 40.6207Z" fill="white"/>
<path d="M51.3849 47.5058C50.2699 47.5058 49.155 47.5058 48.0401 47.5058C46.7987 47.4943 45.8906 46.6092 45.8906 45.4368C45.8906 44.2759 46.8102 43.3908 48.0171 43.3908C50.2584 43.3793 52.5113 43.3793 54.7527 43.3908C55.9941 43.3908 56.9021 44.2874 56.9021 45.4598C56.9021 46.6322 55.9826 47.5058 54.7297 47.5058C53.6148 47.5058 52.4998 47.5058 51.3849 47.5058Z" fill="white"/>
<path d="M40.3849 32.3679C40.3849 30.9541 40.3734 29.5978 40.3849 28.23C40.3849 27.5173 40.8906 26.9541 41.5688 26.8621C42.2584 26.7702 42.8906 27.1725 43.086 27.8506C43.132 28.0116 43.1435 28.184 43.1435 28.3449C43.1435 30.1035 43.1435 31.8621 43.1435 33.6208C43.1435 34.5518 42.5918 35.1035 41.6607 35.1035C39.8906 35.1035 38.109 35.1035 36.3389 35.1035C35.4768 35.1035 34.8906 34.5288 34.8906 33.7357C34.8906 32.9311 35.4883 32.3679 36.3389 32.3679C37.6607 32.3679 38.9941 32.3679 40.3849 32.3679Z" fill="white"/>
<path d="M50.0403 54.3909C49.3391 54.3909 48.638 54.4024 47.9368 54.3909C46.7989 54.3679 45.9138 53.4714 45.9023 52.3449C45.9023 51.1955 46.7874 50.2874 47.9598 50.276C49.3506 50.2645 50.7414 50.2645 52.1322 50.276C53.2701 50.2874 54.1552 51.1955 54.1667 52.3219C54.1667 53.4714 53.2816 54.3794 52.1092 54.3909C51.4081 54.3909 50.7184 54.3909 50.0403 54.3909Z" fill="white"/>
</g>
<defs>
<clipPath id="clip0_305_1448">
<rect width="47" height="47" fill="white" transform="translate(15.5 13)"/>
</clipPath>
</defs>
</svg>
