<svg width="78" height="83" viewBox="0 0 78 83" fill="none" xmlns="http://www.w3.org/2000/svg">
<path d="M0.476562 0H77.5244V56.7508C77.5244 60.5268 75.3975 63.9809 72.0256 65.6805L39.0005 82.3273L5.97541 65.6805C2.60353 63.9809 0.476562 60.5268 0.476562 56.7508V0Z" fill="#4628A5"/>
<g clip-path="url(#clip0_412_562)">
<path d="M11 25.4239C11.3668 24.5311 11.9476 23.8999 12.9716 24.0231C13.4301 24.0846 13.8581 24.3925 14.2707 24.6234C14.4694 24.7312 14.607 24.9313 14.7751 25.1006C14.8821 24.6388 14.9127 24.1924 15.0655 23.8075C15.6769 22.2836 17.5568 21.791 18.8406 22.807C18.9782 22.9147 19.1157 23.0379 19.2533 23.1764C21.2555 25.193 23.2576 27.1942 25.2445 29.2107C26.3297 30.3037 26.4061 31.7815 25.4585 32.8129C24.8777 33.444 24.1441 33.6903 23.3646 33.6133C29.3865 39.6785 35.4236 45.759 41.5065 51.8857C41.6747 51.7625 41.9192 51.5932 42.1638 51.4085C45.3122 49.1302 48.4607 46.8366 51.6092 44.5583C52.7096 43.7578 53.9323 43.9733 54.5284 45.0355C55.0175 45.9129 54.7729 46.8827 53.8865 47.5447C51.9913 48.9301 50.0808 50.3155 48.1703 51.701C46.8253 52.6708 45.4804 53.656 44.1048 54.6566C44.2576 54.8259 44.3799 54.9798 44.5175 55.1184C46.0459 56.6578 47.5895 58.1971 49.1179 59.7519C50.2031 60.8602 49.821 62.5382 48.3996 62.9538C47.6201 63.1847 46.9782 62.9076 46.4279 62.338C44.8537 60.7371 43.2642 59.1515 41.6747 57.5506C41.476 57.3505 41.3079 57.1042 41.0939 56.8579C40.8341 57.0272 40.6812 57.1503 40.5131 57.2581C38.0677 59.0284 35.6376 60.7833 33.1921 62.5689C32.6572 62.9538 32.0917 63.1539 31.4498 62.9692C30.7009 62.7537 30.2271 62.2457 30.0895 61.476C29.952 60.7217 30.2424 60.0905 30.8384 59.6441C31.8013 58.9206 32.7795 58.2279 33.7576 57.5198C35.1026 56.55 36.4476 55.5648 37.7926 54.595C37.9454 54.4718 38.0983 54.3487 38.4192 54.1024C38.1747 53.9331 37.9454 53.8253 37.7926 53.656C29.1878 44.9739 20.5983 36.3073 12.0087 27.6406C11.6266 27.2403 11.3362 26.7477 11 26.3013C11 26.0089 11 25.7164 11 25.4239Z" fill="white"/>
<path d="M52.9998 41.2487C49.9125 43.4654 46.871 45.6359 43.8601 47.8526C42.4693 48.8839 41.002 48.8378 39.7335 47.5755C37.6549 45.4819 35.5915 43.3884 33.5129 41.2948C31.8317 39.5861 30.1352 37.8928 28.454 36.1841C26.7422 34.4446 26.8339 32.3203 28.6832 30.7347C29.9518 29.6572 31.2051 28.5642 32.4736 27.4867C34.3841 25.8857 36.4016 26.1474 37.93 28.241C37.2269 28.5027 36.5391 28.749 35.8514 28.9953C35.1789 29.2416 34.4911 29.4879 33.8492 29.8573C34.3841 29.8111 34.9038 29.7803 35.4387 29.7341C37.0588 29.611 38.6636 29.4725 40.2837 29.3493C40.6199 29.3185 40.788 29.18 40.9409 28.8875C42.0719 26.7939 43.2182 24.7158 44.3797 22.6376C45.0522 21.4215 46.2597 21.0059 47.3907 21.5447C48.4758 22.0681 48.9649 23.2996 48.5064 24.4079C48.3383 24.8236 48.0937 25.2238 47.8797 25.624C46.6723 27.8099 45.4496 29.9651 44.288 32.1664C43.7073 33.2593 42.8514 33.7365 41.6592 33.7981C40.4059 33.8597 39.1527 33.9982 37.8994 34.0906C36.6461 34.1829 35.4081 34.2753 34.1396 34.4754C34.8121 34.614 35.4693 34.7525 36.1418 34.8757C38.2356 35.2605 40.3142 35.6761 42.4234 36.0148C42.9431 36.0918 43.4933 35.984 44.0282 35.8763C44.3033 35.8147 44.4409 35.8455 44.6243 36.061C45.3885 36.9846 46.1832 37.9082 46.9933 38.8626C47.4212 38.5548 47.8339 38.2623 48.2466 37.9698C49.4081 37.1385 50.5544 36.3073 51.716 35.476C53.2444 34.3831 54.6811 34.5524 55.8273 36.0302C59.3273 40.479 62.8121 44.9278 66.2968 49.3765C67.6418 51.1006 66.9846 53.3327 64.9977 53.8561C63.7902 54.1794 62.8274 53.7176 62.0632 52.7478C60.9016 51.27 59.74 49.7768 58.5784 48.299C56.7902 46.0207 55.0173 43.7424 53.2291 41.4796C53.1527 41.418 53.0915 41.3564 52.9998 41.2487Z" fill="white"/>
<path d="M28.0872 25.855C25.3819 25.855 23.1352 23.5921 23.1505 20.8828C23.1658 18.0965 25.2749 15.9106 28.1024 15.8798C30.7924 15.849 33.0697 18.1273 33.0391 20.852C33.0238 23.6844 30.8841 25.8088 28.0872 25.855Z" fill="white"/>
<path d="M41.5223 22.7916C41.2319 20.4518 40.9415 18.0965 40.6511 15.7567C40.5135 14.6791 40.3913 13.617 40.2537 12.5394C40.1009 11.4464 40.7122 10.8461 41.7821 11.0462C44.2275 11.5234 46.6729 11.9852 49.1183 12.447C50.3257 12.6779 50.662 13.2475 50.2493 14.3866C49.6991 15.8952 49.1489 17.4038 48.5987 18.9278C48.5375 19.0817 48.4764 19.2203 48.4 19.3896C44.9917 18.2505 42.9589 19.8514 41.6445 22.884C41.5987 22.8378 41.5681 22.807 41.5223 22.7916Z" fill="white"/>
</g>
<defs>
<clipPath id="clip0_412_562">
<rect width="56" height="52" fill="white" transform="translate(11 11)"/>
</clipPath>
</defs>
</svg>
