<svg width="90" height="33" viewBox="0 0 90 33" fill="none" xmlns="http://www.w3.org/2000/svg">
<rect x="0.892578" y="0.724609" width="88" height="31" rx="3.5" fill="white" stroke="#F0F0F0"/>
<path d="M33.8386 12.2998H31.3926V21.4592H33.8386C35.4137 21.4592 36.3998 20.771 36.3998 18.7064V15.0401C36.4126 12.8754 35.3369 12.2998 33.8386 12.2998ZM34.671 18.6063C34.671 19.5072 34.338 19.9076 33.7361 19.9076H33.1214V13.8639H33.7617C34.3252 13.8639 34.6838 14.1392 34.6838 15.1527V18.6063H34.671Z" fill="#D60000"/>
<path d="M41.2789 17.4548C42.0217 17.1169 42.5211 16.4788 42.5211 15.1274V14.9147C42.5211 13.288 41.8424 12.312 40.152 12.312H37.4883V21.4714H39.1915V17.8051H39.691L40.8563 21.4589H42.662L41.2789 17.4548ZM40.7539 15.1774C40.7539 15.9657 40.4593 16.3536 39.8702 16.3536H39.1915V13.8636H39.8702C40.5106 13.8636 40.7539 14.2515 40.7539 15.0398V15.1774Z" fill="#D60000"/>
<path d="M45.2357 21.4592V12.2998H43.5068V21.4592H45.2357Z" fill="#D60000"/>
<path d="M51.7545 12.2998H50.0128L49.0523 17.2424L48.8859 18.356L48.745 17.2424L47.7205 12.2998H45.9404L48.1303 21.4592H49.603L51.7545 12.2998Z" fill="#D60000"/>
<path d="M56.7358 21.4592V19.8951H54.1234V17.6177H56.326V16.0662H54.1234V13.8639H56.7358V12.2998H52.3945V21.4592H56.7358Z" fill="#D60000"/>
<path d="M62.2682 14.6521C62.2682 12.9378 61.3974 12.2246 59.9503 12.2246C58.5544 12.2246 57.5684 13.0505 57.5684 14.8898H59.2076C59.2204 13.9138 59.5149 13.6886 59.9375 13.6886C60.3985 13.6886 60.6162 13.9514 60.6162 14.6396C60.6162 15.2152 60.4242 15.6406 60.1296 16.1036L57.6452 19.9825V21.4591H62.2042V19.9825H59.5149L61.3974 17.0546C61.9353 16.2162 62.2682 15.578 62.2682 14.6521Z" fill="#D60000"/>
<path d="M70.1314 17.4548C70.8741 17.1169 71.3736 16.4788 71.3736 15.1274V14.9147C71.3736 13.288 70.6948 12.312 69.0172 12.312H66.3535V21.4714H68.0567V17.8051H68.5562L69.7216 21.4589H71.5272L70.1314 17.4548ZM69.6063 15.1774C69.6063 15.9657 69.3246 16.3536 68.7355 16.3536H68.0567V13.8636H68.7355C69.3758 13.8636 69.6063 14.2515 69.6063 15.0398V15.1774Z" fill="#D60000"/>
<path d="M77.3921 18.7689V12.2998H75.6633V18.7189C75.6633 19.6323 75.484 19.9827 74.8309 19.9827C74.1778 19.9827 73.9857 19.6323 73.9857 18.7189V12.2998H72.2568V18.7689C72.2568 20.7585 73.2429 21.5343 74.8181 21.5343C76.4061 21.5343 77.3921 20.7585 77.3921 18.7689Z" fill="#D60000"/>
<path d="M63.5488 19.9824H65.06V21.4589H63.5488V19.9824Z" fill="#D60000"/>
<path d="M25.1355 15.8288C25.7238 16.5183 25.5059 17.6662 24.5181 17.9962C24.6597 18.9827 24.4963 19.3201 23.6792 19.7382C23.6865 19.9949 23.7337 20.2406 23.6937 20.4717C23.5884 21.0768 23.0473 21.5425 22.4154 21.5462C21.188 21.5535 19.9605 21.5572 18.7367 21.5169C17.7743 21.4839 16.8592 21.1905 15.9549 20.8678C15.9222 20.8567 15.9004 20.8017 15.8823 20.7651C15.8714 20.7394 15.8786 20.7064 15.8786 20.677C15.8786 18.583 15.8786 16.4926 15.875 14.3986C15.875 14.2812 15.9041 14.2189 16.0166 14.1676C16.4488 13.9622 16.8664 13.7275 17.2259 13.4011C17.6472 13.0233 17.876 12.5356 18.0576 12.0185C18.3227 11.2667 18.4679 10.4856 18.4934 9.68608C18.5006 9.44404 18.6459 9.26067 18.871 9.23867C19.4811 9.18366 20.0586 9.27901 20.527 9.72276C20.8865 10.0675 21.1008 10.4892 21.1008 10.9916C21.1008 11.7581 21.0173 12.5209 20.8103 13.2617C20.7776 13.3791 20.7304 13.4891 20.6795 13.6321C20.7485 13.6321 20.803 13.6321 20.8575 13.6321C21.8925 13.6321 22.9238 13.6321 23.9588 13.6321C24.3837 13.6321 24.7687 13.7421 25.081 14.0502C25.5313 14.4939 25.5894 15.1907 25.2226 15.7042C25.1936 15.7445 25.1681 15.7848 25.1355 15.8288Z" fill="#D60000"/>
<path d="M12.3926 17.6001C12.3926 16.4669 12.3926 15.3374 12.3926 14.2042C12.3926 13.7751 12.5378 13.6284 12.9555 13.6284C13.4639 13.6284 13.9687 13.6284 14.4771 13.6284C14.8475 13.6284 15.0073 13.7934 15.0073 14.1638C15.0073 16.4486 15.0073 18.7297 15.0073 21.0144C15.0073 21.3885 14.8439 21.5498 14.4771 21.5498C13.9505 21.5498 13.4239 21.5498 12.8974 21.5498C12.556 21.5498 12.3926 21.3848 12.3926 21.0364C12.3926 19.8959 12.3926 18.748 12.3926 17.6001Z" fill="#D60000"/>
</svg>
