<svg width="408" height="211" viewBox="0 0 408 211" fill="none" xmlns="http://www.w3.org/2000/svg">
<g clip-path="url(#clip0_256_1772)">
<g filter="url(#filter0_d_256_1772)">
<path d="M454.778 190.548C453.386 187.452 449.193 184.398 444.774 183.623C437.099 182.265 428.435 185.358 421.727 188.191C419.918 188.964 418.078 189.788 416.152 190.633C408.328 194.082 400.237 197.728 390.85 199.256C365.509 203.388 337.583 189.099 325.936 166.087C317.829 150.141 317.868 132.355 317.932 119.338L317.952 118.924C318.005 105.545 317.993 92.9087 313.174 82.1759C309.361 73.6712 300.192 65.4669 291.542 66.5109C287.923 66.9191 283.828 68.8897 279.472 70.919C271.548 74.6635 261.753 79.2852 250.063 76.4692C236.793 73.283 229.568 62.6844 223.727 54.1831C219.803 48.5221 216.096 43.1308 211.977 41.4693C207.186 39.5506 200.409 42.627 195.792 46.4883C192.634 49.1565 189.702 52.4556 186.622 55.8793C183.15 59.7095 179.584 63.6972 175.321 67.3424C160.039 80.2048 138.622 85.3143 118.238 80.961C97.7674 76.6274 79.7135 63.155 69.8041 44.9336C65.6663 37.2297 63.2238 29.3248 60.91 21.7091C59.3593 16.6035 57.8507 11.8066 55.9577 7.27842C52.6797 -0.483279 45.9078 -9.82011 37.7235 -10.6997C35.8752 -10.8734 33.6112 -10.7258 31.174 -10.5391C26.6704 -10.1586 21.5671 -9.779 15.8958 -11.2261C14.9939 -11.4771 14.0365 -11.761 13.1413 -12.1499L25.312 -32.6753C26.2585 -32.7526 27.2605 -32.797 28.2936 -32.894C31.5351 -33.1714 35.2032 -33.4087 39.1843 -33.0347C55.0708 -31.3484 69.2463 -19.1825 77.2182 -0.478107C79.6017 5.12139 81.3543 10.7725 83.0026 16.2197C85.0968 23.0667 87.069 29.4865 90.1323 35.2053C96.5232 47.0833 108.818 56.2185 122.165 59.0239C135.48 61.8819 149.989 58.4234 159.942 49.9926C163.1 47.3243 166.032 44.0253 169.113 40.6016C172.585 36.7714 176.15 32.7836 180.5 29.119C192.655 18.8722 207.379 15.6834 219.907 20.6287C231.033 25.0266 237.33 34.1526 242.852 42.1805C247.039 48.2819 250.667 53.5549 254.788 54.5793C258.402 55.4453 263.284 53.1607 268.928 50.4766C274.455 47.8646 280.681 44.9581 287.951 44.0893C297.003 42.9999 305.57 45.3842 313.011 49.7962C322.562 55.4593 330.207 64.4625 334.382 73.7494C341.267 88.9712 341.239 105.345 341.22 119.807L341.199 120.221C341.175 134.184 341.572 146.552 346.733 156.707C353.771 170.53 371.108 179.391 386.312 176.912C392.791 175.858 399.246 172.946 406.048 169.955C407.974 169.11 409.932 168.214 411.945 167.35C421.54 163.319 434.297 158.892 448.004 161.343C455.228 162.576 461.783 165.824 466.911 170.213L454.833 190.581L454.778 190.548Z" fill="#3F2999"/>
<path d="M421.143 186.81L421.138 186.812C419.909 187.337 418.659 187.888 417.388 188.449C416.78 188.718 416.167 188.988 415.55 189.259L415.547 189.26L414.931 189.532C407.277 192.907 399.536 196.322 390.608 197.776L390.608 197.776C365.919 201.801 338.628 187.843 327.274 165.409L327.273 165.407C319.36 149.842 319.368 132.43 319.432 119.378L319.45 118.997L319.452 118.963L319.452 118.93C319.505 105.626 319.518 92.6442 314.543 81.5616C312.536 77.0859 309.136 72.7121 305.091 69.577C301.06 66.4536 296.22 64.4371 291.367 65.0212C287.658 65.4413 283.559 67.3552 279.523 69.24C279.295 69.3466 279.066 69.4531 278.839 69.5593L278.831 69.5627C270.865 73.3271 261.527 77.688 250.415 75.0109L250.414 75.0107C237.781 71.9776 230.85 61.902 224.963 53.3336L224.96 53.3287L224.825 53.1345C222.921 50.3867 221.011 47.6312 219.066 45.3524C217.09 43.0377 214.941 41.0474 212.539 40.0782L212.535 40.0768C209.663 38.9267 206.361 39.3249 203.321 40.3967C200.254 41.4779 197.251 43.3123 194.83 45.3378L194.824 45.3425C191.725 47.9606 188.851 51.1571 185.942 54.3924C185.797 54.553 185.653 54.7137 185.508 54.8744C185.352 55.046 185.197 55.2178 185.041 55.3897C181.709 59.0672 178.339 62.788 174.351 66.1983C159.441 78.7452 138.504 83.7551 118.552 79.4941L118.549 79.4936C98.5073 75.2508 80.8231 62.0532 71.1237 44.2204C67.0668 36.6661 64.6618 28.898 62.3452 21.273C60.7948 16.1683 59.2671 11.3057 57.3416 6.69986L57.3395 6.69485C55.648 2.68958 53.0504 -1.73941 49.7869 -5.3043C46.541 -8.84991 42.4899 -11.6961 37.8838 -12.1912L37.8738 -12.1922L37.8638 -12.1932C35.8659 -12.3808 33.4721 -12.2196 31.0594 -12.0347L31.0477 -12.0338L31.0477 -12.0338C26.5512 -11.6539 21.6788 -11.3016 16.2822 -12.6756C15.9698 -12.7626 15.6604 -12.8511 15.3562 -12.9442L26.2026 -31.2362C26.3248 -31.2444 26.45 -31.2527 26.5773 -31.2612C27.1815 -31.3011 27.8322 -31.3442 28.4277 -31.4C31.6462 -31.6753 35.1992 -31.9016 39.0351 -31.5421C54.2222 -29.926 68.012 -18.2523 75.838 0.109395C78.1861 5.62563 79.9183 11.2058 81.5669 16.6542L81.5682 16.6585C83.6538 23.4773 85.6652 30.0427 88.8101 35.9136L88.8114 35.916C95.4142 48.1879 108.082 57.5954 121.853 60.4912C135.597 63.4401 150.584 59.8843 160.91 51.1384C164.009 48.5202 166.884 45.3237 169.793 42.0883C169.937 41.9277 170.082 41.7671 170.227 41.6064C170.372 41.446 170.517 41.2855 170.663 41.1249C174.005 37.4355 177.386 33.7035 181.466 30.2661L181.466 30.2658C193.293 20.296 207.446 17.3223 219.356 22.0239C229.999 26.2308 236.064 34.9592 241.615 43.0292C241.615 43.0297 241.616 43.0301 241.616 43.0305L241.621 43.0386C243.698 46.0642 245.704 48.9867 247.719 51.2752C249.716 53.5431 251.907 55.409 254.426 56.035L254.438 56.0381C256.662 56.5708 259.115 56.1069 261.574 55.2812C264.053 54.449 266.768 53.1648 269.569 51.8328C275.112 49.2132 281.133 46.4148 288.129 45.5787L288.13 45.5786C296.797 44.5356 305.036 46.8111 312.246 51.0864C321.518 56.5844 328.959 65.3456 333.014 74.3644L333.015 74.3675C339.74 89.2361 339.739 105.269 339.72 119.769L339.701 120.148L339.699 120.183L339.699 120.218C339.675 134.131 340.047 146.862 345.396 157.387L345.396 157.388C352.727 171.786 370.698 180.978 386.553 178.393C392.978 177.347 399.347 174.543 405.802 171.702C406.084 171.577 406.367 171.453 406.65 171.328C406.651 171.328 406.651 171.328 406.652 171.328L406.048 169.955C406.82 169.616 407.597 169.269 408.381 168.92C409.552 168.397 410.739 167.867 411.945 167.35L421.143 186.81ZM421.143 186.81C427.828 183.986 436.872 180.702 445.034 182.146C447.482 182.575 449.838 183.628 451.774 184.988C452.914 185.79 453.946 186.725 454.772 187.743L464.966 170.551C460.189 166.738 454.25 163.931 447.751 162.822L447.74 162.82C434.491 160.451 422.085 164.717 412.533 168.73L421.143 186.81Z" stroke="white" stroke-width="3"/>
</g>
<path d="M307.533 59.0349C306.645 58.5081 305.725 58.0338 304.805 57.5595L304.294 58.6752C306.331 59.6701 308.33 60.8554 310.26 62.2837L310.993 61.2996C309.803 60.5228 308.699 59.7264 307.533 59.0349ZM297.95 55.1976C295.547 54.6947 293.185 54.5006 290.835 54.6677L291.003 55.9027C293.267 55.7552 295.486 55.9359 297.748 56.4255L297.95 55.1976ZM316.299 66.1483L315.374 66.9482C316.951 68.5926 318.403 70.447 319.682 72.3405L320.742 71.6919C319.408 69.7655 317.9 67.8782 316.299 66.1483ZM324.18 77.917L323.016 78.3618C323.917 80.3861 324.725 82.5679 325.446 84.7692L326.659 84.4953C325.945 82.156 325.137 79.9742 324.18 77.917ZM283.885 56.0099C281.971 56.5784 279.903 57.4093 277.45 58.5089L278.051 59.646C280.504 58.5464 282.486 57.7351 284.368 57.2191L283.885 56.0099ZM328.302 91.2167L327.065 91.4053C327.446 93.547 327.796 95.7412 328.053 98.0929L329.315 97.9897C329.089 95.5855 328.739 93.3913 328.302 91.2167ZM271.279 61.4483C269.439 62.273 267.277 63.2614 265.01 64.046L265.494 65.2552C267.76 64.4706 270.009 63.4626 271.849 62.638L271.279 61.4483ZM217.139 31.1195C216.719 30.9415 216.355 30.7964 215.935 30.6185C214.113 29.8932 212.136 29.4304 210.146 29.2434L210.085 30.4846C211.934 30.6582 213.8 31.0552 215.534 31.8001C215.899 31.9451 216.263 32.0902 216.683 32.2681L217.139 31.1195ZM223.171 35.1221L222.326 36.0403C223.917 37.4088 225.407 39.0728 227.05 41.1114L228.03 40.3445C226.387 38.3059 224.786 36.5761 223.171 35.1221ZM458.701 177.477L457.911 178.428C459.81 179.909 461.418 181.501 462.673 183.309L463.677 182.627C462.454 180.767 460.711 179.024 458.701 177.477ZM452.45 173.842C450.462 173.018 448.381 172.351 446.342 171.994C446.057 171.967 445.804 171.888 445.52 171.861L445.404 173.069C445.688 173.096 445.941 173.175 446.226 173.202C448.178 173.579 450.124 174.095 452.026 174.938L452.45 173.842ZM232.293 46.0651L231.233 46.7137C231.688 47.3383 232.112 48.0155 232.567 48.6401C233.446 49.9419 234.357 51.1912 235.236 52.493L236.24 51.8115C235.33 50.5622 234.451 49.2604 233.596 48.044C233.172 47.3669 232.717 46.7423 232.293 46.0651ZM329.838 104.828L328.552 104.845C328.624 106.875 328.714 109.128 328.735 111.624L329.991 111.658C330.001 109.11 329.935 106.943 329.838 104.828ZM203.038 29.7118C200.817 30.1681 198.581 30.9003 196.419 31.8887L197.021 33.0258C199.152 32.0899 201.3 31.3774 203.38 30.9077L203.038 29.7118ZM438.422 171.554C436.189 171.649 433.831 171.954 431.436 172.45L431.778 173.646C434.086 173.17 436.357 172.884 438.534 172.756L438.422 171.554ZM258.455 65.4808C256.334 65.6417 254.312 65.5072 252.335 65.0444C252.137 64.9981 251.94 64.9518 251.742 64.9055L251.484 66.1005C251.681 66.1468 251.879 66.193 252.077 66.2393C254.252 66.7484 256.329 66.9158 258.624 66.7158L258.455 65.4808ZM240.541 57.3417L239.617 58.1416C241.433 60.141 243.128 61.7134 244.922 62.9903L245.656 62.0063C243.917 60.7622 242.278 59.2228 240.541 57.3417ZM424.75 174.233C422.719 174.873 420.595 175.671 418.291 176.646L418.806 177.803C421.079 176.88 423.203 176.082 425.203 175.494L424.75 174.233ZM190.426 35.2881C189.421 35.9696 188.472 36.684 187.548 37.4839C186.772 38.1592 185.965 38.8869 185.158 39.6147L186.058 40.5028C186.865 39.775 187.671 39.0472 188.416 38.4244C189.309 37.6771 190.258 36.9626 191.176 36.3007L190.426 35.2881ZM330.056 118.509L328.801 118.474L328.789 119.886C328.789 121.659 328.788 123.433 328.843 125.239L330.098 125.274C330.099 123.5 330.099 121.727 330.1 119.954L330.056 118.509ZM411.991 179.296L410.733 179.899C409.098 180.632 407.463 181.365 405.772 182.065L406.318 183.169C408.009 182.469 409.644 181.736 411.28 181.003L412.537 180.401L411.991 179.296ZM330.226 132.019L328.939 132.037C329.047 134.513 329.224 136.746 329.407 138.842L330.638 138.791C330.51 136.729 330.334 134.495 330.226 132.019ZM180.408 44.461C179.353 45.6087 178.266 46.809 177.21 47.9567L175.881 49.439L176.867 50.3075L178.196 48.8252C179.252 47.6775 180.283 46.4443 181.395 45.3295L180.408 44.461ZM399.447 184.63C397.15 185.467 395.032 186.127 392.977 186.682L393.374 187.911C395.485 187.389 397.634 186.676 400.018 185.819L399.447 184.63ZM331.651 145.564L330.413 145.753C330.812 148.118 331.36 150.358 331.97 152.494L333.183 152.22C332.573 150.084 332.08 147.877 331.651 145.564ZM50.355 -17.8263L49.6769 -16.8093C51.5026 -15.5849 53.3459 -14.1371 55.0336 -12.4268L55.9027 -13.2596C54.1906 -15.0553 52.2917 -16.536 50.355 -17.8263ZM171.329 54.3315C169.826 55.8529 168.361 57.184 166.99 58.3575C166.81 58.5345 166.574 58.6787 166.425 58.8032L167.263 59.7963C167.443 59.6192 167.678 59.4751 167.858 59.298C169.316 58.1049 170.725 56.741 172.259 55.1671L171.329 54.3315ZM43.8558 -21.0415C42.0588 -21.6813 40.1372 -22.1112 38.2333 -22.3178C37.7512 -22.3908 37.238 -22.4113 36.7804 -22.3988L36.8065 -21.1772C37.2642 -21.1896 37.7462 -21.1166 38.1728 -21.0765C39.9345 -20.8833 41.745 -20.5193 43.4865 -19.9124L43.8558 -21.0415ZM60.5813 -7.86016L59.5768 -7.17867C60.9179 -5.39013 62.1345 -3.39162 63.32 -1.34062L64.4599 -1.87085C63.2501 -4.00727 61.978 -6.0387 60.5813 -7.86016ZM386.231 187.933C383.992 188.166 381.672 188.28 379.366 188.119L379.393 189.341C381.785 189.482 384.16 189.401 386.431 189.115L386.231 187.933ZM335.526 158.647L334.362 159.092C334.772 160.045 335.214 160.945 335.656 161.846C336.226 163.035 336.939 164.238 337.627 165.356L338.742 164.74C338.054 163.623 337.397 162.453 336.796 161.315C336.354 160.415 335.912 159.514 335.526 158.647ZM29.7731 -22.2258L29.4576 -22.2C27.3359 -22.0391 25.0719 -21.8915 22.9013 -21.9015L22.9274 -20.6798C25.1535 -20.637 27.4175 -20.7845 29.6259 -20.965L29.9103 -20.9383L29.7731 -22.2258ZM67.4652 4.45208L66.3009 4.89689C67.0909 6.85533 67.8742 8.95168 68.6996 11.3568L69.8884 10.9974C69.0075 8.55937 68.2553 6.41052 67.4652 4.45208ZM11.2911 -27.5087L10.2311 -26.8601C11.4056 -25.1704 13.0445 -23.6309 14.7659 -22.6103C15.099 -22.4127 15.4322 -22.2152 15.7965 -22.0701L16.308 -23.1858C16.0303 -23.3505 15.7216 -23.4626 15.3884 -23.6602C13.8336 -24.5821 12.3302 -25.9702 11.2911 -27.5087ZM372.548 187.34C370.311 186.936 368.057 186.308 365.809 185.543L365.408 186.725C367.656 187.49 369.998 188.098 372.29 188.535L372.548 187.34ZM342.814 170.277L341.834 171.044C343.404 172.826 345.092 174.536 346.873 176.089L347.718 175.171C345.992 173.651 344.273 171.993 342.814 170.277ZM160.981 62.6698C159.096 63.8228 157.101 64.91 155.056 65.8263L155.658 66.9635C157.789 66.0276 159.784 64.9404 161.756 63.7678L160.981 62.6698ZM359.338 182.912C357.246 181.885 355.216 180.752 353.279 179.462L352.601 180.479C354.593 181.802 356.679 182.967 358.827 184.028L359.338 182.912ZM71.9094 17.5881L70.6962 17.8621L71.1421 19.2617C71.6857 21.003 72.2292 22.7443 72.7727 24.4857L74.017 24.1592C73.4735 22.4179 72.93 20.6765 72.442 18.9681L71.9094 17.5881ZM148.683 68.2203C146.566 68.8804 144.282 69.4417 142.091 69.8455L142.401 71.0938C144.679 70.6705 146.963 70.1092 149.167 69.4295L148.683 68.2203ZM76.2113 30.7107L75.0226 31.0701C75.8791 33.4227 76.8046 35.5324 77.7368 37.5042L78.9012 37.0594C77.9378 35.1401 77.0678 33.0633 76.2113 30.7107ZM135.31 70.6494C133.046 70.7969 130.702 70.8262 128.396 70.665L128.391 71.9391C130.728 72.0478 133.097 72.104 135.447 71.9369L135.31 70.6494ZM82.1488 43.1003L81.0332 43.716C82.2809 45.662 83.6708 47.6213 85.2096 49.4562L86.1897 48.6892C84.762 46.9203 83.3965 45.0463 82.1488 43.1003ZM121.523 69.853C121.041 69.78 120.59 69.6545 120.108 69.5815C118.297 69.2175 116.549 68.7485 114.776 68.194L114.462 69.3561C116.235 69.9105 118.094 70.4454 119.905 70.8094C120.387 70.8824 120.893 71.0408 121.375 71.1138L121.523 69.853ZM90.9373 53.8458L90.0683 54.6786C91.7871 56.3363 93.5682 57.8891 95.4671 59.3698L96.2562 58.4187C94.3817 57.0234 92.6006 55.4706 90.9373 53.8458ZM108.188 65.6355C106.175 64.726 104.225 63.7116 102.282 62.5592L101.949 62.3616L101.326 63.4115L101.659 63.6091C103.603 64.7615 105.608 65.8088 107.676 66.7513L108.188 65.6355Z" fill="white"/>
<path d="M110.9 85.8C110.9 97.7 89.4 121.7 89.4 121.7C89.4 121.7 68 97.6 68 85.8C68 73.9 77.6 64.3 89.5 64.3C101.4 64.3 110.9 73.9 110.9 85.8Z" fill="url(#paint0_linear_256_1772)"/>
<path d="M89.5002 101.2C98.2263 101.2 105.3 94.1261 105.3 85.4C105.3 76.6739 98.2263 69.6 89.5002 69.6C80.7741 69.6 73.7002 76.6739 73.7002 85.4C73.7002 94.1261 80.7741 101.2 89.5002 101.2Z" fill="url(#paint1_linear_256_1772)"/>
<path d="M376.9 33.7C376.9 45.6 355.4 69.6 355.4 69.6C355.4 69.6 334 45.5 334 33.7C334 21.8 343.6 12.2 355.5 12.2C367.4 12.2 376.9 21.8 376.9 33.7Z" fill="url(#paint2_linear_256_1772)"/>
<path d="M355.5 49.1C364.226 49.1 371.3 42.0261 371.3 33.3C371.3 24.5739 364.226 17.5 355.5 17.5C346.774 17.5 339.7 24.5739 339.7 33.3C339.7 42.0261 346.774 49.1 355.5 49.1Z" fill="url(#paint3_linear_256_1772)"/>
<path d="M301.703 114.5C301.703 126.4 280.203 150.4 280.203 150.4C280.203 150.4 258.803 126.3 258.803 114.5C258.803 102.6 268.403 93 280.303 93C292.203 93 301.703 102.6 301.703 114.5Z" fill="url(#paint4_linear_256_1772)"/>
<path d="M280.303 129.9C289.029 129.9 296.103 122.826 296.103 114.1C296.103 105.374 289.029 98.3 280.303 98.3C271.577 98.3 264.503 105.374 264.503 114.1C264.503 122.826 271.577 129.9 280.303 129.9Z" fill="url(#paint5_linear_256_1772)"/>
</g>
<defs>
<filter id="filter0_d_256_1772" x="9.1416" y="-33.2277" width="461.769" height="241.193" filterUnits="userSpaceOnUse" color-interpolation-filters="sRGB">
<feFlood flood-opacity="0" result="BackgroundImageFix"/>
<feColorMatrix in="SourceAlpha" type="matrix" values="0 0 0 0 0 0 0 0 0 0 0 0 0 0 0 0 0 0 127 0" result="hardAlpha"/>
<feOffset dy="4"/>
<feGaussianBlur stdDeviation="2"/>
<feComposite in2="hardAlpha" operator="out"/>
<feColorMatrix type="matrix" values="0 0 0 0 0 0 0 0 0 0 0 0 0 0 0 0 0 0 0.25 0"/>
<feBlend mode="normal" in2="BackgroundImageFix" result="effect1_dropShadow_256_1772"/>
<feBlend mode="normal" in="SourceGraphic" in2="effect1_dropShadow_256_1772" result="shape"/>
</filter>
<linearGradient id="paint0_linear_256_1772" x1="89.4722" y1="67.1518" x2="89.4722" y2="120.357" gradientUnits="userSpaceOnUse">
<stop stop-color="#FF3179"/>
<stop offset="1" stop-color="#750000"/>
</linearGradient>
<linearGradient id="paint1_linear_256_1772" x1="89.4724" y1="100.397" x2="89.4724" y2="71.277" gradientUnits="userSpaceOnUse">
<stop stop-color="#FF3179"/>
<stop offset="1" stop-color="#750000"/>
</linearGradient>
<linearGradient id="paint2_linear_256_1772" x1="355.472" y1="15.0518" x2="355.472" y2="68.2569" gradientUnits="userSpaceOnUse">
<stop stop-color="#FF3179"/>
<stop offset="1" stop-color="#750000"/>
</linearGradient>
<linearGradient id="paint3_linear_256_1772" x1="355.472" y1="48.2974" x2="355.472" y2="19.177" gradientUnits="userSpaceOnUse">
<stop stop-color="#FF3179"/>
<stop offset="1" stop-color="#750000"/>
</linearGradient>
<linearGradient id="paint4_linear_256_1772" x1="280.275" y1="95.8518" x2="280.275" y2="149.057" gradientUnits="userSpaceOnUse">
<stop stop-color="#FF3179"/>
<stop offset="1" stop-color="#750000"/>
</linearGradient>
<linearGradient id="paint5_linear_256_1772" x1="280.275" y1="129.097" x2="280.275" y2="99.977" gradientUnits="userSpaceOnUse">
<stop stop-color="#FF3179"/>
<stop offset="1" stop-color="#750000"/>
</linearGradient>
<clipPath id="clip0_256_1772">
<rect width="408" height="211" fill="white"/>
</clipPath>
</defs>
</svg>
