<svg width="119" height="76" viewBox="0 0 119 76" fill="none" xmlns="http://www.w3.org/2000/svg">
<g filter="url(#filter0_d_326_1275)">
<path d="M112.596 20.245L99.1989 55.4439C98.5545 57.1868 96.8586 58.3487 95.0271 58.3487H15.0158C9.55509 52.6075 6.19727 44.8159 6.19727 36.2383C6.19727 27.6607 9.55509 19.8691 15.0158 14.1279H108.424C111.579 14.1279 113.716 17.3061 112.596 20.245Z" fill="#F1F1F0"/>
<path d="M95.0278 59.7842H15.0165C14.6095 59.7842 14.2364 59.6134 13.9651 59.34C8.06343 53.0862 4.77344 44.8845 4.77344 36.2385C4.77344 27.5926 8.06343 19.3909 13.999 13.1371C14.2703 12.8637 14.6434 12.6929 15.0504 12.6929H108.459C110.392 12.6929 112.224 13.6497 113.309 15.2559C114.429 16.8621 114.666 18.9125 113.954 20.7579L100.556 55.9568C99.6744 58.2464 97.4698 59.7842 95.0278 59.7842ZM15.6609 56.8795H95.0278C96.2827 56.8795 97.402 56.0935 97.8768 54.9316L111.274 19.7327C111.647 18.7758 111.512 17.7506 110.935 16.8962C110.358 16.0419 109.443 15.5635 108.425 15.5635H15.6609C10.4716 21.2021 7.65642 28.5153 7.65642 36.2385C7.65642 43.9276 10.4716 51.2408 15.6609 56.8795Z" fill="white"/>
<path d="M69.5902 36.2376C69.5902 44.8152 66.2324 52.6068 60.7717 58.3479C55.0057 64.3967 46.8995 68.19 37.9113 68.19C28.9232 68.19 20.8169 64.4309 15.051 58.3479C9.59025 52.6068 6.23242 44.8152 6.23242 36.2376C6.23242 27.66 9.59025 19.8684 15.051 14.1272C20.8169 8.07844 28.9232 4.28516 37.9113 4.28516C46.8995 4.28516 55.0057 8.04426 60.7717 14.1272C66.2324 19.8684 69.5902 27.66 69.5902 36.2376Z" fill="#004F9E"/>
<path d="M37.9108 69.6255C28.8209 69.6255 20.3076 65.9689 13.999 59.3392C8.06343 53.0854 4.77344 44.8837 4.77344 36.2378C4.77344 27.5919 8.06343 19.3902 13.999 13.1364C20.3076 6.50668 28.787 2.8501 37.9108 2.8501C47.0346 2.8501 55.5139 6.50668 61.8226 13.1364C67.7581 19.3902 71.0481 27.5919 71.0481 36.2378C71.0481 44.8837 67.7581 53.0854 61.8226 59.3392C55.5139 65.9689 47.0007 69.6255 37.9108 69.6255ZM37.9108 5.75486C29.601 5.75486 21.8339 9.10388 16.0679 15.1526C10.6412 20.8255 7.65642 28.3095 7.65642 36.2378C7.65642 44.1319 10.6412 51.6501 16.0679 57.3571C21.8339 63.4059 29.601 66.7549 37.9108 66.7549C46.2206 66.7549 53.9877 63.4059 59.7536 57.3571C65.1804 51.6501 68.1652 44.1661 68.1652 36.2378C68.1652 28.3437 65.1804 20.8255 59.7536 15.1185C53.9877 9.06971 46.2206 5.75486 37.9108 5.75486Z" fill="white"/>
<path d="M110.392 20.8256L97.4698 54.7943C96.8254 56.4688 95.2312 57.5965 93.4336 57.5965H16.2714C10.9803 52.0262 7.41895 44.508 7.41895 36.238C7.41895 27.9679 11.0142 20.4497 16.2714 14.9136H106.39C109.409 14.9136 111.478 17.955 110.392 20.8256Z" fill="#F1F1F0"/>
<path d="M82.7496 37.0581H17.1533L16.6445 38.5276H82.207L82.7496 37.0581Z" fill="#FFE500"/>
<path d="M55.7504 28.3777C54.0545 28.7195 51.7482 29.9839 51.7821 32.2735C51.7821 33.6063 53.3762 34.3239 55.2077 34.2898C56.2253 34.2556 57.2089 34.0847 57.3106 34.0506L57.989 32.2735C57.1071 32.4102 56.2253 32.6153 55.5808 32.376C54.3598 31.8976 55.106 30.6332 55.9878 30.2231C56.3609 30.0522 56.8697 29.8814 57.5141 29.8814C57.7855 29.8814 58.396 29.8814 58.6334 30.4623L59.4813 28.4119C57.989 28.0702 56.4966 28.241 55.7504 28.3777ZM64.942 28.3435L64.1619 30.4281H62.7713L63.5514 28.3435H60.8719L58.7351 34.1873H61.4146L62.1269 32.2052H63.5514L62.8392 34.1873H65.5186L67.6554 28.3435H64.942ZM49.0348 28.3435L46.898 34.1873H49.7131L51.8499 28.3435H49.0348ZM43.4723 28.3435L41.4372 31.4875C41.4372 31.4875 41.5729 29.8472 41.6068 29.4713C41.6407 29.1637 41.6068 28.3777 40.8606 28.3777H37.6046L35.4678 34.2214H38.0116L39.5379 30.0181L39.1987 34.2214H41.4712L44.2524 30.0864L42.76 34.1531H45.3038L47.4406 28.3094H43.4723V28.3435ZM92.9239 28.3435L91.4655 32.3419C91.4994 31.9318 91.5672 30.3598 91.6012 29.4371C91.6351 29.0612 91.5333 28.7878 91.3637 28.5828C91.1602 28.3435 90.855 28.3435 90.855 28.3435H87.5989L85.4621 34.1873H87.8363L89.3626 30.0522L89.193 34.1873H93.1614L95.2982 28.3435H92.9239ZM83.1218 28.3435L80.985 34.1873H83.8001L85.9369 28.3435H83.1218ZM71.2846 29.8472H74.4728L75.0494 28.3094H69.2156L67.0788 34.1531H72.9805L73.5571 32.5811H70.301L70.5384 31.9318H73.591L74.0998 30.4965H71.0472L71.2846 29.8472ZM79.323 28.3435H76.6096L74.4728 34.1873H79.9336L80.6458 32.2394H77.8985L79.323 28.3435Z" fill="#004F9E"/>
<path d="M14.169 26.2591C14.169 26.2933 14.2029 26.3274 14.2029 26.3616C14.3046 26.6008 14.5082 27.1476 14.7795 27.5919C14.9152 27.8653 15.0508 28.0703 15.2204 28.2412C15.1187 28.412 14.9491 28.6513 14.8812 28.993C14.8134 29.3347 14.8473 29.779 14.983 30.2232C15.0508 30.3941 15.1187 30.565 15.2204 30.7359V30.77C15.1187 31.6244 15.4578 32.4445 16.1701 32.9913C16.2719 33.0938 16.4075 33.1622 16.5093 33.2305C16.611 33.5381 16.8145 33.8457 17.1198 34.0849C17.3233 34.2557 17.5607 34.3924 17.8321 34.4608C18.1034 34.8367 18.5104 35.1101 19.0192 35.281C19.1548 35.3151 19.2905 35.3493 19.4262 35.3493C19.4262 35.3493 19.4262 35.3493 19.4601 35.3835C19.6975 35.6227 20.0367 35.7936 20.4098 35.9303C20.342 36.4087 20.4098 36.7846 20.5115 37.0922H34.3838C34.3838 36.6479 34.282 36.1695 34.0107 35.7594C34.0107 35.7594 34.0107 35.7252 33.9768 35.7252C34.0785 35.0759 33.9089 34.4266 33.5698 33.8798C33.1628 33.2989 32.5862 32.8888 31.8739 32.7521C31.8061 32.7521 31.7382 32.7179 31.6704 32.7179H31.6365C30.9242 32.0345 30.178 31.6585 29.9067 31.556C29.9067 31.5218 29.9067 31.4877 29.9406 31.4535H29.9745C30.7207 31.1118 31.1616 30.565 31.2634 29.8473C31.3312 29.2664 31.1955 28.6171 30.8564 28.1728C30.8564 28.1728 30.8564 28.1728 30.8564 28.1387C30.9242 27.3527 30.8224 26.6692 30.5172 26.1224C30.2798 25.6781 29.8728 25.3022 29.4657 25.0972C29.3301 24.6871 28.8213 24.3454 28.2447 24.3795C27.8038 24.3795 27.295 24.6188 27.1254 24.9605C26.4471 25.1997 25.3957 25.849 25.0904 27.4552C24.6156 27.7969 24.3103 28.3437 24.2425 28.8905C24.1746 29.5398 24.3781 30.1549 24.8191 30.6333C24.3781 30.6333 23.6998 30.6675 22.8518 30.8384C22.8518 30.8384 22.8518 30.8384 22.8179 30.8384C22.1735 30.3941 21.3595 30.2232 20.6472 30.3941C20.6133 30.3941 20.5794 30.4283 20.5794 30.4283C20.3759 30.3599 20.1385 30.3258 19.901 30.2916H19.8671C19.7654 29.9499 19.5619 29.6423 19.3244 29.3689L19.2905 29.3347C19.2566 29.0955 19.1888 28.8221 19.1548 28.7196C19.087 28.4804 18.9853 28.207 18.6461 27.8653C18.4426 27.6602 18.2052 27.5235 18.0695 27.4552C18.1034 27.3868 18.1034 27.3185 18.1373 27.2501V27.216C18.1373 27.216 18.2052 26.43 18.3069 25.9515C18.5443 24.3795 18.5443 24.3454 18.5782 24.3112C18.5782 24.1745 18.5443 24.0378 18.4426 23.9353C18.3069 23.7986 18.1373 23.7302 17.9338 23.7302C17.6625 23.7302 17.3911 23.8669 17.2555 24.1403C17.1537 24.277 17.0859 24.4821 17.052 24.6188C16.7806 24.1062 16.4414 23.4227 16.204 22.9443C16.204 22.9443 16.204 22.9443 16.204 22.9101C16.1023 22.7734 15.9327 22.6025 15.6613 22.6025C15.5935 22.6025 15.4918 22.6025 15.4239 22.6367C15.2883 22.5342 15.1526 22.4658 14.983 22.4658C14.9152 22.4658 14.8134 22.4658 14.7456 22.5C14.4742 22.6025 14.3047 22.8417 14.3047 23.1493C14.1011 23.2176 13.9316 23.3885 13.8976 23.6277C13.8637 23.7644 13.8976 23.9011 13.8976 23.9695V24.0036C13.8976 24.0036 13.8976 24.0378 13.8637 24.0378C13.6602 24.3112 13.5924 24.7896 14.169 26.2591Z" fill="#1D1D1B"/>
<path d="M33.9431 37.0585H33.4004C33.57 36.8534 33.7396 36.6142 33.8413 36.3408C33.8752 36.58 33.9431 36.8193 33.9431 37.0585Z" fill="white"/>
<path d="M24.8859 31.0775C24.8859 31.0775 25.0894 31.0775 25.225 31.1459C25.4285 31.2142 25.8355 31.6243 26.039 31.6585C26.073 31.6585 26.1747 31.6243 26.073 31.5559C26.039 31.5218 25.8016 31.3167 25.8695 31.18C25.9034 31.1459 25.9373 31.1117 26.0051 31.1459C26.3104 31.2142 26.5817 31.2826 26.6835 31.2826C26.7513 31.2826 26.7852 31.2826 26.8191 31.2826C26.8531 31.2484 26.8191 31.2484 26.7513 31.2142C26.2765 31.0775 25.7338 30.8725 25.3268 30.5649C24.818 30.1548 24.5467 29.5397 24.6145 28.9246C24.6823 28.4803 24.9198 28.0702 25.2929 27.7968C25.4285 27.6943 25.666 27.5918 25.7338 27.5918C25.9034 27.5234 25.632 27.4893 25.5981 27.4893C25.5303 27.4893 25.5303 27.3868 25.5642 27.1475C25.9034 26.054 26.6496 25.5755 27.294 25.3363C27.3957 25.3022 27.5653 25.268 27.701 25.2338C27.8706 25.1996 27.8028 25.1313 27.5992 25.0971C27.5992 25.0971 27.5314 25.0971 27.5653 25.0629C27.5653 25.0629 27.5992 25.0288 27.6671 24.9604C27.8028 24.8579 28.0063 24.7896 28.2437 24.7896C28.6507 24.7896 28.9899 24.9946 29.0238 25.1996C29.0238 25.1996 29.0238 25.2338 28.9899 25.2338C28.922 25.2338 28.8542 25.268 28.9559 25.3363C28.9899 25.3363 29.0916 25.3705 29.2273 25.4389C29.2273 25.4389 29.2273 25.4389 29.2612 25.4389C29.5665 25.5755 30.5161 26.1565 30.4483 27.7968C30.4483 27.831 30.4483 27.8994 30.4483 27.9335C30.4483 27.9677 30.4483 28.0361 30.4483 28.0702C30.3466 28.0702 30.3126 28.1044 30.3805 28.1727C30.4144 28.2069 30.5501 28.3436 30.6179 28.4803C30.8214 28.822 30.9232 29.3005 30.8892 29.7447C30.8214 30.3257 30.4483 30.6674 30.1091 30.9066C29.9396 31.0092 29.5665 31.18 29.1255 31.2826C29.0238 31.3167 29.0916 31.4192 29.4986 31.4192C29.5325 31.4192 29.6004 31.4192 29.6343 31.4876C29.7021 31.5901 29.6004 31.761 29.3969 31.8977C29.2273 32.0002 29.363 32.0002 29.6004 31.9319C29.6682 31.9319 29.8378 32.0002 29.8717 32.0002C30.2448 32.1711 31.1606 32.6495 31.8728 33.6064C32.3477 34.324 32.5512 34.8708 32.3816 35.2125C32.2459 35.5543 31.805 35.6226 31.805 35.6226C30.1091 35.896 27.1583 35.4176 25.1233 34.8024C24.7502 34.6999 24.2075 34.4949 23.7666 34.2898C24.2075 33.2988 24.0379 32.0685 23.2917 31.2484L23.2578 31.2142C23.9362 31.1117 24.5467 31.0775 24.8859 31.0775Z" fill="white"/>
<path d="M33.1962 34.1195C33.5354 34.5979 33.6372 35.213 33.5354 35.794C33.4337 36.2724 33.1962 36.7167 32.8231 37.0242C32.8231 36.6142 32.7553 36.1357 32.4501 35.7598C32.5518 35.6573 32.6875 35.5548 32.7553 35.3839C32.9927 34.8713 32.7892 34.1878 32.2126 33.3335C32.2126 33.2993 32.1787 33.2993 32.1787 33.2993C32.5857 33.4702 32.9249 33.7436 33.1962 34.1195Z" fill="white"/>
<path d="M22.9192 31.556C23.5975 32.342 23.6993 33.5039 23.1905 34.3583C22.6139 35.3151 21.5625 35.7594 20.5789 35.5202C20.4432 35.486 20.3075 35.4177 20.1719 35.3835C20.2736 35.3835 20.3415 35.3493 20.4432 35.3151C21.3929 35.0417 22.1052 34.1532 22.2069 33.0938C22.2748 32.4104 22.0713 31.7611 21.6982 31.2485C21.5625 31.0776 21.3929 30.9067 21.2233 30.8042C21.8677 30.8042 22.4783 31.0776 22.9192 31.556Z" fill="white"/>
<path d="M21.3603 31.5219C21.6995 31.9319 21.8352 32.4787 21.7673 33.0597C21.6656 33.9482 21.089 34.6658 20.3089 34.8709C19.6645 35.0418 19.02 34.9051 18.5791 34.5975C19.5288 34.5633 20.4446 33.914 20.7498 32.9572C20.9194 32.4787 20.8855 31.9661 20.7159 31.4877C20.6481 31.2827 20.5124 31.0776 20.3767 30.9067C20.8516 31.0093 21.1568 31.2143 21.3603 31.5219Z" fill="white"/>
<path d="M19.8655 31.5561C19.8994 31.3852 19.8994 31.1801 19.8994 31.0093C20.3742 31.4535 20.5438 32.1712 20.3403 32.8205C20.0351 33.7432 19.0854 34.3241 18.2035 34.1191C17.8304 34.0507 17.3895 33.8115 17.1182 33.4356C17.2878 33.4698 17.4573 33.504 17.593 33.504C17.8983 33.504 18.2035 33.4356 18.5088 33.2989C19.221 32.9914 19.7298 32.3421 19.8655 31.5561Z" fill="white"/>
<path d="M19.2234 30.0522C19.4609 30.4623 19.5626 30.9408 19.4609 31.4534C19.3252 32.1027 18.9182 32.6494 18.3755 32.8887C17.7311 33.1621 17.0188 33.0595 16.4422 32.6153C15.9674 32.2735 15.696 31.7609 15.6621 31.2483C15.696 31.2825 15.7639 31.3167 15.7978 31.3508C16.137 31.5901 16.5779 31.7268 17.0527 31.7268C17.358 31.7268 17.5954 31.6584 17.6293 31.6584C18.4433 31.4192 18.8503 30.9408 19.0539 30.5649C19.1217 30.394 19.1895 30.2231 19.2234 30.0522Z" fill="white"/>
<path d="M14.2022 24.3113C14.2361 24.2771 14.27 24.2771 14.27 24.2771C14.27 24.2771 14.27 24.2771 14.3039 24.2771C14.3378 24.2771 14.3378 24.2771 14.3718 24.2771H14.4057C14.5413 24.3113 14.6431 24.4821 14.6431 24.7214C14.7449 25.3707 15.0501 25.8149 15.0501 25.8149C15.084 25.8491 15.084 25.8491 15.1179 25.8491C15.1519 25.8491 15.1519 25.8491 15.1858 25.8149C15.2197 25.7807 15.2536 25.7124 15.2197 25.6782C15.2197 25.6782 14.9144 25.2681 14.8466 24.653C14.8127 24.3455 14.677 24.1404 14.4735 24.0721C14.4396 24.0379 14.3718 24.0379 14.3378 24.0379C14.3039 23.9695 14.3039 23.9012 14.27 23.9012C14.2361 23.8328 14.2022 23.662 14.4057 23.5936H14.4396C14.4396 23.5936 14.4396 23.5936 14.4735 23.5936C14.6092 23.5936 14.7788 23.6278 14.9484 24.2771C15.1179 24.8581 15.491 25.439 15.491 25.439C15.525 25.4732 15.525 25.4732 15.5589 25.4732C15.5928 25.4732 15.5928 25.4732 15.6267 25.4732C15.6606 25.439 15.6945 25.3707 15.6606 25.3365C15.6606 25.3365 15.2875 24.7897 15.1519 24.2088C15.084 23.9354 14.9823 23.6278 14.7788 23.4911C14.7449 23.4228 14.7109 23.3544 14.7109 23.3202C14.677 23.2177 14.6431 23.0127 14.8127 22.9443C14.8466 22.9443 14.8805 22.9102 14.9144 22.9102C15.0501 22.9102 15.1179 23.0469 15.1519 23.1152C15.1519 23.1152 15.1519 23.1494 15.1858 23.1494L15.9659 25.0631C15.9659 25.0631 15.9659 25.0973 15.9998 25.0973C16.0337 25.1314 16.0676 25.1314 16.1016 25.0973C16.1355 25.0631 16.1694 25.0289 16.1355 24.9948L15.3554 23.1152C15.3554 23.081 15.3893 23.0469 15.4571 23.0127C15.491 22.9785 15.5589 22.9785 15.5928 22.9785C15.6945 22.9785 15.7624 23.081 15.7624 23.081C15.7624 23.081 16.7799 25.1314 16.9834 25.4732C16.9156 25.6099 16.8477 25.7466 16.8477 25.7807C16.8477 25.8491 16.8817 25.8833 16.8817 25.8149C16.9495 25.7124 17.0173 25.6441 17.0852 25.5415C17.1191 25.439 17.2887 25.0631 17.3565 24.9264C17.3904 24.7555 17.4922 24.4821 17.5939 24.3113C17.6957 24.1746 17.7974 24.1062 17.8992 24.1062C18.0009 24.1062 18.1027 24.1746 18.1027 24.2429C18.1027 24.2771 17.8653 25.8491 17.8653 25.8491C17.7974 26.1908 17.7296 26.6351 17.6957 26.9085C17.6957 26.9768 17.6957 27.0452 17.6618 27.1135V27.1477C17.6618 27.1477 17.6618 27.1477 17.6618 27.1819C17.5939 27.4211 17.5261 27.592 17.5261 27.592L17.5939 27.9679C17.6278 28.1387 17.6618 28.3096 17.6618 28.3438C17.7296 28.5488 17.6618 28.6855 17.6957 28.7197C17.7635 28.788 17.8653 28.4805 17.8992 28.3438C17.9331 28.2413 17.8653 28.002 17.8313 27.8312C17.9331 27.8995 18.1027 27.9679 18.2723 28.1387C18.5436 28.4121 18.6114 28.6172 18.6793 28.788C18.7471 28.9589 18.8149 29.3348 18.8149 29.5399C18.8149 29.7449 18.7471 30.8043 17.4922 31.1802C17.4922 31.1802 17.2887 31.2485 17.0173 31.2485C16.746 31.2485 16.3729 31.1802 16.0337 30.941C15.4232 30.4967 15.1858 29.5399 15.3214 29.0614C15.3893 28.8222 15.491 28.6172 15.5589 28.5146C15.6267 28.5488 15.6606 28.583 15.7285 28.583L15.7624 28.7539C15.7624 28.788 15.8641 29.2665 16.0337 29.4032C16.1355 29.5057 16.339 29.5057 16.3729 29.5057C16.4407 29.5057 16.5764 29.5057 16.5764 29.4373C16.5764 29.4373 16.5764 29.4032 16.5764 29.369C16.5764 29.369 16.5425 29.3348 16.5086 29.3348C16.4068 29.3006 16.2372 29.1981 16.2033 29.0272C16.1694 28.9247 16.1015 28.6172 16.0676 28.4121C16.2711 28.2754 16.2711 28.1046 16.0337 28.1387C15.898 28.1729 15.7624 28.1046 15.6606 28.002C15.1858 27.5578 14.6431 26.225 14.5413 26.02C14.1343 25.0289 14.0665 24.448 14.2022 24.3113Z" fill="white"/>
<path d="M20.8162 35.9988C20.918 35.9988 20.9858 35.9988 21.0876 35.9988C22.0033 35.9988 22.8852 35.5204 23.4618 34.666C23.9366 34.8711 24.5132 35.0761 24.9202 35.2128C26.0395 35.5545 27.3284 35.8279 28.5155 35.9646C29.2617 36.0671 29.9739 36.1013 30.5845 36.1013C31.0254 36.1013 31.4324 36.0671 31.8055 36.033C31.8394 36.033 31.9072 35.9988 32.0429 35.9646C32.3142 36.2722 32.3821 36.6823 32.3482 37.024H20.9858C20.8841 36.8531 20.7823 36.5114 20.8162 35.9988Z" fill="white"/>
<path d="M27.091 28.2751C27.1588 28.3435 27.1927 28.3776 27.2945 28.4118C27.3623 28.446 27.4302 28.446 27.498 28.446C27.498 28.446 27.5997 28.446 27.6676 28.446C27.9389 28.446 28.2103 28.0017 28.2103 27.5916C28.2103 27.2157 28.1763 26.9082 27.905 26.7373C27.8711 26.7031 27.8372 26.7031 27.8033 26.7031C27.7015 26.6689 27.5319 26.6689 27.4302 26.6689C27.2945 26.7031 27.1927 26.8056 27.091 26.9423C27.0231 27.079 26.9553 27.2157 26.9214 27.3524C26.8875 27.4891 26.8875 27.66 26.8875 27.7967C26.9553 27.9675 26.9892 28.1384 27.091 28.2751ZM27.0571 27.5916C27.0571 27.4208 27.1927 26.8398 27.6337 26.874C27.9728 26.9082 28.0746 27.1816 28.1085 27.3866V27.4208C28.1424 27.6258 28.0746 27.7967 28.0407 27.9334C28.0068 28.0017 28.0068 28.0359 27.9728 28.1042C27.905 28.2409 27.8032 28.3093 27.7015 28.3093C27.7015 28.3093 27.7015 28.3093 27.6676 28.3093C27.8372 28.2409 27.9389 28.0359 27.9728 27.7625C28.0068 27.4208 27.8372 27.1474 27.6337 27.1132C27.5319 27.1132 27.4302 27.1474 27.3284 27.2499C27.3962 27.2499 27.4641 27.3182 27.498 27.4549C27.498 27.5575 27.4302 27.66 27.3623 27.66C27.2945 27.66 27.2267 27.5916 27.2267 27.5233C27.2267 27.5916 27.1927 27.6258 27.1927 27.6942C27.1588 27.8992 27.2267 28.1042 27.3284 28.2068L27.2945 28.1726C27.2267 28.0701 27.1588 27.9675 27.1588 27.7967C27.0571 27.7283 27.0571 27.66 27.0571 27.5916ZM29.6687 29.232C29.6348 29.232 29.6009 29.2661 29.6348 29.3003C29.6348 29.3003 29.6348 29.3003 29.6687 29.3345C29.6348 29.3345 29.6348 29.3687 29.6348 29.3687C29.533 29.4028 29.3974 29.4712 29.2956 29.4712C28.9904 29.5054 28.6851 29.5054 28.4138 29.5054C27.9389 29.4712 27.4641 29.3687 27.0231 29.1636C26.9892 29.1636 26.9553 29.1294 26.9214 29.0953C26.8875 29.0953 26.8875 29.0611 26.8536 29.0611C26.7857 29.0269 26.7179 29.0953 26.7179 29.1636C26.7179 29.1978 26.7518 29.232 26.7857 29.2661C26.8875 29.3345 27.0231 29.3687 27.1588 29.437C27.2606 29.4712 27.3623 29.5737 27.4302 29.6762C27.5319 29.7787 27.6337 29.8813 27.7693 29.9496C28.0068 30.0863 28.312 30.1205 28.5834 30.0863C28.719 30.0521 28.8547 30.018 28.9904 29.9496C29.0921 29.8813 29.1599 29.8129 29.2278 29.7787C29.2617 29.7446 29.3295 29.7104 29.3635 29.6762C29.3974 29.6421 29.6009 29.5737 29.7365 29.5054C29.7365 29.5395 29.7365 29.5737 29.7705 29.5737C29.8044 29.5737 29.8383 29.5395 29.8383 29.4712C29.8383 29.437 29.8383 29.3687 29.8383 29.3345C29.7705 29.3003 29.7365 29.232 29.6687 29.232ZM28.6851 29.8471C28.5494 29.8813 28.4138 29.8813 28.312 29.8813C28.1763 29.8813 28.0407 29.8471 27.9389 29.7787C27.8033 29.7104 27.7015 29.6421 27.5997 29.5395C28.0746 29.6421 28.5494 29.7104 29.0243 29.6762C28.8886 29.7446 28.7869 29.8129 28.6851 29.8471ZM26.8875 28.9244C26.8875 28.8902 26.8196 28.8902 26.8196 28.8902C26.7857 28.8902 26.7179 28.8902 26.684 28.9244C26.5822 28.9586 26.4805 29.0953 26.4805 29.1978V29.232H26.5144C26.5483 29.232 26.5483 29.1978 26.5483 29.1978C26.5483 29.1636 26.5483 29.1294 26.5822 29.0953C26.6161 29.0611 26.6501 29.0269 26.8196 28.9928C26.8536 28.9928 26.9214 28.9586 26.8875 28.9244ZM29.974 27.3182C29.9401 27.1816 29.8722 27.0449 29.7365 26.9765C29.6348 26.9082 29.4991 26.874 29.3974 26.9082C29.3635 26.9082 29.3295 26.9082 29.2956 26.9423C28.9904 27.0449 28.8886 27.3182 28.7869 27.6942C28.6851 28.1042 28.8208 28.5827 29.0921 28.651C29.1599 28.6852 29.2617 28.6852 29.2617 28.6852C29.3295 28.6852 29.3974 28.7194 29.4652 28.6852C29.533 28.6852 29.6009 28.651 29.6687 28.6168C29.8044 28.5143 29.8722 28.3776 29.9401 28.2409C30.0079 28.1042 30.0418 27.9675 30.0418 27.7967C30.0079 27.6258 30.0079 27.4891 29.974 27.3182ZM29.8383 27.9675C29.8383 28.0359 29.8044 28.1042 29.7705 28.1726C29.7026 28.3093 29.6348 28.446 29.533 28.5143C29.4991 28.5485 29.4652 28.5485 29.3974 28.5827C29.533 28.4802 29.6687 28.3093 29.6687 28.0359C29.7026 27.6942 29.533 27.4208 29.3295 27.3866C29.2278 27.3866 29.126 27.4208 29.0582 27.5233C29.126 27.5233 29.1939 27.5916 29.1939 27.6942C29.1939 27.7967 29.126 27.8992 29.0582 27.8992C28.9904 27.8992 28.9225 27.865 28.9225 27.7625C28.9225 27.8309 28.8886 27.865 28.8886 27.9334C28.8547 28.1726 28.9225 28.3776 29.0243 28.4801C28.9564 28.446 28.8886 28.3435 28.8547 28.2068C28.8547 28.1384 28.8208 28.1042 28.8208 28.0359C28.8208 27.8992 28.8208 27.7283 28.8886 27.5233V27.4891C28.9564 27.2841 29.126 27.0449 29.4652 27.1132C29.9401 27.2157 29.8722 27.7967 29.8383 27.9675Z" fill="#1D1D1B"/>
<path d="M15.1523 45.0546L16.3734 41.6372H18.7476C19.1546 41.6372 19.4599 41.7397 19.6294 41.9448C19.799 42.1498 19.833 42.389 19.7312 42.6624C19.6634 42.8675 19.5277 43.0383 19.3581 43.1409C19.1885 43.2434 18.985 43.3117 18.7476 43.3459C18.985 43.3801 19.1546 43.4826 19.2564 43.6876C19.3581 43.8927 19.3581 44.0977 19.2564 44.3369C19.1546 44.5761 19.0189 44.7812 18.7815 44.8837C18.5441 44.9862 18.2388 45.0546 17.7979 45.0546H15.1523ZM17.7301 43.6876H16.9839L16.7465 44.3028H17.5605C17.7301 44.3028 17.8318 44.2686 17.8997 44.2344C17.9675 44.2002 18.0353 44.1319 18.0692 44.0294C18.171 43.7902 18.0353 43.6876 17.7301 43.6876ZM18.0692 42.4574H17.4248L17.2213 43.0383H17.8318C18.0014 43.0383 18.1032 43.0042 18.2049 42.97C18.2727 42.9358 18.3406 42.8675 18.3745 42.7649C18.4423 42.5599 18.3406 42.4574 18.0692 42.4574Z" fill="black"/>
<path d="M19.6289 45.0546L20.8499 41.6372H24.106L23.8347 42.4232H21.9014L21.6979 42.9358H23.4277L23.1224 43.7218H21.3926L21.1891 44.2686H23.1224L22.8511 45.0546H19.6289Z" fill="black"/>
<path d="M23.5293 45.0546L24.7503 41.6372H27.9725L27.7011 42.4232H25.8018L25.5983 42.97H26.4801C27.0228 42.97 27.3959 43.0725 27.5655 43.3117C27.7351 43.5509 27.8029 43.8585 27.6672 44.2002C27.5655 44.4736 27.3959 44.6787 27.1245 44.8154C26.8532 44.9521 26.514 45.0204 26.107 45.0204H23.5293V45.0546ZM26.0731 43.6876H25.3269L25.1234 44.2686H25.9035C26.0731 44.2686 26.2088 44.2344 26.2766 44.2002C26.3444 44.1661 26.4123 44.0977 26.4462 43.9952C26.4801 43.8927 26.4801 43.7902 26.4123 43.756C26.3444 43.7218 26.2088 43.6876 26.0731 43.6876Z" fill="black"/>
<path d="M28.0752 43.7904L28.3805 42.936H30.0085L29.7032 43.7904H28.0752Z" fill="black"/>
<path d="M34.1119 42.6624C33.8066 42.5257 33.4335 42.4574 33.0604 42.4574C32.7212 42.4574 32.4499 42.5257 32.2125 42.6624C31.9751 42.7991 31.8394 43.0383 31.7037 43.3801C31.602 43.7218 31.602 43.9268 31.7376 44.0977C31.8733 44.2686 32.1446 44.3369 32.5517 44.3369C32.9247 44.3369 33.2978 44.3028 33.6031 44.2002L33.2978 45.0887C32.9926 45.1571 32.6195 45.1913 32.1786 45.1913C31.3985 45.1913 30.8558 45.0204 30.5505 44.6445C30.2453 44.2686 30.2114 43.7901 30.4488 43.1408C30.5505 42.8675 30.6862 42.5941 30.8558 42.4232C31.0254 42.2182 31.2289 42.0473 31.4324 41.9448C31.6698 41.8422 31.9072 41.7397 32.1446 41.7056C32.3821 41.6714 32.6873 41.6372 32.9926 41.6372C33.5013 41.6372 33.9423 41.7056 34.3832 41.8764L34.1119 42.6624Z" fill="black"/>
<path d="M36.8259 45.0546V44.4736H35.4353L35.0283 45.0546H33.6377L35.7406 42.0815C35.8423 41.9106 35.9441 41.8081 36.0798 41.7397C36.1815 41.6714 36.3511 41.6372 36.5207 41.6372H38.047V45.0546H36.8259ZM36.8599 43.6535L36.8938 42.2523L35.978 43.6535H36.8599Z" fill="black"/>
<path d="M41.3022 45.0544L42.0145 43.0723L40.1151 45.0544H38.4531L39.6742 41.637H40.9969L40.2507 43.6875L41.7431 42.1496C41.9127 41.9446 42.0823 41.8421 42.184 41.7396C42.3197 41.6712 42.4554 41.637 42.625 41.637H43.8121L42.5911 45.0544H41.3022ZM41.8449 40.646C41.811 40.7827 41.777 40.8852 41.8109 40.9194C41.8449 40.9536 41.8788 40.9877 41.9805 40.9877C42.1501 40.9877 42.2858 40.851 42.3536 40.6118H43.2355C43.1337 40.9194 42.9641 41.1244 42.7606 41.2611C42.5571 41.3636 42.2858 41.432 41.9127 41.432C41.5396 41.432 41.2683 41.3636 41.0987 41.2269C40.963 41.0902 40.9291 40.8852 40.9969 40.6118H41.8449V40.646Z" fill="black"/>
<path d="M47.4748 42.5257H46.4572L45.5415 45.0888H44.2187L45.1344 42.5257H44.083L44.3883 41.6714H47.78L47.4748 42.5257Z" fill="black"/>
<path d="M50.7314 45.1571C50.3922 45.1571 50.087 45.1229 49.8156 45.0546C49.5443 44.9862 49.3408 44.8837 49.2051 44.7812C49.0695 44.6445 48.9677 44.5078 48.8999 44.3369C48.832 44.166 48.832 43.961 48.832 43.7901C48.8659 43.5851 48.8999 43.3801 49.0016 43.1067C49.2051 42.5599 49.5104 42.1498 49.8835 41.9106C50.2566 41.6714 50.7653 41.5688 51.4098 41.5688C51.7489 41.5688 52.0542 41.603 52.3255 41.6714C52.5969 41.7397 52.7665 41.8422 52.936 41.9448C53.1056 42.0473 53.1735 42.2181 53.2413 42.389C53.3091 42.5599 53.3431 42.7308 53.3091 42.9358C53.2752 43.1408 53.2413 43.3459 53.1396 43.5851C52.936 44.166 52.6647 44.542 52.2577 44.7812C51.8846 45.0546 51.3758 45.1571 50.7314 45.1571ZM50.7992 44.3027C51.0706 44.3027 51.2741 44.2344 51.4437 44.1319C51.6133 43.9952 51.7489 43.7901 51.8507 43.4484C51.9864 43.1067 51.9864 42.8674 51.9185 42.6966C51.8168 42.5257 51.6133 42.4232 51.308 42.4232C51.0367 42.4232 50.8332 42.4915 50.6636 42.5941C50.494 42.7308 50.3583 42.9358 50.2566 43.2775C50.1209 43.6193 50.1209 43.8585 50.1887 44.0635C50.2566 44.2344 50.494 44.3027 50.7992 44.3027Z" fill="black"/>
<path d="M56.2939 46.114L56.667 45.0546H54.1232L53.7501 46.114H52.4951L53.2074 44.2002H53.6822C53.8857 44.0635 54.0892 43.7902 54.2927 43.4142L55.005 42.1498C55.1746 41.8423 55.4459 41.6714 55.8529 41.6714H58.6003L57.6845 44.2344H58.295L57.5827 46.1481H56.2939V46.114ZM55.4459 43.6535C55.3103 43.9268 55.1746 44.0977 55.005 44.2344H56.2939L56.9044 42.5257H56.0565L55.4459 43.6535Z" fill="black"/>
<path d="M60.5332 45.1571C60.194 45.1571 59.8887 45.1229 59.6174 45.0546C59.3461 44.9862 59.1425 44.8837 59.0069 44.7812C58.8712 44.6445 58.7695 44.5078 58.7016 44.3369C58.6338 44.166 58.6338 43.961 58.6338 43.7901C58.6677 43.5851 58.7016 43.3801 58.8034 43.1067C59.0069 42.5599 59.3121 42.1498 59.6852 41.9106C60.0583 41.6714 60.5671 41.5688 61.2115 41.5688C61.5507 41.5688 61.8559 41.603 62.1273 41.6714C62.3986 41.7397 62.5682 41.8422 62.7378 41.9448C62.9074 42.0473 62.9752 42.2181 63.0431 42.389C63.1109 42.5599 63.1448 42.7308 63.1109 42.9358C63.077 43.1408 63.0431 43.3459 62.9413 43.5851C62.7378 44.166 62.4665 44.542 62.0594 44.7812C61.6864 45.0546 61.1776 45.1571 60.5332 45.1571ZM60.601 44.3027C60.8723 44.3027 61.0758 44.2344 61.2454 44.1319C61.415 43.9952 61.5507 43.7901 61.6524 43.4484C61.7881 43.1067 61.7881 42.8674 61.7203 42.6966C61.6185 42.5257 61.415 42.4232 61.1098 42.4232C60.8384 42.4232 60.6349 42.4915 60.4653 42.5941C60.2957 42.7308 60.1601 42.9358 60.0583 43.2775C59.9227 43.6193 59.9227 43.8585 59.9905 44.0635C60.0583 44.2344 60.2957 44.3027 60.601 44.3027Z" fill="black"/>
<path d="M62.9756 45.0546L64.1966 41.6372H67.4188L67.1474 42.4232H65.2481L65.0446 42.97H65.9264C66.4691 42.97 66.8422 43.0725 67.0118 43.3117C67.1814 43.5509 67.2492 43.8585 67.1135 44.2002C67.0118 44.4736 66.8422 44.6787 66.5708 44.8154C66.2995 44.9521 65.9603 45.0204 65.5533 45.0204H62.9756V45.0546ZM65.5194 43.6876H64.7732L64.5697 44.2686H65.3498C65.5194 44.2686 65.6551 44.2344 65.7229 44.2002C65.7907 44.1661 65.8586 44.0977 65.8925 43.9952C65.9264 43.8927 65.9264 43.7902 65.8586 43.756C65.7907 43.7218 65.6551 43.6876 65.5194 43.6876Z" fill="black"/>
<path d="M69.7922 44.2686H69.0121L68.7407 45.0546H67.418L68.639 41.6372H70.3349C70.6401 41.6372 70.8775 41.6714 71.081 41.7056C71.2845 41.7739 71.4541 41.8423 71.5898 41.9106C71.7255 42.0131 71.7933 42.1156 71.8611 42.2523C71.929 42.389 71.929 42.5257 71.929 42.6624C71.929 42.7991 71.8951 42.97 71.8272 43.175C71.7594 43.3801 71.6576 43.5509 71.522 43.7218C71.3863 43.8585 71.2506 43.961 71.081 44.0635C70.9115 44.1319 70.708 44.2002 70.5384 44.2344C70.3688 44.2686 70.0635 44.2686 69.7922 44.2686ZM70.0296 42.4574H69.6565L69.2834 43.5168H69.6226C69.8939 43.5168 70.0974 43.4826 70.1992 43.4142C70.3009 43.3459 70.4027 43.2092 70.4705 43.0383C70.5384 42.8333 70.5384 42.6966 70.5044 42.5941C70.4366 42.4916 70.3009 42.4574 70.0296 42.4574Z" fill="black"/>
<path d="M71.5908 45.0546L72.8119 41.6372H76.0679L75.7966 42.4232H73.8633L73.6598 42.9358H75.3896L75.0843 43.7218H73.3545L73.151 44.2686H75.0843L74.813 45.0546H71.5908Z" fill="black"/>
<path d="M77.9672 45.0546L78.442 43.7902H77.2888L76.814 45.0546H75.4912L76.7122 41.6372H78.035L77.5602 42.9016H78.7134L79.1882 41.6372H80.511L79.29 45.0546H77.9672Z" fill="black"/>
</g>
<defs>
<filter id="filter0_d_326_1275" x="0.773438" y="0.850098" width="117.585" height="74.7754" filterUnits="userSpaceOnUse" color-interpolation-filters="sRGB">
<feFlood flood-opacity="0" result="BackgroundImageFix"/>
<feColorMatrix in="SourceAlpha" type="matrix" values="0 0 0 0 0 0 0 0 0 0 0 0 0 0 0 0 0 0 127 0" result="hardAlpha"/>
<feOffset dy="2"/>
<feGaussianBlur stdDeviation="2"/>
<feComposite in2="hardAlpha" operator="out"/>
<feColorMatrix type="matrix" values="0 0 0 0 0 0 0 0 0 0 0 0 0 0 0 0 0 0 0.25 0"/>
<feBlend mode="normal" in2="BackgroundImageFix" result="effect1_dropShadow_326_1275"/>
<feBlend mode="normal" in="SourceGraphic" in2="effect1_dropShadow_326_1275" result="shape"/>
</filter>
</defs>
</svg>
