<svg width="121" height="77" viewBox="0 0 121 77" fill="none" xmlns="http://www.w3.org/2000/svg">
<g filter="url(#filter0_d_1957_2954)">
<path d="M115.184 20.08L101.369 56.3759C100.704 58.1731 98.9558 59.3712 97.0671 59.3712H14.5621C8.93123 53.4511 5.46875 45.4167 5.46875 36.5717C5.46875 27.7268 8.93123 19.6924 14.5621 13.7722H110.882C114.135 13.7722 116.338 17.0494 115.184 20.08Z" fill="#F1F1F0"/>
<path d="M97.0673 60.8514H14.5623C14.1426 60.8514 13.7579 60.6752 13.4781 60.3933C7.39253 53.9446 4 45.4872 4 36.5718C4 27.6564 7.39253 19.1991 13.5131 12.7504C13.7929 12.4685 14.1776 12.2923 14.5973 12.2923H110.917C112.911 12.2923 114.799 13.279 115.919 14.9352C117.073 16.5914 117.318 18.7058 116.583 20.6087L102.768 56.9046C101.859 59.2656 99.5855 60.8514 97.0673 60.8514ZM15.2268 57.8561H97.0673C98.3614 57.8561 99.5155 57.0456 100.005 55.8475L113.82 19.5515C114.205 18.5648 114.065 17.5076 113.47 16.6267C112.876 15.7457 111.931 15.2524 110.882 15.2524H15.2268C9.87572 21.0668 6.97284 28.6079 6.97284 36.5718C6.97284 44.5006 9.87572 52.0417 15.2268 57.8561Z" fill="white"/>
<path d="M70.8369 36.5716C70.8369 45.4166 67.3744 53.451 61.7435 59.3711C55.7978 65.6084 47.4389 69.5199 38.1706 69.5199C28.9024 69.5199 20.5435 65.6436 14.5978 59.3711C8.96688 53.451 5.50439 45.4166 5.50439 36.5716C5.50439 27.7267 8.96688 19.6923 14.5978 13.7721C20.5435 7.53487 28.9024 3.62336 38.1706 3.62336C47.4389 3.62336 55.7978 7.49963 61.7435 13.7721C67.3744 19.6923 70.8369 27.7267 70.8369 36.5716Z" fill="#004F9E"/>
<path d="M38.1702 71C28.797 71 20.0184 67.2295 13.5131 60.3931C7.39253 53.9444 4 45.4871 4 36.5717C4 27.6563 7.39253 19.199 13.5131 12.7503C20.0184 5.91395 28.762 2.1434 38.1702 2.1434C47.5783 2.1434 56.3219 5.91395 62.8272 12.7503C68.9478 19.199 72.3403 27.6563 72.3403 36.5717C72.3403 45.4871 68.9478 53.9444 62.8272 60.3931C56.3219 67.2295 47.5433 71 38.1702 71ZM38.1702 5.1387C29.6014 5.1387 21.5922 8.5921 15.6465 14.8294C10.0506 20.679 6.97284 28.3963 6.97284 36.5717C6.97284 44.7119 10.0506 52.4644 15.6465 58.3493C21.5922 64.5865 29.6014 68.0399 38.1702 68.0399C46.7389 68.0399 54.7481 64.5865 60.6938 58.3493C66.2897 52.4644 69.3675 44.7471 69.3675 36.5717C69.3675 28.4315 66.2897 20.679 60.6938 14.7941C54.7481 8.55686 46.7389 5.1387 38.1702 5.1387Z" fill="white"/>
<path d="M112.911 20.6791L99.5853 55.7064C98.9207 57.4331 97.2769 58.596 95.4233 58.596H15.8561C10.4001 52.8521 6.72778 45.0995 6.72778 36.5717C6.72778 28.044 10.4351 20.2914 15.8561 14.5827H108.784C111.896 14.5827 114.03 17.719 112.911 20.6791Z" fill="#F1F1F0"/>
<path d="M84.4066 37.4175H16.7658L16.2412 38.9328H83.8471L84.4066 37.4175Z" fill="#FFE500"/>
<path d="M56.5666 28.4667C54.8179 28.8191 52.4396 30.123 52.4746 32.484C52.4746 33.8583 54.1184 34.5983 56.0071 34.563C57.0563 34.5278 58.0706 34.3516 58.1755 34.3164L58.875 32.484C57.9656 32.6249 57.0563 32.8363 56.3918 32.5897C55.1327 32.0963 55.9021 30.7925 56.8115 30.3696C57.1962 30.1934 57.7208 30.0172 58.3853 30.0172C58.6651 30.0172 59.2947 30.0172 59.5395 30.6163L60.4138 28.502C58.875 28.1496 57.3361 28.3258 56.5666 28.4667ZM66.0448 28.4315L65.2403 30.5811H63.8064L64.6108 28.4315H61.8478L59.6444 34.4573H62.4074L63.1419 32.4135H64.6108L63.8763 34.4573H66.6393L68.8427 28.4315H66.0448ZM49.6417 28.4315L47.4383 34.4573H50.3412L52.5446 28.4315H49.6417ZM43.9059 28.4315L41.8074 31.6735C41.8074 31.6735 41.9473 29.982 41.9823 29.5944C42.0172 29.2772 41.9823 28.4667 41.2128 28.4667H37.8553L35.6519 34.4926H38.2749L39.8488 30.1582L39.4991 34.4926H41.8424L44.7103 30.2287L43.1714 34.4221H45.7945L47.9979 28.3963H43.9059V28.4315ZM94.8988 28.4315L93.3949 32.5544C93.4298 32.1316 93.4998 30.5106 93.5348 29.5591C93.5697 29.1715 93.4648 28.8896 93.2899 28.6782C93.0801 28.4315 92.7653 28.4315 92.7653 28.4315H89.4078L87.2044 34.4573H89.6526L91.2264 30.1934L91.0516 34.4573H95.1436L97.347 28.4315H94.8988ZM84.7911 28.4315L82.5877 34.4573H85.4906L87.694 28.4315H84.7911ZM72.585 29.982H75.8726L76.4672 28.3963H70.4515L68.2481 34.4221H74.3337L74.9283 32.8011H71.5707L71.8156 32.1316H74.9633L75.4879 30.6515H72.3402L72.585 29.982ZM80.874 28.4315H78.076L75.8726 34.4573H81.5035L82.238 32.4487H79.405L80.874 28.4315Z" fill="#004F9E"/>
<path d="M13.6882 26.2821C13.6882 26.3173 13.7232 26.3526 13.7232 26.3878C13.8281 26.6345 14.0379 27.1983 14.3177 27.6564C14.4576 27.9383 14.5975 28.1497 14.7724 28.3259C14.6675 28.5021 14.4926 28.7488 14.4227 29.1012C14.3527 29.4536 14.3877 29.9117 14.5276 30.3698C14.5975 30.546 14.6675 30.7222 14.7724 30.8984V30.9336C14.6675 31.8146 15.0172 32.6603 15.7517 33.2241C15.8566 33.3298 15.9965 33.4003 16.1014 33.4708C16.2064 33.788 16.4162 34.1051 16.731 34.3518C16.9408 34.528 17.1857 34.6689 17.4655 34.7394C17.7452 35.127 18.1649 35.4089 18.6896 35.5851C18.8295 35.6204 18.9694 35.6556 19.1093 35.6556C19.1093 35.6556 19.1093 35.6556 19.1442 35.6908C19.3891 35.9375 19.7388 36.1137 20.1235 36.2547C20.0536 36.748 20.1235 37.1356 20.2284 37.4528H34.533C34.533 36.9947 34.4281 36.5013 34.1483 36.0785C34.1483 36.0785 34.1483 36.0432 34.1133 36.0432C34.2183 35.3737 34.0434 34.7042 33.6936 34.1403C33.274 33.5413 32.6794 33.1184 31.9449 32.9775C31.875 32.9775 31.805 32.9422 31.7351 32.9422H31.7001C30.9656 32.2374 30.1962 31.8498 29.9164 31.7441C29.9164 31.7089 29.9164 31.6736 29.9514 31.6384H29.9863C30.7558 31.286 31.2105 30.7222 31.3154 29.9822C31.3853 29.3831 31.2454 28.7136 30.8957 28.2555C30.8957 28.2555 30.8957 28.2555 30.8957 28.2202C30.9656 27.4097 30.8607 26.705 30.5459 26.1411C30.3011 25.683 29.8814 25.2954 29.4617 25.084C29.3218 24.6611 28.7972 24.3087 28.2026 24.344C27.748 24.344 27.2234 24.5906 27.0485 24.943C26.349 25.1897 25.2648 25.8592 24.95 27.5154C24.4604 27.8678 24.1456 28.4317 24.0756 28.9955C24.0057 29.665 24.2155 30.2993 24.6702 30.7927C24.2155 30.7927 23.5161 30.8279 22.6417 31.0041C22.6417 31.0041 22.6417 31.0041 22.6067 31.0041C21.9422 30.546 21.1028 30.3698 20.3683 30.546C20.3334 30.546 20.2984 30.5812 20.2984 30.5812C20.0885 30.5107 19.8437 30.4755 19.5989 30.4403H19.5639C19.459 30.0879 19.2492 29.7707 19.0043 29.4888L18.9694 29.4536C18.9344 29.2069 18.8644 28.925 18.8295 28.8193C18.7595 28.5726 18.6546 28.2907 18.3048 27.9383C18.095 27.7269 17.8502 27.5859 17.7103 27.5154C17.7452 27.445 17.7452 27.3745 17.7802 27.304V27.2688C17.7802 27.2688 17.8502 26.4583 17.9551 25.9649C18.1999 24.344 18.1999 24.3087 18.2349 24.2735C18.2349 24.1325 18.1999 23.9916 18.095 23.8859C17.9551 23.7449 17.7802 23.6744 17.5704 23.6744C17.2906 23.6744 17.0108 23.8154 16.8709 24.0973C16.766 24.2382 16.696 24.4497 16.661 24.5906C16.3812 24.062 16.0315 23.3573 15.7867 22.8639C15.7867 22.8639 15.7867 22.8639 15.7867 22.8287C15.6818 22.6877 15.5069 22.5115 15.2271 22.5115C15.1571 22.5115 15.0522 22.5115 14.9823 22.5468C14.8424 22.4411 14.7025 22.3706 14.5276 22.3706C14.4576 22.3706 14.3527 22.3706 14.2828 22.4058C14.003 22.5115 13.8281 22.7582 13.8281 23.0754C13.6183 23.1458 13.4434 23.322 13.4084 23.5687C13.3734 23.7097 13.4084 23.8506 13.4084 23.9211V23.9563C13.4084 23.9563 13.4084 23.9916 13.3734 23.9916C13.1636 24.2735 13.0936 24.7668 13.6882 26.2821Z" fill="#1D1D1B"/>
<path d="M34.0784 37.4174H33.5188C33.6937 37.206 33.8685 36.9593 33.9735 36.6774C34.0084 36.924 34.0784 37.1707 34.0784 37.4174Z" fill="white"/>
<path d="M24.7405 31.2506C24.7405 31.2506 24.9504 31.2506 25.0903 31.3211C25.3001 31.3916 25.7198 31.8145 25.9297 31.8497C25.9647 31.8497 26.0696 31.8145 25.9647 31.744C25.9297 31.7087 25.6849 31.4973 25.7548 31.3564C25.7898 31.3211 25.8248 31.2859 25.8947 31.3211C26.2095 31.3916 26.4893 31.4621 26.5942 31.4621C26.6641 31.4621 26.6991 31.4621 26.7341 31.4621C26.7691 31.4268 26.7341 31.4268 26.6641 31.3916C26.1745 31.2506 25.6149 31.0392 25.1952 30.7221C24.6706 30.2992 24.3908 29.6649 24.4608 29.0306C24.5307 28.5725 24.7755 28.1496 25.1602 27.8677C25.3001 27.762 25.545 27.6563 25.6149 27.6563C25.7898 27.5858 25.51 27.5506 25.475 27.5506C25.4051 27.5506 25.4051 27.4449 25.44 27.1982C25.7898 26.0705 26.5592 25.5772 27.2237 25.3305C27.3287 25.2953 27.5035 25.2601 27.6434 25.2248C27.8183 25.1896 27.7484 25.1191 27.5385 25.0839C27.5385 25.0839 27.4686 25.0839 27.5035 25.0486C27.5035 25.0486 27.5385 25.0134 27.6085 24.9429C27.7484 24.8372 27.9582 24.7667 28.203 24.7667C28.6227 24.7667 28.9725 24.9781 29.0074 25.1896C29.0074 25.1896 29.0074 25.2248 28.9725 25.2248C28.9025 25.2248 28.8326 25.2601 28.9375 25.3305C28.9725 25.3305 29.0774 25.3658 29.2173 25.4362C29.2173 25.4362 29.2173 25.4362 29.2523 25.4362C29.567 25.5772 30.5463 26.1763 30.4764 27.8677C30.4764 27.903 30.4764 27.9734 30.4764 28.0087C30.4764 28.0439 30.4764 28.1144 30.4764 28.1496C30.3715 28.1496 30.3365 28.1849 30.4064 28.2553C30.4414 28.2906 30.5813 28.4315 30.6512 28.5725C30.8611 28.9249 30.966 29.4182 30.931 29.8763C30.8611 30.4754 30.4764 30.8278 30.1266 31.0745C29.9518 31.1802 29.567 31.3564 29.1124 31.4621C29.0074 31.4973 29.0774 31.603 29.4971 31.603C29.5321 31.603 29.602 31.603 29.637 31.6735C29.7069 31.7792 29.602 31.9554 29.3922 32.0964C29.2173 32.2021 29.3572 32.2021 29.602 32.1316C29.672 32.1316 29.8468 32.2021 29.8818 32.2021C30.2665 32.3783 31.2108 32.8716 31.9453 33.8583C32.435 34.5983 32.6448 35.1621 32.4699 35.5145C32.33 35.8669 31.8754 35.9374 31.8754 35.9374C30.1266 36.2193 27.0838 35.726 24.9854 35.0917C24.6006 34.986 24.0411 34.7745 23.5864 34.5631C24.0411 33.5412 23.8662 32.2726 23.0967 31.4268L23.0618 31.3916C23.7613 31.2859 24.3908 31.2506 24.7405 31.2506Z" fill="white"/>
<path d="M33.3093 34.3869C33.659 34.8803 33.7639 35.5146 33.659 36.1136C33.5541 36.607 33.3093 37.0651 32.9245 37.3822C32.9245 36.9594 32.8546 36.466 32.5398 36.0784C32.6447 35.9727 32.7846 35.867 32.8546 35.6908C33.0994 35.1622 32.8896 34.4574 32.295 33.5764C32.295 33.5412 32.26 33.5412 32.26 33.5412C32.6797 33.7174 33.0295 33.9993 33.3093 34.3869Z" fill="white"/>
<path d="M22.7114 31.744C23.4108 32.5545 23.5158 33.7526 22.9912 34.6336C22.3966 35.6203 21.3124 36.0784 20.2981 35.8317C20.1582 35.7965 20.0183 35.726 19.8784 35.6908C19.9833 35.6908 20.0533 35.6555 20.1582 35.6203C21.1375 35.3384 21.872 34.4222 21.9769 33.3298C22.0468 32.625 21.837 31.9554 21.4523 31.4269C21.3124 31.2507 21.1375 31.0745 20.9626 30.9688C21.6271 30.9688 22.2567 31.2507 22.7114 31.744Z" fill="white"/>
<path d="M21.1028 31.7088C21.4525 32.1317 21.5924 32.6955 21.5225 33.2945C21.4176 34.2108 20.823 34.9508 20.0186 35.1622C19.3541 35.3384 18.6895 35.1974 18.2349 34.8803C19.2142 34.8451 20.1585 34.1755 20.4732 33.1888C20.6481 32.6955 20.6131 32.1669 20.4383 31.6736C20.3683 31.4621 20.2284 31.2507 20.0885 31.0745C20.5782 31.1802 20.8929 31.3917 21.1028 31.7088Z" fill="white"/>
<path d="M19.5634 31.744C19.5984 31.5678 19.5984 31.3564 19.5984 31.1802C20.088 31.6383 20.2629 32.3783 20.0531 33.0478C19.7383 33.9993 18.759 34.5984 17.8497 34.3869C17.4649 34.3164 17.0103 34.0698 16.7305 33.6821C16.9053 33.7174 17.0802 33.7526 17.2201 33.7526C17.5349 33.7526 17.8497 33.6821 18.1644 33.5412C18.8989 33.224 19.4235 32.5545 19.5634 31.744Z" fill="white"/>
<path d="M18.8994 30.1935C19.1442 30.6164 19.2491 31.1097 19.1442 31.6383C19.0043 32.3079 18.5846 32.8717 18.025 33.1183C17.3605 33.4003 16.626 33.2945 16.0315 32.8364C15.5418 32.4841 15.262 31.9555 15.2271 31.4269C15.262 31.4621 15.332 31.4974 15.3669 31.5326C15.7167 31.7793 16.1714 31.9202 16.661 31.9202C16.9758 31.9202 17.2206 31.8498 17.2556 31.8498C18.095 31.6031 18.5147 31.1097 18.7245 30.7221C18.7945 30.5459 18.8644 30.3697 18.8994 30.1935Z" fill="white"/>
<path d="M13.7229 24.2733C13.7579 24.238 13.7929 24.238 13.7929 24.238C13.7929 24.238 13.7929 24.238 13.8279 24.238C13.8628 24.238 13.8628 24.238 13.8978 24.238H13.9328C14.0727 24.2733 14.1776 24.4495 14.1776 24.6962C14.2825 25.3657 14.5973 25.8238 14.5973 25.8238C14.6323 25.859 14.6323 25.859 14.6673 25.859C14.7022 25.859 14.7022 25.859 14.7372 25.8238C14.7722 25.7886 14.8072 25.7181 14.7722 25.6828C14.7722 25.6828 14.4574 25.26 14.3875 24.6257C14.3525 24.3085 14.2126 24.0971 14.0027 24.0266C13.9678 23.9914 13.8978 23.9914 13.8628 23.9914C13.8279 23.9209 13.8279 23.8504 13.7929 23.8504C13.7579 23.7799 13.7229 23.6037 13.9328 23.5333H13.9678C13.9678 23.5333 13.9678 23.5333 14.0027 23.5333C14.1426 23.5333 14.3175 23.5685 14.4924 24.238C14.6673 24.8371 15.052 25.4362 15.052 25.4362C15.087 25.4714 15.087 25.4714 15.1219 25.4714C15.1569 25.4714 15.1569 25.4714 15.1919 25.4714C15.2269 25.4362 15.2618 25.3657 15.2269 25.3305C15.2269 25.3305 14.8421 24.7666 14.7022 24.1676C14.6323 23.8857 14.5274 23.5685 14.3175 23.4276C14.2825 23.3571 14.2476 23.2866 14.2476 23.2514C14.2126 23.1456 14.1776 22.9342 14.3525 22.8637C14.3875 22.8637 14.4224 22.8285 14.4574 22.8285C14.5973 22.8285 14.6673 22.9694 14.7022 23.0399C14.7022 23.0399 14.7022 23.0752 14.7372 23.0752L15.5416 25.0485C15.5416 25.0485 15.5416 25.0838 15.5766 25.0838C15.6116 25.119 15.6466 25.119 15.6815 25.0838C15.7165 25.0485 15.7515 25.0133 15.7165 24.9781L14.9121 23.0399C14.9121 23.0047 14.9471 22.9694 15.017 22.9342C15.052 22.899 15.1219 22.899 15.1569 22.899C15.2618 22.899 15.3318 23.0047 15.3318 23.0047C15.3318 23.0047 16.381 25.119 16.5909 25.4714C16.5209 25.6124 16.451 25.7533 16.451 25.7886C16.451 25.859 16.4859 25.8943 16.4859 25.8238C16.5559 25.7181 16.6258 25.6476 16.6958 25.5419C16.7308 25.4362 16.9056 25.0485 16.9756 24.9076C17.0106 24.7314 17.1155 24.4495 17.2204 24.2733C17.3253 24.1323 17.4303 24.0619 17.5352 24.0619C17.6401 24.0619 17.745 24.1323 17.745 24.2028C17.745 24.238 17.5002 25.859 17.5002 25.859C17.4303 26.2114 17.3603 26.6695 17.3253 26.9514C17.3253 27.0219 17.3253 27.0924 17.2904 27.1629V27.1981C17.2904 27.1981 17.2904 27.1981 17.2904 27.2333C17.2204 27.48 17.1505 27.6562 17.1505 27.6562L17.2204 28.0438C17.2554 28.22 17.2904 28.3962 17.2904 28.4315C17.3603 28.6429 17.2904 28.7838 17.3253 28.8191C17.3953 28.8896 17.5002 28.5724 17.5352 28.4315C17.5702 28.3257 17.5002 28.0791 17.4652 27.9029C17.5702 27.9734 17.745 28.0438 17.9199 28.22C18.1997 28.5019 18.2696 28.7134 18.3396 28.8896C18.4095 29.0658 18.4795 29.4534 18.4795 29.6648C18.4795 29.8763 18.4095 30.9687 17.1155 31.3563C17.1155 31.3563 16.9056 31.4268 16.6258 31.4268C16.346 31.4268 15.9613 31.3563 15.6116 31.1096C14.982 30.6515 14.7372 29.6648 14.8771 29.1715C14.9471 28.9248 15.052 28.7134 15.1219 28.6077C15.1919 28.6429 15.2269 28.6781 15.2968 28.6781L15.3318 28.8543C15.3318 28.8896 15.4367 29.3829 15.6116 29.5239C15.7165 29.6296 15.9263 29.6296 15.9613 29.6296C16.0313 29.6296 16.1712 29.6296 16.1712 29.5591C16.1712 29.5591 16.1712 29.5239 16.1712 29.4886C16.1712 29.4886 16.1362 29.4534 16.1012 29.4534C15.9963 29.4181 15.8214 29.3124 15.7864 29.1362C15.7515 29.0305 15.6815 28.7134 15.6466 28.5019C15.8564 28.361 15.8564 28.1848 15.6116 28.22C15.4717 28.2553 15.3318 28.1848 15.2269 28.0791C14.7372 27.621 14.1776 26.2467 14.0727 26.0352C13.653 25.0133 13.5831 24.4142 13.7229 24.2733Z" fill="white"/>
<path d="M20.5432 36.325C20.6482 36.325 20.7181 36.325 20.823 36.325C21.7673 36.325 22.6767 35.8316 23.2713 34.9507C23.7609 35.1621 24.3555 35.3735 24.7752 35.5145C25.9293 35.8669 27.2584 36.1488 28.4825 36.2897C29.2519 36.3955 29.9864 36.4307 30.6159 36.4307C31.0706 36.4307 31.4903 36.3955 31.875 36.3602C31.91 36.3602 31.9799 36.325 32.1198 36.2897C32.3996 36.6069 32.4696 37.0298 32.4346 37.3822H20.7181C20.6132 37.206 20.5083 36.8536 20.5432 36.325Z" fill="white"/>
<path d="M27.0133 28.3609C27.0833 28.4314 27.1183 28.4667 27.2232 28.5019C27.2931 28.5371 27.3631 28.5371 27.433 28.5371C27.433 28.5371 27.538 28.5371 27.6079 28.5371C27.8877 28.5371 28.1675 28.079 28.1675 27.6562C28.1675 27.2685 28.1325 26.9514 27.8527 26.7752C27.8177 26.74 27.7828 26.74 27.7478 26.74C27.6429 26.7047 27.468 26.7047 27.3631 26.7047C27.2232 26.74 27.1183 26.8457 27.0133 26.9866C26.9434 27.1276 26.8734 27.2685 26.8385 27.4095C26.8035 27.5505 26.8035 27.7267 26.8035 27.8676C26.8734 28.0438 26.9084 28.22 27.0133 28.3609ZM26.9784 27.6562C26.9784 27.48 27.1183 26.8809 27.5729 26.9162C27.9227 26.9514 28.0276 27.2333 28.0626 27.4447V27.48C28.0975 27.6914 28.0276 27.8676 27.9926 28.0086C27.9576 28.079 27.9576 28.1143 27.9227 28.1848C27.8527 28.3257 27.7478 28.3962 27.6429 28.3962C27.6429 28.3962 27.6429 28.3962 27.6079 28.3962C27.7828 28.3257 27.8877 28.1143 27.9227 27.8324C27.9576 27.48 27.7828 27.1981 27.5729 27.1628C27.468 27.1628 27.3631 27.1981 27.2582 27.3038C27.3281 27.3038 27.3981 27.3743 27.433 27.5152C27.433 27.6209 27.3631 27.7267 27.2931 27.7267C27.2232 27.7267 27.1532 27.6562 27.1532 27.5857C27.1532 27.6562 27.1183 27.6914 27.1183 27.7619C27.0833 27.9733 27.1532 28.1848 27.2582 28.2905L27.2232 28.2552C27.1532 28.1495 27.0833 28.0438 27.0833 27.8676C26.9784 27.7971 26.9784 27.7267 26.9784 27.6562ZM29.6714 29.3476C29.6364 29.3476 29.6015 29.3829 29.6364 29.4181C29.6364 29.4181 29.6364 29.4181 29.6714 29.4534C29.6364 29.4534 29.6364 29.4886 29.6364 29.4886C29.5315 29.5238 29.3916 29.5943 29.2867 29.5943C28.9719 29.6295 28.6571 29.6295 28.3773 29.6295C27.8877 29.5943 27.3981 29.4886 26.9434 29.2772C26.9084 29.2772 26.8734 29.2419 26.8385 29.2067C26.8035 29.2067 26.8035 29.1714 26.7685 29.1714C26.6986 29.1362 26.6286 29.2067 26.6286 29.2772C26.6286 29.3124 26.6636 29.3476 26.6986 29.3829C26.8035 29.4534 26.9434 29.4886 27.0833 29.5591C27.1882 29.5943 27.2931 29.7 27.3631 29.8057C27.468 29.9115 27.5729 30.0172 27.7128 30.0876C27.9576 30.2286 28.2724 30.2638 28.5522 30.2286C28.6921 30.1934 28.832 30.1581 28.9719 30.0876C29.0768 30.0172 29.1468 29.9467 29.2167 29.9115C29.2517 29.8762 29.3217 29.841 29.3566 29.8057C29.3916 29.7705 29.6015 29.7 29.7413 29.6295C29.7413 29.6648 29.7413 29.7 29.7763 29.7C29.8113 29.7 29.8463 29.6648 29.8463 29.5943C29.8463 29.5591 29.8463 29.4886 29.8463 29.4534C29.7763 29.4181 29.7414 29.3476 29.6714 29.3476ZM28.6571 29.9819C28.5172 30.0172 28.3773 30.0172 28.2724 30.0172C28.1325 30.0172 27.9926 29.9819 27.8877 29.9115C27.7478 29.841 27.6429 29.7705 27.538 29.6648C28.0276 29.7705 28.5172 29.841 29.0069 29.8057C28.867 29.8762 28.7621 29.9467 28.6571 29.9819ZM26.8035 29.0305C26.8035 28.9952 26.7335 28.9952 26.7335 28.9952C26.6986 28.9952 26.6286 28.9952 26.5936 29.0305C26.4887 29.0657 26.3838 29.2067 26.3838 29.3124V29.3476H26.4188C26.4537 29.3476 26.4537 29.3124 26.4537 29.3124C26.4537 29.2772 26.4537 29.2419 26.4887 29.2067C26.5237 29.1714 26.5587 29.1362 26.7335 29.101C26.7685 29.101 26.8385 29.0657 26.8035 29.0305ZM29.9862 27.3743C29.9512 27.2333 29.8812 27.0924 29.7413 27.0219C29.6364 26.9514 29.4965 26.9162 29.3916 26.9514C29.3566 26.9514 29.3217 26.9514 29.2867 26.9866C28.9719 27.0924 28.867 27.3743 28.7621 27.7619C28.6571 28.1848 28.797 28.6781 29.0768 28.7486C29.1468 28.7838 29.2517 28.7838 29.2517 28.7838C29.3217 28.7838 29.3916 28.8191 29.4616 28.7838C29.5315 28.7838 29.6015 28.7486 29.6714 28.7133C29.8113 28.6076 29.8812 28.4667 29.9512 28.3257C30.0211 28.1848 30.0561 28.0438 30.0561 27.8676C30.0211 27.6914 30.0211 27.5505 29.9862 27.3743ZM29.8463 28.0438C29.8463 28.1143 29.8113 28.1848 29.7763 28.2552C29.7064 28.3962 29.6364 28.5371 29.5315 28.6076C29.4965 28.6429 29.4616 28.6429 29.3916 28.6781C29.5315 28.5724 29.6714 28.3962 29.6714 28.1143C29.7064 27.7619 29.5315 27.48 29.3217 27.4447C29.2167 27.4447 29.1118 27.48 29.0419 27.5857C29.1118 27.5857 29.1818 27.6562 29.1818 27.7619C29.1818 27.8676 29.1118 27.9733 29.0419 27.9733C28.9719 27.9733 28.902 27.9381 28.902 27.8324C28.902 27.9028 28.867 27.9381 28.867 28.0086C28.832 28.2552 28.902 28.4667 29.0069 28.5724C28.9369 28.5371 28.867 28.4314 28.832 28.2905C28.832 28.22 28.797 28.1848 28.797 28.1143C28.797 27.9733 28.797 27.7971 28.867 27.5857V27.5505C28.9369 27.339 29.1118 27.0924 29.4616 27.1628C29.9512 27.2685 29.8812 27.8676 29.8463 28.0438Z" fill="#1D1D1B"/>
<path d="M14.7021 45.6635L15.9612 42.1396H18.4095C18.8291 42.1396 19.1439 42.2453 19.3188 42.4568C19.4937 42.6682 19.5286 42.9149 19.4237 43.1968C19.3538 43.4082 19.2139 43.5844 19.039 43.6901C18.8641 43.7958 18.6543 43.8663 18.4095 43.9015C18.6543 43.9368 18.8291 44.0425 18.9341 44.2539C19.039 44.4654 19.039 44.6768 18.9341 44.9235C18.8291 45.1701 18.6892 45.3816 18.4444 45.4873C18.1996 45.593 17.8848 45.6635 17.4302 45.6635H14.7021ZM17.3602 44.2539H16.5908L16.346 44.8882H17.1853C17.3602 44.8882 17.4651 44.853 17.5351 44.8178C17.605 44.7825 17.675 44.712 17.71 44.6063C17.8149 44.3596 17.675 44.2539 17.3602 44.2539ZM17.71 42.9853H17.0454L16.8356 43.5844H17.4651C17.64 43.5844 17.7449 43.5492 17.8499 43.5139C17.9198 43.4787 17.9898 43.4082 18.0247 43.3025C18.0947 43.0911 17.9898 42.9853 17.71 42.9853Z" fill="black"/>
<path d="M19.3181 45.6635L20.5772 42.1396H23.9348L23.655 42.9501H21.6614L21.4516 43.4787H23.2353L22.9205 44.2892H21.1368L20.9269 44.853H22.9205L22.6407 45.6635H19.3181Z" fill="black"/>
<path d="M23.3401 45.6635L24.5992 42.1396H27.9218L27.642 42.9501H25.6834L25.4735 43.5139H26.3829C26.9425 43.5139 27.3272 43.6196 27.5021 43.8663C27.6769 44.113 27.7469 44.4301 27.607 44.7825C27.5021 45.0644 27.3272 45.2759 27.0474 45.4168C26.7676 45.5578 26.4178 45.6282 25.9982 45.6282H23.3401V45.6635ZM25.9632 44.2539H25.1937L24.9839 44.853H25.7883C25.9632 44.853 26.1031 44.8178 26.173 44.7825C26.243 44.7473 26.3129 44.6768 26.3479 44.5711C26.3829 44.4654 26.3829 44.3596 26.3129 44.3244C26.243 44.2892 26.1031 44.2539 25.9632 44.2539Z" fill="black"/>
<path d="M28.0273 44.3597L28.3421 43.4787H30.0209L29.7061 44.3597H28.0273Z" fill="black"/>
<path d="M34.2524 43.1968C33.9376 43.0558 33.5529 42.9853 33.1682 42.9853C32.8184 42.9853 32.5386 43.0558 32.2938 43.1968C32.049 43.3377 31.9091 43.5844 31.7692 43.9368C31.6643 44.2892 31.6643 44.5006 31.8041 44.6768C31.944 44.853 32.2238 44.9235 32.6435 44.9235C33.0283 44.9235 33.413 44.8882 33.7277 44.7825L33.413 45.6987C33.0982 45.7692 32.7135 45.8044 32.2588 45.8044C31.4544 45.8044 30.8948 45.6282 30.58 45.2406C30.2653 44.853 30.2303 44.3596 30.4751 43.6901C30.58 43.4082 30.7199 43.1263 30.8948 42.9501C31.0697 42.7387 31.2795 42.5625 31.4894 42.4568C31.7342 42.351 31.979 42.2453 32.2238 42.2101C32.4687 42.1748 32.7834 42.1396 33.0982 42.1396C33.6228 42.1396 34.0775 42.2101 34.5322 42.3863L34.2524 43.1968Z" fill="black"/>
<path d="M37.0503 45.6635V45.0644H35.6163L35.1967 45.6635H33.7627L35.9311 42.5977C36.036 42.4215 36.141 42.3158 36.2809 42.2453C36.3858 42.1748 36.5607 42.1396 36.7355 42.1396H38.3094V45.6635H37.0503ZM37.0853 44.2187L37.1203 42.7739L36.1759 44.2187H37.0853Z" fill="black"/>
<path d="M41.6671 45.6633L42.4016 43.6194L40.443 45.6633H38.7292L39.9883 42.1394H41.3523L40.5829 44.2537L42.1218 42.668C42.2967 42.4566 42.4715 42.3508 42.5764 42.2451C42.7163 42.1747 42.8562 42.1394 43.0311 42.1394H44.2552L42.9961 45.6633H41.6671ZM42.2267 41.1175C42.1917 41.2584 42.1568 41.3642 42.1917 41.3994C42.2267 41.4346 42.2617 41.4699 42.3666 41.4699C42.5415 41.4699 42.6814 41.3289 42.7513 41.0822H43.6607C43.5557 41.3994 43.3809 41.6108 43.171 41.7518C42.9612 41.8575 42.6814 41.928 42.2967 41.928C41.9119 41.928 41.6321 41.8575 41.4573 41.7165C41.3174 41.5756 41.2824 41.3642 41.3523 41.0822H42.2267V41.1175Z" fill="black"/>
<path d="M48.0324 43.0557H46.9831L46.0388 45.6986H44.6748L45.6191 43.0557H44.5349L44.8497 42.1747H48.3471L48.0324 43.0557Z" fill="black"/>
<path d="M51.39 45.769C51.0402 45.769 50.7255 45.7338 50.4457 45.6633C50.1659 45.5929 49.956 45.4871 49.8161 45.3814C49.6762 45.2405 49.5713 45.0995 49.5013 44.9233C49.4314 44.7471 49.4314 44.5357 49.4314 44.3595C49.4664 44.1481 49.5013 43.9366 49.6063 43.6547C49.8161 43.0909 50.1309 42.668 50.5156 42.4214C50.9003 42.1747 51.4249 42.069 52.0895 42.069C52.4392 42.069 52.754 42.1042 53.0338 42.1747C53.3136 42.2452 53.4884 42.3509 53.6633 42.4566C53.8382 42.5623 53.9081 42.7385 53.9781 42.9147C54.048 43.0909 54.083 43.2671 54.048 43.4785C54.0131 43.69 53.9781 43.9014 53.8732 44.1481C53.6633 44.7471 53.3835 45.1347 52.9638 45.3814C52.5791 45.6633 52.0545 45.769 51.39 45.769ZM51.4599 44.8881C51.7397 44.8881 51.9496 44.8176 52.1244 44.7119C52.2993 44.5709 52.4392 44.3595 52.5441 44.0071C52.684 43.6547 52.684 43.408 52.6141 43.2319C52.5092 43.0557 52.2993 42.9499 51.9845 42.9499C51.7047 42.9499 51.4949 43.0204 51.32 43.1261C51.1452 43.2671 51.0053 43.4785 50.9003 43.8309C50.7604 44.1833 50.7604 44.43 50.8304 44.6414C50.9003 44.8176 51.1452 44.8881 51.4599 44.8881Z" fill="black"/>
<path d="M57.1259 46.7558L57.5106 45.6634H54.8875L54.5028 46.7558H53.2087L53.9432 44.7824H54.4329C54.6427 44.6414 54.8525 44.3595 55.0624 43.9719L55.7969 42.6681C55.9717 42.3509 56.2515 42.1747 56.6712 42.1747H59.5042L58.5599 44.8176H59.1894L58.4549 46.791H57.1259V46.7558ZM56.2515 44.2186C56.1116 44.5005 55.9717 44.6767 55.7969 44.8176H57.1259L57.7554 43.0557H56.8811L56.2515 44.2186Z" fill="black"/>
<path d="M61.4974 45.769C61.1476 45.769 60.8329 45.7338 60.5531 45.6633C60.2733 45.5929 60.0634 45.4871 59.9235 45.3814C59.7836 45.2405 59.6787 45.0995 59.6088 44.9233C59.5388 44.7471 59.5388 44.5357 59.5388 44.3595C59.5738 44.1481 59.6088 43.9366 59.7137 43.6547C59.9235 43.0909 60.2383 42.668 60.623 42.4214C61.0077 42.1747 61.5324 42.069 62.1969 42.069C62.5466 42.069 62.8614 42.1042 63.1412 42.1747C63.421 42.2452 63.5959 42.3509 63.7707 42.4566C63.9456 42.5623 64.0156 42.7385 64.0855 42.9147C64.1555 43.0909 64.1904 43.2671 64.1555 43.4785C64.1205 43.69 64.0855 43.9014 63.9806 44.1481C63.7707 44.7471 63.4909 45.1347 63.0712 45.3814C62.6865 45.6633 62.1619 45.769 61.4974 45.769ZM61.5673 44.8881C61.8471 44.8881 62.057 44.8176 62.2319 44.7119C62.4067 44.5709 62.5466 44.3595 62.6516 44.0071C62.7914 43.6547 62.7914 43.408 62.7215 43.2319C62.6166 43.0557 62.4067 42.9499 62.092 42.9499C61.8122 42.9499 61.6023 43.0204 61.4274 43.1261C61.2526 43.2671 61.1127 43.4785 61.0077 43.8309C60.8679 44.1833 60.8679 44.43 60.9378 44.6414C61.0077 44.8176 61.2526 44.8881 61.5673 44.8881Z" fill="black"/>
<path d="M64.0156 45.6635L65.2747 42.1396H68.5973L68.3175 42.9501H66.3589L66.1491 43.5139H67.0584C67.618 43.5139 68.0027 43.6196 68.1776 43.8663C68.3525 44.113 68.4224 44.4301 68.2825 44.7825C68.1776 45.0644 68.0027 45.2759 67.7229 45.4168C67.4431 45.5578 67.0934 45.6282 66.6737 45.6282H64.0156V45.6635ZM66.6387 44.2539H65.8693L65.6594 44.853H66.4639C66.6387 44.853 66.7786 44.8178 66.8486 44.7825C66.9185 44.7473 66.9885 44.6768 67.0234 44.5711C67.0584 44.4654 67.0584 44.3596 66.9885 44.3244C66.9185 44.2892 66.7786 44.2539 66.6387 44.2539Z" fill="black"/>
<path d="M71.0459 44.853H70.2415L69.9617 45.6635H68.5977L69.8567 42.1396H71.6055C71.9202 42.1396 72.1651 42.1748 72.3749 42.2101C72.5847 42.2806 72.7596 42.351 72.8995 42.4215C73.0394 42.5272 73.1094 42.6329 73.1793 42.7739C73.2493 42.9149 73.2493 43.0558 73.2493 43.1968C73.2493 43.3377 73.2143 43.5139 73.1443 43.7254C73.0744 43.9368 72.9695 44.113 72.8296 44.2892C72.6897 44.4301 72.5498 44.5358 72.3749 44.6416C72.2 44.712 71.9902 44.7825 71.8153 44.8178C71.6404 44.853 71.3257 44.853 71.0459 44.853ZM71.2907 42.9853H70.906L70.5213 44.0777H70.871C71.1508 44.0777 71.3606 44.0425 71.4656 43.972C71.5705 43.9015 71.6754 43.7606 71.7454 43.5844C71.8153 43.373 71.8153 43.232 71.7803 43.1263C71.7104 43.0206 71.5705 42.9853 71.2907 42.9853Z" fill="black"/>
<path d="M72.8994 45.6635L74.1585 42.1396H77.5161L77.2363 42.9501H75.2427L75.0329 43.4787H76.8166L76.5018 44.2892H74.7181L74.5082 44.853H76.5018L76.222 45.6635H72.8994Z" fill="black"/>
<path d="M79.4745 45.6635L79.9642 44.3597H78.775L78.2854 45.6635H76.9214L78.1805 42.1396H79.5445L79.0548 43.4434H80.244L80.7336 42.1396H82.0976L80.8385 45.6635H79.4745Z" fill="black"/>
</g>
<defs>
<filter id="filter0_d_1957_2954" x="0" y="0.143402" width="121" height="76.8566" filterUnits="userSpaceOnUse" color-interpolation-filters="sRGB">
<feFlood flood-opacity="0" result="BackgroundImageFix"/>
<feColorMatrix in="SourceAlpha" type="matrix" values="0 0 0 0 0 0 0 0 0 0 0 0 0 0 0 0 0 0 127 0" result="hardAlpha"/>
<feOffset dy="2"/>
<feGaussianBlur stdDeviation="2"/>
<feComposite in2="hardAlpha" operator="out"/>
<feColorMatrix type="matrix" values="0 0 0 0 0 0 0 0 0 0 0 0 0 0 0 0 0 0 0.25 0"/>
<feBlend mode="normal" in2="BackgroundImageFix" result="effect1_dropShadow_1957_2954"/>
<feBlend mode="normal" in="SourceGraphic" in2="effect1_dropShadow_1957_2954" result="shape"/>
</filter>
</defs>
</svg>
