<svg width="20" height="20" viewBox="0 0 20 20" fill="none" xmlns="http://www.w3.org/2000/svg">
<path d="M19.1331 10.1464C19.029 10.3744 18.8406 10.4934 18.6224 10.5925C17.8291 10.9494 17.0408 11.3162 16.2524 11.6781C16.1929 11.7029 16.1334 11.7277 16.0938 11.7475C16.1532 11.1626 16.2574 10.5826 16.2574 10.0027C16.2574 9.42269 16.1532 8.84273 16.0938 8.25781C16.2276 8.3173 16.3813 8.38669 16.54 8.45609C17.2688 8.78821 17.9977 9.13023 18.7266 9.45739C18.9199 9.54166 19.0439 9.68045 19.1381 9.8589C19.1331 9.94813 19.1331 10.0473 19.1331 10.1464Z" fill="#F29100"/>
<path d="M9.48418 19.5001C9.26601 19.401 9.14206 19.2176 9.04785 19.0044C8.69086 18.2064 8.31899 17.4083 7.95704 16.6102C7.93224 16.5557 7.90745 16.4962 7.89258 16.4565C8.47269 16.516 9.05281 16.6251 9.62796 16.6251C10.2081 16.6251 10.7882 16.521 11.3782 16.4615C11.3634 16.4962 11.3435 16.5557 11.3138 16.6102C10.9469 17.4083 10.5799 18.2014 10.223 19.0044C10.1238 19.2225 10.0048 19.401 9.78663 19.5001C9.6825 19.5001 9.58334 19.5001 9.48418 19.5001Z" fill="#F29100"/>
<path d="M9.62313 15.5297C6.57381 15.5247 4.08972 13.0314 4.09964 9.98284C4.10956 6.93927 6.5986 4.46575 9.638 4.47071C12.6873 4.47567 15.1714 6.96901 15.1615 10.0175C15.1516 13.0561 12.6675 15.5297 9.62313 15.5297Z" fill="#F29100"/>
<path d="M3.85131 6.73609C3.64306 6.17596 3.44473 5.64556 3.2464 5.11021C3.10261 4.72357 2.95882 4.32701 2.81007 3.93542C2.72083 3.69748 2.72578 3.47442 2.9142 3.2811C3.10261 3.09273 3.32573 3.08778 3.56373 3.177C4.45126 3.50912 5.34374 3.83628 6.23623 4.16839C6.27094 4.18326 6.30069 4.19813 6.36018 4.22292C5.30408 4.84254 4.47109 5.66539 3.85131 6.73609Z" fill="#F29100"/>
<path d="M3.85606 13.2693C4.47088 14.3251 5.29395 15.1529 6.35501 15.7676C6.29551 15.7973 6.26081 15.8172 6.21618 15.832C5.33857 16.1592 4.46096 16.4864 3.58335 16.8135C3.3404 16.9027 3.10736 16.9077 2.91399 16.7144C2.71566 16.5211 2.72558 16.2881 2.81483 16.0452C3.13711 15.1777 3.4594 14.3102 3.78168 13.4428C3.80152 13.3932 3.82631 13.3436 3.85606 13.2693Z" fill="#F29100"/>
<path d="M15.4044 6.73113C14.7896 5.67034 13.9616 4.84253 12.8906 4.22291C13.2675 4.08412 13.6195 3.95028 13.9715 3.8214C14.5368 3.60825 15.107 3.40006 15.6722 3.18691C15.9151 3.09273 16.1482 3.08777 16.3416 3.28109C16.5399 3.47441 16.5349 3.70739 16.4407 3.95028C16.1184 4.81774 15.7961 5.68521 15.4739 6.55268C15.459 6.60721 15.4392 6.65677 15.4044 6.73113Z" fill="#F29100"/>
<path d="M15.4092 13.2594C15.6521 13.9187 15.8852 14.5433 16.1182 15.1678C16.2322 15.4752 16.3463 15.7825 16.4603 16.0898C16.5446 16.3228 16.5248 16.5459 16.3413 16.7243C16.1628 16.8978 15.9496 16.9127 15.7215 16.8284C14.8191 16.4913 13.9168 16.1592 13.0144 15.8221C12.9846 15.8122 12.9598 15.7974 12.9053 15.7726C13.9564 15.1579 14.7844 14.3351 15.4092 13.2594Z" fill="#F29100"/>
<path d="M11.4033 3.5982C10.2133 3.28591 9.05807 3.28591 7.87305 3.5982C7.9028 3.51889 7.91271 3.46932 7.9375 3.41975C8.31929 2.58202 8.70603 1.74925 9.08782 0.91153C9.1969 0.66864 9.36052 0.495147 9.64314 0.500104C9.9208 0.505061 10.0745 0.673597 10.1836 0.91153C10.5604 1.7443 10.9422 2.57211 11.324 3.40488C11.3438 3.45445 11.3637 3.50401 11.4033 3.5982Z" fill="#F29100"/>
<path d="M3.23667 11.7773C2.71606 11.5393 2.24503 11.3262 1.77895 11.1081C1.36246 10.9197 0.950923 10.7264 0.53443 10.538C0.296435 10.429 0.132812 10.2654 0.132812 9.99275C0.132812 9.72508 0.291476 9.56645 0.524514 9.46236C1.34262 9.09059 2.16074 8.71386 2.9838 8.33713C3.04826 8.30739 3.11768 8.27764 3.23172 8.23303C2.92431 9.41279 2.91439 10.5727 3.23667 11.7773Z" fill="#F29100"/>
</svg>
