<svg width="17" height="20" viewBox="0 0 17 20" fill="none" xmlns="http://www.w3.org/2000/svg">
<path d="M8.48685 0.840378C8.10746 0.984129 7.96695 1.26667 7.981 1.68801C7.99974 2.29276 7.98568 2.89751 7.98568 3.532C7.92948 3.4973 7.89201 3.47747 7.85454 3.45269C7.4002 3.09579 6.95055 2.73393 6.49154 2.37703C6.15898 2.11431 5.76554 2.15893 5.5454 2.47121C5.32058 2.78846 5.39083 3.19493 5.72339 3.45765C6.43533 4.0277 7.15196 4.59279 7.8639 5.16284C7.92011 5.20745 7.97632 5.29668 7.97632 5.36607C7.981 6.58548 7.981 7.79993 7.981 9.01934C7.981 9.04413 7.97632 9.06891 7.97163 9.11353C7.91074 9.07883 7.8639 9.059 7.81707 9.02926C6.8803 8.43442 5.94821 7.83463 5.00676 7.24971C4.87093 7.16545 4.81941 7.06631 4.80535 6.90273C4.72105 5.96586 4.63205 5.03396 4.53369 4.10205C4.49154 3.71045 4.19645 3.45269 3.84985 3.48243C3.48919 3.51713 3.23627 3.8195 3.26437 4.22102C3.30652 4.7762 3.36741 5.32642 3.41894 5.8816C3.4283 5.99065 3.43767 6.0997 3.45172 6.25337C3.3721 6.20875 3.32058 6.17901 3.26905 6.14927C2.77725 5.83698 2.29013 5.5247 1.79833 5.21736C1.55945 5.06866 1.31589 5.07857 1.09107 5.25206C0.870927 5.4206 0.791302 5.65853 0.842824 5.93612C0.880295 6.14927 1.00676 6.29798 1.18006 6.40703C1.65781 6.70445 2.13088 7.00682 2.60863 7.3092C2.66484 7.34389 2.71636 7.38355 2.7913 7.43312C2.36039 7.62148 1.95289 7.79498 1.5454 7.97343C1.39083 8.04283 1.23158 8.10727 1.07702 8.17666C0.702309 8.34024 0.538374 8.71201 0.674206 9.07387C0.814721 9.44564 1.18006 9.59435 1.56414 9.42581C2.39318 9.07387 3.21753 8.71201 4.04657 8.36503C4.11215 8.34024 4.21051 8.33529 4.26671 8.36998C5.27374 9.00447 6.28077 9.64392 7.28779 10.2834C7.31121 10.2982 7.32995 10.3181 7.36742 10.3478C7.30653 10.3875 7.25969 10.4222 7.21285 10.4569C6.25266 11.0666 5.28779 11.6763 4.33229 12.2909C4.21519 12.3653 4.12151 12.3702 3.99505 12.3157C3.18474 11.9638 2.37912 11.6069 1.56414 11.2748C1.41894 11.2153 1.24095 11.2004 1.09107 11.2301C0.828772 11.2847 0.650786 11.5424 0.636735 11.82C0.617999 12.1274 0.758515 12.3802 1.03018 12.4991C1.55477 12.7271 2.07936 12.9502 2.60395 13.1733C2.66015 13.1981 2.71636 13.2278 2.80067 13.2625C2.60395 13.3864 2.43065 13.5004 2.25734 13.6144C1.89669 13.8425 1.53603 14.0705 1.17538 14.3035C0.842824 14.5166 0.739779 14.9132 0.922449 15.2453C1.1098 15.5823 1.49388 15.6815 1.8358 15.4634C2.31355 15.166 2.78662 14.8586 3.25969 14.5563C3.31121 14.5216 3.36741 14.4918 3.45641 14.4373C3.41894 14.814 3.39083 15.161 3.35805 15.508C3.32994 15.8153 3.29247 16.1227 3.26905 16.43C3.24095 16.8464 3.47983 17.1537 3.84517 17.1934C4.19645 17.233 4.49154 16.9753 4.53838 16.5688C4.63674 15.6468 4.72573 14.7248 4.80535 13.8028C4.81941 13.6244 4.87561 13.5203 5.02549 13.4261C5.96226 12.8412 6.88966 12.2463 7.82175 11.6564C7.8639 11.6267 7.91074 11.6069 7.97632 11.5672C7.981 11.6465 7.98568 11.706 7.98568 11.7605C7.98568 12.9304 7.98568 14.1002 7.99037 15.2651C7.99037 15.389 7.9529 15.4683 7.85922 15.5427C7.14728 16.1028 6.44002 16.6679 5.72807 17.233C5.52667 17.3916 5.40957 17.5949 5.42831 17.8625C5.44704 18.1253 5.5735 18.3186 5.79833 18.4276C6.02784 18.5367 6.25735 18.5119 6.45875 18.3483C6.91308 17.9914 7.36742 17.6296 7.81707 17.2727C7.8639 17.238 7.91074 17.2033 7.99037 17.1438C7.99037 17.2429 7.99037 17.3074 7.99037 17.3718C7.99037 17.9815 7.98568 18.5962 7.99505 19.2059C7.99973 19.5479 8.25735 19.8156 8.57116 19.8453C8.8803 19.8751 9.16601 19.6669 9.24564 19.3496C9.26906 19.2604 9.26906 19.1662 9.26906 19.072C9.26906 18.4425 9.26906 17.813 9.26906 17.1438C9.33931 17.1934 9.39084 17.2281 9.43767 17.2677C9.89669 17.6296 10.351 17.9964 10.8147 18.3533C11.0395 18.5268 11.2831 18.5367 11.522 18.388C11.7609 18.2393 11.8592 18.0013 11.8264 17.7089C11.803 17.4908 11.6766 17.3421 11.5173 17.2132C10.8147 16.658 10.1168 16.0979 9.41426 15.5476C9.31121 15.4683 9.26437 15.3841 9.26906 15.2453C9.27374 14.0259 9.27374 12.8114 9.27374 11.5573C9.33931 11.592 9.38615 11.6168 9.43299 11.6465C10.3885 12.2513 11.344 12.861 12.3042 13.4657C12.3932 13.5203 12.4306 13.5897 12.44 13.6987C12.5243 14.6207 12.6227 15.5427 12.707 16.4647C12.7492 16.9108 12.9927 17.1834 13.3627 17.1785C13.7515 17.1735 14.0372 16.8365 13.9951 16.4151C13.9342 15.7856 13.8733 15.161 13.8124 14.5364C13.8124 14.5116 13.8124 14.4869 13.8124 14.4422C13.878 14.4819 13.9342 14.5116 13.9857 14.5414C14.4822 14.8537 14.974 15.1759 15.4751 15.4832C15.7655 15.6617 16.1121 15.5774 16.3042 15.3048C16.4915 15.0371 16.4681 14.6554 16.248 14.4224C16.1918 14.3629 16.1215 14.3134 16.0513 14.2688C15.5876 13.9713 15.1192 13.6739 14.6555 13.3815C14.5993 13.3468 14.5477 13.3071 14.4728 13.2575C14.9599 13.0493 15.4189 12.8461 15.8826 12.6478C15.981 12.6082 16.0794 12.5685 16.173 12.5239C16.5571 12.3554 16.7257 11.9836 16.5852 11.6168C16.4447 11.25 16.0794 11.1013 15.6953 11.2698C14.8803 11.6168 14.0606 11.9687 13.2503 12.3256C13.1379 12.3752 13.0536 12.3702 12.9459 12.3008C11.9904 11.6862 11.0255 11.0765 10.0653 10.4618C10.0138 10.4321 9.96695 10.3974 9.90137 10.3528C9.94821 10.3181 9.981 10.2883 10.0185 10.2635C11.0021 9.63401 11.9904 9.00943 12.974 8.3799C13.0677 8.32041 13.1379 8.32537 13.2316 8.36503C14.0559 8.72193 14.8803 9.08378 15.714 9.42581C15.8592 9.4853 16.0466 9.49521 16.2058 9.46051C16.4588 9.40599 16.6274 9.14822 16.6414 8.87559C16.6555 8.56826 16.5196 8.32041 16.248 8.19649C15.7843 7.9883 15.3206 7.79498 14.8569 7.59174C14.7398 7.54217 14.6227 7.48765 14.4775 7.42816C14.5477 7.37859 14.5993 7.34389 14.6555 7.3092C15.1473 6.99691 15.6391 6.68958 16.1262 6.37233C16.3744 6.21371 16.4775 5.94108 16.426 5.65853C16.3791 5.39086 16.173 5.15292 15.9061 5.1331C15.7468 5.12318 15.5641 5.1678 15.4283 5.24711C14.9412 5.53461 14.4634 5.85185 13.9857 6.15423C13.9388 6.18397 13.8873 6.21371 13.8124 6.25337C13.8639 5.72297 13.9107 5.22232 13.9623 4.71671C13.9763 4.58287 13.9904 4.44408 14.0044 4.31024C14.0513 3.90377 13.8171 3.55679 13.4658 3.51217C13.0817 3.4626 12.7726 3.71541 12.7257 4.14666C12.6602 4.78611 12.604 5.42556 12.5384 6.065C12.5056 6.38225 12.4775 6.70445 12.44 7.02169C12.4353 7.08118 12.3979 7.15553 12.3557 7.18527C11.358 7.82472 10.3557 8.45921 9.35336 9.0937C9.33931 9.10361 9.32058 9.10361 9.28779 9.11353C9.28311 9.04413 9.27842 8.97969 9.27842 8.91525C9.27842 7.76028 9.27842 6.60035 9.27374 5.44538C9.27374 5.30659 9.31121 5.22232 9.41894 5.13805C10.1262 4.58287 10.8335 4.02274 11.536 3.4626C11.7983 3.25441 11.8967 2.97682 11.8171 2.68932C11.6859 2.23328 11.1894 2.05483 10.81 2.34729C10.351 2.69923 9.90137 3.06605 9.44704 3.42295C9.4002 3.45765 9.35336 3.49235 9.28779 3.54192C9.28311 3.46756 9.27374 3.41799 9.27374 3.36842C9.27374 2.81324 9.25969 2.25311 9.27842 1.69793C9.29248 1.28155 9.15196 0.994041 8.78194 0.845333C8.67421 0.840376 8.58053 0.840378 8.48685 0.840378Z" fill="#1E96C8"/>
</svg>
