<svg width="179" height="33" viewBox="0 0 179 33" fill="none" xmlns="http://www.w3.org/2000/svg">
<rect x="0.892578" y="0.724609" width="177" height="31" rx="3.5" fill="white" stroke="#F0F0F0"/>
<path d="M75.3476 20.2246H74.0476V16.3506L72.6566 16.6366L70.2256 20.2246H68.7176L70.9146 17.0526L71.7726 16.4806C71.4346 16.4199 71.1226 16.3246 70.8366 16.1946C70.5506 16.0559 70.2992 15.8783 70.0826 15.6616C69.8746 15.4449 69.7099 15.1893 69.5886 14.8946C69.4759 14.5999 69.4196 14.2576 69.4196 13.8676C69.4196 13.3389 69.5192 12.8926 69.7186 12.5286C69.9179 12.1646 70.1866 11.8699 70.5246 11.6446C70.8626 11.4193 71.2612 11.2589 71.7206 11.1636C72.1799 11.0596 72.6696 11.0076 73.1896 11.0076C73.5102 11.0076 73.8612 11.0249 74.2426 11.0596C74.6326 11.0856 75.0009 11.1376 75.3476 11.2156V20.2246ZM73.1116 12.1256C72.8082 12.1256 72.5179 12.1516 72.2406 12.2036C71.9632 12.2556 71.7162 12.3466 71.4996 12.4766C71.2916 12.6066 71.1226 12.7843 70.9926 13.0096C70.8626 13.2263 70.7976 13.5079 70.7976 13.8546C70.7976 14.1753 70.8582 14.4483 70.9796 14.6736C71.1009 14.8903 71.2656 15.0679 71.4736 15.2066C71.6902 15.3366 71.9372 15.4319 72.2146 15.4926C72.5006 15.5533 72.8039 15.5836 73.1246 15.5836H74.0476V12.2036C73.9262 12.1689 73.7962 12.1473 73.6576 12.1386C73.5189 12.1299 73.3369 12.1256 73.1116 12.1256ZM82.2769 17.2476H78.8449V20.2246H77.6489V13.3996H78.8449V16.1816H82.2769V13.3996H83.4729V20.2246H82.2769V17.2476ZM92.4172 21.9406H91.5982L91.3902 20.2246H85.6442L85.4102 21.9406H84.6172V19.2106H85.4882C85.5749 19.1066 85.6832 18.9246 85.8132 18.6646C85.9519 18.4046 86.0862 18.0449 86.2162 17.5856C86.3462 17.1176 86.4589 16.5413 86.5542 15.8566C86.6582 15.1719 86.7145 14.3529 86.7232 13.3996H91.3122V19.2106H92.4172V21.9406ZM90.1162 19.2106V14.4136H87.8022C87.7762 14.8036 87.7372 15.2196 87.6852 15.6616C87.6332 16.1036 87.5595 16.5413 87.4642 16.9746C87.3775 17.3993 87.2735 17.8066 87.1522 18.1966C87.0309 18.5866 86.8879 18.9246 86.7232 19.2106H90.1162ZM99.4245 19.6656C99.1212 19.8909 98.7442 20.0729 98.2935 20.2116C97.8428 20.3416 97.3532 20.4066 96.8245 20.4066C96.2525 20.4066 95.7542 20.3243 95.3295 20.1596C94.9135 19.9863 94.5712 19.7436 94.3025 19.4316C94.0338 19.1196 93.8345 18.7426 93.7045 18.3006C93.5745 17.8586 93.5095 17.3646 93.5095 16.8186C93.5095 15.6486 93.7955 14.7559 94.3675 14.1406C94.9482 13.5166 95.7715 13.2046 96.8375 13.2046C97.1755 13.2046 97.5135 13.2436 97.8515 13.3216C98.1895 13.3909 98.4928 13.5296 98.7615 13.7376C99.0302 13.9369 99.2468 14.2143 99.4115 14.5696C99.5848 14.9249 99.6715 15.3886 99.6715 15.9606C99.6715 16.0993 99.6672 16.2596 99.6585 16.4416C99.6498 16.6236 99.6325 16.8013 99.6065 16.9746H94.7315C94.7488 17.7719 94.9395 18.3743 95.3035 18.7816C95.6675 19.1889 96.2872 19.3926 97.1625 19.3926C97.5265 19.3926 97.8732 19.3319 98.2025 19.2106C98.5318 19.0806 98.7875 18.9289 98.9695 18.7556L99.4245 19.6656ZM98.5275 16.1166C98.5448 15.4233 98.4018 14.9336 98.0985 14.6476C97.8038 14.3616 97.3878 14.2186 96.8505 14.2186C96.2438 14.2186 95.7628 14.3616 95.4075 14.6476C95.0522 14.9336 94.8442 15.4233 94.7835 16.1166H98.5275ZM103.58 17.1566H102.839V20.2246H101.643V13.3996H102.839V16.5066L103.554 16.2726L105.881 13.3996H107.194L104.971 16.0516H104.984L104.282 16.5586L105.127 17.1436L107.532 20.2246H106.024L103.58 17.1566ZM113.761 19.7566C113.457 19.9733 113.102 20.1336 112.695 20.2376C112.287 20.3503 111.858 20.4066 111.408 20.4066C110.836 20.4066 110.346 20.3199 109.939 20.1466C109.54 19.9733 109.215 19.7306 108.964 19.4186C108.712 19.1066 108.53 18.7296 108.418 18.2876C108.305 17.8456 108.249 17.3559 108.249 16.8186C108.249 15.6659 108.526 14.7776 109.081 14.1536C109.644 13.5209 110.45 13.2046 111.499 13.2046C111.958 13.2046 112.357 13.2479 112.695 13.3346C113.033 13.4126 113.336 13.5123 113.605 13.6336L113.293 14.6086C113.059 14.4873 112.803 14.3919 112.526 14.3226C112.257 14.2533 111.962 14.2186 111.642 14.2186C110.229 14.2186 109.523 15.0853 109.523 16.8186C109.523 17.1479 109.562 17.4686 109.64 17.7806C109.718 18.0839 109.843 18.3569 110.017 18.5996C110.19 18.8336 110.415 19.0243 110.693 19.1716C110.979 19.3189 111.325 19.3926 111.733 19.3926C112.097 19.3926 112.413 19.3449 112.682 19.2496C112.959 19.1456 113.189 19.0243 113.371 18.8856L113.761 19.7566ZM115.026 19.5616C115.026 19.3103 115.104 19.1109 115.26 18.9636C115.424 18.8163 115.637 18.7426 115.897 18.7426C116.157 18.7426 116.365 18.8163 116.521 18.9636C116.685 19.1109 116.768 19.3103 116.768 19.5616C116.768 19.7956 116.685 19.9906 116.521 20.1466C116.365 20.3026 116.157 20.3806 115.897 20.3806C115.637 20.3806 115.424 20.3026 115.26 20.1466C115.104 19.9906 115.026 19.7956 115.026 19.5616ZM129.664 14.3616L129.807 12.9056H129.755L129.196 14.1666L126.661 18.1966H126.271L123.606 14.1536L123.073 12.9186H123.008L123.216 14.3486V20.2246H121.994V11.1246H122.969L126.05 15.7656L126.531 16.7536H126.557L127.012 15.7396L129.937 11.1246H130.964V20.2246H129.664V14.3616ZM133.189 13.8286C133.969 13.4559 134.935 13.2696 136.088 13.2696C136.608 13.2696 137.024 13.3389 137.336 13.4776C137.657 13.6076 137.904 13.7766 138.077 13.9846C138.25 14.1926 138.363 14.4266 138.415 14.6866C138.476 14.9379 138.506 15.1893 138.506 15.4406C138.506 15.9173 138.489 16.3983 138.454 16.8836C138.419 17.3603 138.402 17.8803 138.402 18.4436C138.402 18.7729 138.415 19.0936 138.441 19.4056C138.476 19.7089 138.528 19.9906 138.597 20.2506H137.726L137.401 19.2106H137.271C137.176 19.3406 137.059 19.4749 136.92 19.6136C136.781 19.7436 136.617 19.8606 136.426 19.9646C136.235 20.0686 136.014 20.1553 135.763 20.2246C135.52 20.2939 135.239 20.3286 134.918 20.3286C134.597 20.3286 134.303 20.2853 134.034 20.1986C133.765 20.1033 133.531 19.9733 133.332 19.8086C133.141 19.6439 132.99 19.4446 132.877 19.2106C132.764 18.9679 132.708 18.6993 132.708 18.4046C132.708 18.0146 132.79 17.6766 132.955 17.3906C133.128 17.1046 133.349 16.8706 133.618 16.6886C133.887 16.5066 134.19 16.3723 134.528 16.2856C134.875 16.1989 135.217 16.1556 135.555 16.1556C135.824 16.1556 136.049 16.1599 136.231 16.1686C136.422 16.1773 136.578 16.1903 136.699 16.2076C136.829 16.2163 136.937 16.2293 137.024 16.2466C137.111 16.2553 137.189 16.2639 137.258 16.2726C137.275 16.1426 137.288 16.0299 137.297 15.9346C137.306 15.8393 137.31 15.7179 137.31 15.5706C137.31 15.3279 137.284 15.1243 137.232 14.9596C137.18 14.7949 137.093 14.6649 136.972 14.5696C136.859 14.4656 136.703 14.3919 136.504 14.3486C136.305 14.3053 136.062 14.2836 135.776 14.2836C135.611 14.2836 135.429 14.2966 135.23 14.3226C135.031 14.3486 134.831 14.3876 134.632 14.4396C134.433 14.4829 134.233 14.5393 134.034 14.6086C133.843 14.6779 133.67 14.7516 133.514 14.8296L133.189 13.8286ZM137.258 17.1306C137.189 17.1219 137.115 17.1089 137.037 17.0916C136.959 17.0743 136.859 17.0613 136.738 17.0526C136.625 17.0439 136.487 17.0353 136.322 17.0266C136.166 17.0179 135.971 17.0136 135.737 17.0136C135.2 17.0136 134.771 17.1089 134.45 17.2996C134.138 17.4903 133.982 17.8153 133.982 18.2746C133.982 18.6213 134.103 18.8813 134.346 19.0546C134.597 19.2279 134.918 19.3146 135.308 19.3146C135.594 19.3146 135.845 19.2799 136.062 19.2106C136.287 19.1326 136.478 19.0416 136.634 18.9376C136.799 18.8249 136.929 18.7036 137.024 18.5736C137.128 18.4349 137.206 18.3006 137.258 18.1706V17.1306ZM140.833 13.3996H141.639L141.873 14.2706H141.99C142.224 13.9326 142.528 13.6726 142.9 13.4906C143.273 13.2999 143.693 13.2046 144.161 13.2046C145.149 13.2046 145.886 13.4819 146.371 14.0366C146.857 14.5826 147.099 15.4579 147.099 16.6626C147.099 17.2346 147.017 17.7546 146.852 18.2226C146.696 18.6819 146.467 19.0763 146.163 19.4056C145.869 19.7263 145.505 19.9733 145.071 20.1466C144.647 20.3199 144.17 20.4066 143.641 20.4066C143.468 20.4066 143.308 20.3979 143.16 20.3806C143.022 20.3719 142.892 20.3503 142.77 20.3156C142.649 20.2896 142.528 20.2593 142.406 20.2246C142.285 20.1813 142.159 20.1336 142.029 20.0816V22.8246H140.833V13.3996ZM143.888 14.2186C143.368 14.2186 142.961 14.3486 142.666 14.6086C142.372 14.8686 142.159 15.2673 142.029 15.8046V18.9506C142.229 19.0893 142.445 19.1976 142.679 19.2756C142.913 19.3536 143.212 19.3926 143.576 19.3926C144.278 19.3926 144.829 19.1629 145.227 18.7036C145.626 18.2443 145.825 17.5596 145.825 16.6496C145.825 15.9129 145.678 15.3236 145.383 14.8816C145.089 14.4396 144.59 14.2186 143.888 14.2186ZM150.959 17.1566H150.218V20.2246H149.022V13.3996H150.218V16.5066L150.933 16.2726L153.26 13.3996H154.573L152.35 16.0516H152.363L151.661 16.5586L152.506 17.1436L154.911 20.2246H153.403L150.959 17.1566ZM161.543 19.6656C161.239 19.8909 160.862 20.0729 160.412 20.2116C159.961 20.3416 159.471 20.4066 158.943 20.4066C158.371 20.4066 157.872 20.3243 157.448 20.1596C157.032 19.9863 156.689 19.7436 156.421 19.4316C156.152 19.1196 155.953 18.7426 155.823 18.3006C155.693 17.8586 155.628 17.3646 155.628 16.8186C155.628 15.6486 155.914 14.7559 156.486 14.1406C157.066 13.5166 157.89 13.2046 158.956 13.2046C159.294 13.2046 159.632 13.2436 159.97 13.3216C160.308 13.3909 160.611 13.5296 160.88 13.7376C161.148 13.9369 161.365 14.2143 161.53 14.5696C161.703 14.9249 161.79 15.3886 161.79 15.9606C161.79 16.0993 161.785 16.2596 161.777 16.4416C161.768 16.6236 161.751 16.8013 161.725 16.9746H156.85C156.867 17.7719 157.058 18.3743 157.422 18.7816C157.786 19.1889 158.405 19.3926 159.281 19.3926C159.645 19.3926 159.991 19.3319 160.321 19.2106C160.65 19.0806 160.906 18.9289 161.088 18.7556L161.543 19.6656ZM160.646 16.1166C160.663 15.4233 160.52 14.9336 160.217 14.6476C159.922 14.3616 159.506 14.2186 158.969 14.2186C158.362 14.2186 157.881 14.3616 157.526 14.6476C157.17 14.9336 156.962 15.4233 156.902 16.1166H160.646ZM168.545 14.4136H166.179V20.2246H164.983V14.4136H162.617V13.3996H168.545V14.4136Z" fill="black"/>
<path d="M26.9899 15.8783L24.7307 15.5345L23.7208 13.3905C23.6932 13.3318 23.6478 13.2842 23.5918 13.2554C23.4512 13.1827 23.2803 13.2432 23.21 13.3905L22.2001 15.5345L19.9409 15.8783C19.8786 15.8876 19.8216 15.9184 19.778 15.965C19.7253 16.0217 19.6963 16.098 19.6973 16.1772C19.6983 16.2563 19.7293 16.3318 19.7834 16.3871L21.418 18.0559L21.0318 20.4124C21.0227 20.4672 21.0285 20.5236 21.0485 20.5751C21.0685 20.6267 21.1019 20.6713 21.1448 20.704C21.1878 20.7367 21.2387 20.7561 21.2917 20.7601C21.3447 20.764 21.3977 20.7524 21.4447 20.7264L23.4654 19.6138L25.4861 20.7264C25.5413 20.7571 25.6054 20.7674 25.6668 20.7562C25.8216 20.7283 25.9257 20.5745 25.899 20.4124L25.5128 18.0559L27.1474 16.3871C27.1919 16.3414 27.2213 16.2818 27.2302 16.2166C27.2542 16.0535 27.1456 15.9026 26.9899 15.8783Z" fill="#F2C94C"/>
<path d="M16.4145 15.8783L13.9294 15.5345L12.8184 13.3905C12.7881 13.3318 12.7382 13.2842 12.6765 13.2554C12.5219 13.1827 12.3339 13.2432 12.2566 13.3905L11.1457 15.5345L8.66055 15.8783C8.59204 15.8876 8.5294 15.9184 8.48144 15.965C8.42345 16.0217 8.3915 16.098 8.39261 16.1772C8.39371 16.2563 8.42777 16.3318 8.48731 16.3871L10.2853 18.0559L9.86055 20.4124C9.85058 20.4672 9.85696 20.5236 9.87894 20.5751C9.90092 20.6267 9.93764 20.6713 9.98492 20.704C10.0322 20.7367 10.0882 20.7561 10.1464 20.7601C10.2047 20.764 10.263 20.7524 10.3147 20.7264L12.5375 19.6138L14.7603 20.7264C14.821 20.7571 14.8915 20.7674 14.959 20.7562C15.1294 20.7283 15.2439 20.5745 15.2145 20.4124L14.7897 18.0559L16.5877 16.3871C16.6367 16.3414 16.669 16.2818 16.6788 16.2166C16.7052 16.0535 16.5858 15.9026 16.4145 15.8783Z" fill="#F2C94C"/>
<path d="M38.27 15.8783L35.7848 15.5345L34.6739 13.3905C34.6436 13.3318 34.5936 13.2842 34.532 13.2554C34.3773 13.1827 34.1894 13.2432 34.1121 13.3905L33.0012 15.5345L30.516 15.8783C30.4475 15.8876 30.3849 15.9184 30.3369 15.965C30.2789 16.0217 30.247 16.098 30.2481 16.1772C30.2492 16.2563 30.2832 16.3318 30.3428 16.3871L32.1408 18.0559L31.716 20.4124C31.7061 20.4672 31.7124 20.5236 31.7344 20.5751C31.7564 20.6267 31.7931 20.6713 31.8404 20.704C31.8877 20.7367 31.9436 20.7561 32.0019 20.7601C32.0602 20.764 32.1185 20.7524 32.1702 20.7264L34.393 19.6138L36.6158 20.7264C36.6765 20.7571 36.747 20.7674 36.8145 20.7562C36.9848 20.7283 37.0993 20.5745 37.07 20.4124L36.6452 18.0559L38.4432 16.3871C38.4922 16.3414 38.5244 16.2818 38.5342 16.2166C38.5607 16.0535 38.4413 15.9026 38.27 15.8783Z" fill="#F2C94C"/>
<path d="M48.8444 15.8783L46.5852 15.5345L45.5753 13.3905C45.5477 13.3318 45.5023 13.2842 45.4462 13.2554C45.3057 13.1827 45.1348 13.2432 45.0645 13.3905L44.0546 15.5345L41.7954 15.8783C41.7331 15.8876 41.6761 15.9184 41.6325 15.965C41.5798 16.0217 41.5508 16.098 41.5518 16.1772C41.5528 16.2563 41.5838 16.3318 41.6379 16.3871L43.2724 18.0559L42.8863 20.4124C42.8772 20.4672 42.883 20.5236 42.903 20.5751C42.923 20.6267 42.9564 20.6713 42.9993 20.704C43.0423 20.7367 43.0932 20.7561 43.1462 20.7601C43.1992 20.764 43.2522 20.7524 43.2991 20.7264L45.3199 19.6138L47.3406 20.7264C47.3958 20.7571 47.4599 20.7674 47.5213 20.7562C47.6761 20.7283 47.7802 20.5745 47.7535 20.4124L47.3673 18.0559L49.0019 16.3871C49.0464 16.3414 49.0758 16.2818 49.0847 16.2166C49.1087 16.0535 49.0001 15.9026 48.8444 15.8783Z" fill="#F2C94C"/>
<path d="M60.1245 15.8783L57.6393 15.5345L56.5284 13.3905C56.4981 13.3318 56.4481 13.2842 56.3865 13.2554C56.2318 13.1827 56.0439 13.2432 55.9666 13.3905L54.8557 15.5345L52.3705 15.8783C52.302 15.8876 52.2394 15.9184 52.1914 15.965C52.1334 16.0217 52.1015 16.098 52.1026 16.1772C52.1037 16.2563 52.1377 16.3318 52.1973 16.3871L53.9953 18.0559L53.5705 20.4124C53.5605 20.4672 53.5669 20.5236 53.5889 20.5751C53.6109 20.6267 53.6476 20.6713 53.6949 20.704C53.7422 20.7367 53.7981 20.7561 53.8564 20.7601C53.9147 20.764 53.973 20.7524 54.0247 20.7264L56.2475 19.6138L58.4703 20.7264C58.531 20.7571 58.6015 20.7674 58.669 20.7562C58.8393 20.7283 58.9538 20.5745 58.9245 20.4124L58.4997 18.0559L60.2977 16.3871C60.3466 16.3414 60.3789 16.2818 60.3887 16.2166C60.4152 16.0535 60.2957 15.9026 60.1245 15.8783Z" fill="#F2C94C"/>
</svg>
