<svg width="13" height="18" viewBox="0 0 13 18" fill="none" xmlns="http://www.w3.org/2000/svg">
<path d="M7.11577 1C7.40467 1.05358 7.70194 1.09068 7.98666 1.15663C10.1136 1.64714 11.8177 3.44017 12.1988 5.5547C12.4123 6.74593 12.2155 7.88357 11.801 8.99649C11.3488 10.2207 10.7082 11.346 9.97129 12.4218C9.11714 13.6748 8.22532 14.9032 7.35024 16.1439C7.24138 16.2964 7.14089 16.453 7.03203 16.6014C6.83105 16.8693 6.45004 16.8734 6.26162 16.5973C5.12276 14.9485 3.87923 13.3739 2.83248 11.6634C2.17094 10.5834 1.58476 9.46638 1.24562 8.23806C0.814356 6.67586 0.927405 5.16724 1.77318 3.76167C2.69012 2.24069 4.05508 1.33387 5.83874 1.05771C5.95179 1.04122 6.06065 1.02061 6.1737 1C6.48772 1 6.80174 1 7.11577 1ZM6.63426 15.505C6.67195 15.4637 6.68451 15.4555 6.69288 15.4431C7.55121 14.2272 8.42211 13.0236 9.2595 11.7953C9.9671 10.7524 10.5784 9.65599 10.9929 8.46064C11.3111 7.53321 11.4619 6.58518 11.2483 5.61241C10.7543 3.31651 8.63983 1.75843 6.26162 1.95628C4.65801 2.08818 3.43541 2.8631 2.60639 4.21508C1.8611 5.43104 1.79411 6.73356 2.1835 8.0773C2.50171 9.17373 3.02508 10.1712 3.61964 11.144C4.52821 12.6361 5.5917 14.0211 6.60077 15.4431C6.60914 15.4555 6.61752 15.472 6.63426 15.505Z" fill="#555555" stroke="#555555" stroke-width="0.5"/>
<path d="M9.46889 6.54808C9.46889 8.08968 8.21279 9.33037 6.64686 9.33037C5.08093 9.33037 3.82483 8.08968 3.82483 6.54808C3.82483 5.01061 5.08511 3.77404 6.65523 3.77404C8.20861 3.77816 9.4647 5.01885 9.46889 6.54808ZM8.52682 6.5522C8.52682 5.54646 7.67686 4.70559 6.65523 4.70147C5.62942 4.69734 4.7669 5.54234 4.7669 6.5522C4.7669 7.55795 5.61686 8.39882 6.63848 8.40294C7.6643 8.41118 8.52682 7.56619 8.52682 6.5522Z" fill="#555555" stroke="#555555" stroke-width="0.5"/>
</svg>
